<svg id="instagram_hover" xmlns="http://www.w3.org/2000/svg" width="45" height="45" viewBox="0 0 45 45">
  <circle id="elipse_instagram_hover" data-name="elipse instagram hover" cx="22.5" cy="22.5" r="22.5" fill="#fff"/>
  <path id="instagram_hover_path" data-name="instagram hover path" 
    d="M5.546,19.987a5.327,5.327,0,0,1-3.152-.979A5.44,5.44,0,0,1,0,14.364q-.011-4.372,0-8.744A5.335,5.335,0,0,1,.109,4.5,5.425,5.425,0,0,1,4.218.164c.293-.082.6-.11.9-.164h9.759c.063.011.126.027.19.035A4.9,4.9,0,0,1,16.642.45,5.392,5.392,0,0,1,19.98,5.562c.039,2.953.009,5.907.008,8.861a5.146,5.146,0,0,1-.451,2.218,5.377,5.377,0,0,1-5.091,3.337c-1.2.017-2.4.022-3.6.022C9.079,20,7.312,19.989,5.546,19.987ZM5.634,1.781a4.212,4.212,0,0,0-1.3.2A3.68,3.68,0,0,0,1.778,5.589q-.017,4.4,0,8.8a3.694,3.694,0,0,0,1.579,3.128,3.75,3.75,0,0,0,2.29.7q2.176,0,4.351,0h4.333a3.962,3.962,0,0,0,1.342-.2,3.734,3.734,0,0,0,2.544-3.644c.006-2.915.011-5.828-.007-8.743a4.233,4.233,0,0,0-.2-1.3,3.7,3.7,0,0,0-3.651-2.554q-2.032,0-4.065,0Q7.962,1.769,5.634,1.781ZM4.858,9.993A5.137,5.137,0,1,1,10,15.131H9.991A5.16,5.16,0,0,1,4.858,9.993ZM9.992,6.629a3.363,3.363,0,1,0,.01,0Zm4.064-1.994a1.3,1.3,0,1,1,1.308,1.307A1.308,1.308,0,0,1,14.056,4.635Z" transform="translate(13 13)" fill="#252b50" 
    stroke="rgba(0,0,0,0)" stroke-miterlimit="10" stroke-width="1"/>
</svg>
