<svg xmlns="http://www.w3.org/2000/svg" width="30" height="30" viewBox="0 0 30 30">
  <g id="Grupo_169" data-name="Grupo 169" transform="translate(-460.5 -655)">
    <g id="Grupo_163" data-name="Grupo 163" transform="translate(28 -55)">
      <circle id="Elipse_24" data-name="Elipse 24" cx="15" cy="15" r="15" transform="translate(432.5 710)" fill="#252b50"/>
      <path id="Unión_1" data-name="Unión 1" d="M4.067,14.657a3.907,3.907,0,0,1-2.312-.718A3.989,3.989,0,0,1,0,10.534Q0,7.327.005,4.121A3.912,3.912,0,0,1,.08,3.3,3.979,3.979,0,0,1,3.094.12c.215-.06.439-.081.659-.12h7.157c.046.008.093.02.139.025A3.592,3.592,0,0,1,12.2.33a3.954,3.954,0,0,1,2.448,3.748c.028,2.166.007,4.332.006,6.5a3.774,3.774,0,0,1-.331,1.627,3.943,3.943,0,0,1-3.734,2.447c-.88.012-1.761.016-2.641.016C6.658,14.667,5.362,14.658,4.067,14.657ZM4.132,1.306a3.089,3.089,0,0,0-.954.146A2.7,2.7,0,0,0,1.3,4.1q-.013,3.228,0,6.454a2.709,2.709,0,0,0,1.158,2.294,2.75,2.75,0,0,0,1.679.512q1.6,0,3.191,0h3.177a2.905,2.905,0,0,0,.984-.148,2.738,2.738,0,0,0,1.866-2.672c0-2.138.008-4.274-.005-6.412a3.1,3.1,0,0,0-.147-.953A2.712,2.712,0,0,0,10.528,1.3l-2.981,0Q5.839,1.3,4.132,1.306ZM3.563,7.328A3.767,3.767,0,1,1,7.333,11.1H7.327A3.784,3.784,0,0,1,3.563,7.328ZM7.328,4.861a2.466,2.466,0,1,0,.007,0ZM10.308,3.4a.957.957,0,1,1,.959.959A.959.959,0,0,1,10.308,3.4Z" transform="translate(440.473 718)" fill="#fff" stroke="rgba(0,0,0,0)" stroke-miterlimit="10" stroke-width="1"/>
    </g>
  </g>
</svg>
