<?xml version="1.0" encoding="utf-8"?>
<!-- Generator: Adobe Illustrator 16.0.3, SVG Export Plug-In . SVG Version: 6.00 Build 0)  -->
<!DOCTYPE svg PUBLIC "-//W3C//DTD SVG 1.1//EN" "http://www.w3.org/Graphics/SVG/1.1/DTD/svg11.dtd">
<svg version="1.1" id="Capa_1" xmlns="http://www.w3.org/2000/svg" xmlns:xlink="http://www.w3.org/1999/xlink" x="0px" y="0px"
	 width="50px" height="50px" viewBox="-10 -10 50 50" enable-background="new -10 -10 50 50" xml:space="preserve">
<g id="Grupo_166" transform="translate(-432.5 -710)">
	<circle id="Elipse_24" fill="#5489FD" cx="447.5" cy="725" r="25"/>
	<path id="Unión_1" fill="#FFFFFF" d="M442.567,737.761c-1.379,0.02-2.728-0.399-3.854-1.195c-1.879-1.27-2.982-3.408-2.925-5.675
		c0-3.563,0.002-7.127,0.008-10.689c-0.007-0.459,0.035-0.918,0.125-1.369c0.463-2.612,2.439-4.697,5.023-5.299
		c0.359-0.1,0.731-0.135,1.099-0.2h11.928c0.078,0.013,0.156,0.033,0.23,0.042c0.664,0.062,1.313,0.233,1.919,0.508
		c2.521,1.038,4.143,3.521,4.081,6.247c0.045,3.61,0.011,7.22,0.01,10.833c0.02,0.934-0.17,1.858-0.552,2.711
		c-1.03,2.517-3.505,4.138-6.223,4.079c-1.468,0.02-2.937,0.026-4.402,0.026C446.885,737.778,444.725,737.764,442.567,737.761z
		 M442.675,715.51c-0.54-0.003-1.076,0.079-1.59,0.243c-1.91,0.61-3.186,2.409-3.13,4.414c-0.015,3.586-0.015,7.172,0,10.758
		c-0.041,1.517,0.684,2.952,1.93,3.821c0.814,0.583,1.797,0.882,2.798,0.853c1.778,0,3.551,0,5.318,0h5.297
		c0.557,0.014,1.109-0.069,1.639-0.245c1.902-0.64,3.166-2.446,3.11-4.453c0-3.563,0.013-7.124-0.01-10.687
		c0.003-0.539-0.08-1.075-0.244-1.589c-0.622-1.919-2.441-3.195-4.458-3.125h-4.969C446.469,715.5,444.572,715.504,442.675,715.51z
		 M441.727,725.547c0.004-3.468,2.819-6.275,6.287-6.271s6.273,2.819,6.271,6.287c-0.005,3.463-2.813,6.266-6.274,6.27H448
		C444.538,731.814,441.737,729.009,441.727,725.547z M448.001,721.435c-2.27,0.003-4.107,1.847-4.104,4.116
		c0.003,2.27,1.846,4.107,4.116,4.104c2.27-0.004,4.107-1.846,4.104-4.116c-0.003-2.265-1.839-4.101-4.104-4.104H448.001z
		 M452.969,719c0.002-0.881,0.716-1.594,1.599-1.592c0.88,0.002,1.593,0.718,1.592,1.598c-0.004,0.879-0.713,1.59-1.592,1.592
		C453.685,720.598,452.969,719.883,452.969,719z"/>
</g>
</svg>
