<?xml version="1.0" encoding="utf-8"?>
<!-- Generator: Adobe Illustrator 25.4.1, SVG Export Plug-In . SVG Version: 6.00 Build 0)  -->
<svg version="1.1" id="Capa_1" xmlns="http://www.w3.org/2000/svg" xmlns:xlink="http://www.w3.org/1999/xlink" x="0px" y="0px"
	 viewBox="0 0 32.4 32.4" style="enable-background:new 0 0 32.4 32.4;" xml:space="preserve">
<style type="text/css">
	.st0{fill:#333333;}
</style>
<path id="instagram_00000000923022273805451300000005253338395293425553_" class="st0" d="M11,28.1c-1.4,0-2.7-0.4-3.8-1.2
	c-1.8-1.2-2.9-3.3-2.9-5.6c0-3.5,0-7,0-10.5c0-0.5,0-0.9,0.1-1.3C4.9,7,6.8,5,9.4,4.4c0.4-0.1,0.7-0.1,1.1-0.2h11.7
	c0.1,0,0.2,0,0.2,0c0.7,0.1,1.3,0.2,1.9,0.5c2.5,1,4.1,3.4,4,6.1c0,3.5,0,7.1,0,10.6c0,0.9-0.2,1.8-0.5,2.7c-1,2.5-3.4,4.1-6.1,4
	c-1.4,0-2.9,0-4.3,0C15.2,28.2,13.1,28.1,11,28.1z M11.1,6.3c-0.5,0-1.1,0.1-1.6,0.2c-1.9,0.6-3.1,2.4-3.1,4.3c0,3.5,0,7,0,10.5
	c0,1.5,0.7,2.9,1.9,3.7c0.8,0.6,1.8,0.9,2.7,0.8c1.7,0,3.5,0,5.2,0h5.2c0.5,0,1.1-0.1,1.6-0.2c1.9-0.6,3.1-2.4,3-4.4
	c0-3.5,0-7,0-10.5c0-0.5-0.1-1.1-0.2-1.6c-0.6-1.9-2.4-3.1-4.4-3.1c-1.6,0-3.2,0-4.9,0C14.8,6.3,12.9,6.3,11.1,6.3z M10.1,16.2
	c0-3.4,2.8-6.1,6.2-6.1c3.4,0,6.1,2.8,6.1,6.2c0,3.4-2.8,6.1-6.1,6.1h0C12.9,22.3,10.2,19.6,10.1,16.2z M16.3,12.1c-2.2,0-4,1.8-4,4
	c0,2.2,1.8,4,4,4s4-1.8,4-4C20.3,13.9,18.5,12.2,16.3,12.1L16.3,12.1z M21.1,9.8c0-0.9,0.7-1.6,1.6-1.5c0.9,0,1.6,0.7,1.5,1.6
	c0,0.9-0.7,1.5-1.5,1.5C21.9,11.3,21.1,10.6,21.1,9.8z"/>
</svg>
