<?xml version="1.0" encoding="utf-8"?>
<!-- Generator: Adobe Illustrator 25.4.1, SVG Export Plug-In . SVG Version: 6.00 Build 0)  -->
<svg version="1.1" id="Capa_1" xmlns="http://www.w3.org/2000/svg" xmlns:xlink="http://www.w3.org/1999/xlink" x="0px" y="0px"
	 viewBox="0 0 160.7 81.5" style="enable-background:new 0 0 160.7 81.5;" xml:space="preserve">
<style type="text/css">
	.st0{fill:#03CAFF;}
	.st1{fill:#333333;}
</style>
<g>
	<g>
		<path d="M19.7,52.1c-0.2,0-0.4-0.2-0.4-0.4c0-0.2,0.1-0.4,0.4-0.5c15.4-1.9,31-3.2,46.6-3.8c8-0.7,16.1-1.3,24.1-2l-22-1.2
			c-0.2,0-0.4-0.2-0.4-0.4c0-0.2,0.1-0.4,0.4-0.4c4.9-0.8,9.8-1.5,14.7-2.3c1.8-0.3,3.6-0.6,5.4-0.8c-0.6-0.4-1.1-0.8-1.6-1.3
			c-2.2-2.2-3.5-5.4-3.7-8.9c-1,2.6-2.3,5.2-4.3,7.3c-1.1,1.2-2.5,2.1-4,2.8c-0.9,1.3-2.6,2.2-4.5,2.2c-2.4,0.1-4.4-1-5.3-2.9
			c-0.1-0.2,0-0.4,0.1-0.5c0.1-0.1,0.4-0.1,0.5,0c2.5,1.8,5.8,1.7,8.6,0.5c0.1-0.1,0.1-0.2,0.2-0.3c-11-6.2-22.6-11.3-34.5-15.2
			c-0.2-0.1-0.3-0.2-0.3-0.4c0-0.2,0.1-0.3,0.2-0.4C56.4,13.5,76.1,8.8,95.3,10c0.2,0,0.4,0.2,0.4,0.4c0,0.2-0.2,0.4-0.4,0.4
			c-1.5-0.1-3.1-0.2-4.6-0.2c0.1,0.1,0.2,0.4,0.1,0.5l-0.1,0.2c-1.2,2-2.5,4-3.5,6.1c-0.8,2.1-1.5,4.4-2.1,6.6l0,0.1
			c-0.3,1.1-0.7,2.3-1,3.5c-0.2,3.7,0.6,7.8,3.5,10.7c0.7,0.7,1.5,1.3,2.4,1.7c3.6-0.6,7.1-1.1,10.7-1.7c0.2,0,0.3,0.1,0.4,0.2
			c0.1,0.2,0.1,0.3,0,0.5c-1.4,1.7-3.6,2.8-6.1,2.9c-1.8,0.1-3.6-0.3-5.2-1c-2.1,0.3-4.3,0.7-6.4,1c-3.6,0.6-7.1,1.1-10.7,1.7
			L96.6,45c0.2,0,0.4,0.2,0.4,0.4c0,0.2-0.2,0.4-0.4,0.4c-5.1,0.4-10.2,0.8-15.3,1.3c19.9-0.2,39.8,0.6,59.6,2.5
			c0.2,0,0.4,0.2,0.4,0.5c0,0.2-0.2,0.4-0.5,0.4c-24.8-2.4-49.7-3.1-74.6-2.1c-2.2,0.2-4.4,0.4-6.7,0.5C46.4,50,33.1,51,19.7,52.1
			C19.8,52.1,19.8,52.1,19.7,52.1z M67,40.7c0.8,0.6,2,0.9,3.1,0.8c0.9,0,1.7-0.3,2.4-0.7C70.8,41.4,68.8,41.4,67,40.7z M91.3,40.8
			c1.1,0.3,2.3,0.5,3.4,0.4c1.8-0.1,3.4-0.7,4.6-1.7C96.6,40,94,40.4,91.3,40.8z M40.9,23.4c11.8,3.9,23.3,9,34.1,15.2
			c0.1,0.1,0.2,0.2,0.2,0.3c1.1-0.6,2-1.3,2.8-2.1c2.4-2.5,3.9-5.9,4.9-9.2c0.1-1,0.2-2.1,0.4-3.1c0.6-2.6,1.6-5,2.8-7.4
			c0.9-2.3,2.1-4.5,3.8-6.4c0,0,0,0,0,0c-0.2,0-0.4,0-0.6,0C72.6,10.6,55.6,15.1,40.9,23.4z"/>
		<path class="st0" d="M19.7,52.1c-0.2,0-0.4-0.2-0.4-0.4c0-0.2,0.1-0.4,0.4-0.5c15.4-1.9,31-3.2,46.6-3.8c8-0.7,16.1-1.3,24.1-2
			l-22-1.2c-0.2,0-0.4-0.2-0.4-0.4c0-0.2,0.1-0.4,0.4-0.4c4.9-0.8,9.8-1.5,14.7-2.3c1.8-0.3,3.6-0.6,5.4-0.8
			c-0.6-0.4-1.1-0.8-1.6-1.3c-2.2-2.2-3.5-5.4-3.7-8.9c-1,2.6-2.3,5.2-4.3,7.3c-1.1,1.2-2.5,2.1-4,2.8c-0.9,1.3-2.6,2.2-4.5,2.2
			c-2.4,0.1-4.4-1-5.3-2.9c-0.1-0.2,0-0.4,0.1-0.5c0.1-0.1,0.4-0.1,0.5,0c2.5,1.8,5.8,1.7,8.6,0.5c0.1-0.1,0.1-0.2,0.2-0.3
			c-11-6.2-22.6-11.3-34.5-15.2c-0.2-0.1-0.3-0.2-0.3-0.4c0-0.2,0.1-0.3,0.2-0.4C56.4,13.5,76.1,8.8,95.3,10c0.2,0,0.4,0.2,0.4,0.4
			c0,0.2-0.2,0.4-0.4,0.4c-1.5-0.1-3.1-0.2-4.6-0.2c0.1,0.1,0.2,0.4,0.1,0.5l-0.1,0.2c-1.2,2-2.5,4-3.5,6.1
			c-0.8,2.1-1.5,4.4-2.1,6.6l0,0.1c-0.3,1.1-0.7,2.3-1,3.5c-0.2,3.7,0.6,7.8,3.5,10.7c0.7,0.7,1.5,1.3,2.4,1.7
			c3.6-0.6,7.1-1.1,10.7-1.7c0.2,0,0.3,0.1,0.4,0.2c0.1,0.2,0.1,0.3,0,0.5c-1.4,1.7-3.6,2.8-6.1,2.9c-1.8,0.1-3.6-0.3-5.2-1
			c-2.1,0.3-4.3,0.7-6.4,1c-3.6,0.6-7.1,1.1-10.7,1.7L96.6,45c0.2,0,0.4,0.2,0.4,0.4c0,0.2-0.2,0.4-0.4,0.4
			c-5.1,0.4-10.2,0.8-15.3,1.3c19.9-0.2,39.8,0.6,59.6,2.5c0.2,0,0.4,0.2,0.4,0.5c0,0.2-0.2,0.4-0.5,0.4
			c-24.8-2.4-49.7-3.1-74.6-2.1c-2.2,0.2-4.4,0.4-6.7,0.5C46.4,50,33.1,51,19.7,52.1C19.8,52.1,19.8,52.1,19.7,52.1z M67,40.7
			c0.8,0.6,2,0.9,3.1,0.8c0.9,0,1.7-0.3,2.4-0.7C70.8,41.4,68.8,41.4,67,40.7z M91.3,40.8c1.1,0.3,2.3,0.5,3.4,0.4
			c1.8-0.1,3.4-0.7,4.6-1.7C96.6,40,94,40.4,91.3,40.8z M40.9,23.4c11.8,3.9,23.3,9,34.1,15.2c0.1,0.1,0.2,0.2,0.2,0.3
			c1.1-0.6,2-1.3,2.8-2.1c2.4-2.5,3.9-5.9,4.9-9.2c0.1-1,0.2-2.1,0.4-3.1c0.6-2.6,1.6-5,2.8-7.4c0.9-2.3,2.1-4.5,3.8-6.4
			c0,0,0,0,0,0c-0.2,0-0.4,0-0.6,0C72.6,10.6,55.6,15.1,40.9,23.4z"/>
		<g>
			<path class="st1" d="M131.2,71.7c-0.1,0-0.2-0.1-0.2-0.2c0-0.1,0-0.2,0-0.3c-0.4-0.2-0.8-0.4-1.1-0.7c-0.8-0.7-1.2-1.8-1-2.8
				c0.1-0.9,0.6-1.6,1.3-1.9c0,0,0.1,0,0.1,0c-0.1-0.7-0.2-1.5-0.3-2.2c-0.3-2.2-0.6-4.5-0.9-6.7c-0.4,2-0.9,4-1.3,6
				c-0.5,2.4-1.1,4.7-1.6,7.1c0,0.1-0.1,0.2-0.2,0.2c-0.1,0-0.2-0.1-0.2-0.1c-0.2-0.5-0.4-1.1-0.5-1.6c-0.1-0.4-0.3-0.8-0.4-1.1
				c-0.2,0.3-0.3,0.6-0.5,0.9c-0.2,0.5-0.5,0.9-0.7,1.4c0,0.1-0.1,0.1-0.2,0.1c-0.1,0-0.2-0.1-0.2-0.2c-0.1-0.6-0.3-1.2-0.4-1.7
				c-0.1-0.5-0.2-0.9-0.3-1.4l-2.8,3c-0.1,0.1-0.2,0.1-0.2,0c-0.1,0-0.1-0.1-0.1-0.2l0.8-6.3c-0.9,2.7-2.2,5.2-4,7.5
				c0,0.1-0.1,0.1-0.2,0.1c-0.1,0-0.1,0-0.2-0.1c-0.5-0.9-1-1.8-1.4-2.7c0,0.1-0.1,0.2-0.1,0.2c-1,1.5-3.4,2.5-5.5,1.5
				c-0.7-0.4-1.2-0.9-1.5-1.6c-0.7,0.8-1.7,1.4-2.8,1.7c-1.7,0.4-3.6,0.2-5.3-0.7c-0.7-0.2-1.3-0.6-1.8-1.2c-0.1-0.1-0.1-0.2,0-0.3
				c0.1-0.1,0.2-0.1,0.3,0c0.5,0.4,1.1,0.8,1.7,1.1c0.9,0.3,1.9,0.2,2.7-0.1c1.1-0.4,1.8-1.3,1.7-2.2c-0.1-1.4-1.5-2.5-2.9-3
				c-0.1,0-0.1,0-0.2-0.1c-1,0.5-2.1,0.8-3.4,0.7c-0.1,0-0.1,0-0.2-0.1c-0.2,1.5-0.3,3.1-0.2,4.6c0,0.1-0.1,0.2-0.2,0.2
				c-0.1,0-0.2-0.1-0.2-0.2c-0.4-5.1,1-10.2,4-14.2c0,0,0.1-0.1,0.1-0.1c0.1,0,0.1,0,0.2,0.1c2,1.7,2.8,4.3,2,6.4
				c-0.3,0.9-1,1.7-1.8,2.2c1.5,0.5,2.9,1.7,3,3.3c0.1,1.2-0.7,2.2-2,2.7c-0.4,0.2-0.9,0.3-1.3,0.3c1.2,0.3,2.4,0.4,3.5,0.1
				c1.1-0.3,2-0.9,2.7-1.8c-0.1-0.4-0.2-0.8-0.2-1.2c0.1-0.9,0.5-1.5,1.3-1.7c0.1,0,0.1,0,0.2,0c0.1,0,0.1,0.1,0.1,0.2
				c0,1-0.4,2-0.9,2.8c0.3,0.6,0.7,1.2,1.4,1.6c1.9,0.9,4,0.1,5-1.3c0.1-0.2,0.2-0.3,0.3-0.5c-1.3-3.6-1.1-7.4,0.5-10.5
				c0-0.1,0.2-0.1,0.3-0.1c0.1,0,0.2,0.1,0.1,0.2c-0.3,1.5-0.2,3.1,0,4.7c0,0.3,0.1,0.6,0.1,0.9c0.1,1.5,0.2,3.3-0.5,4.8
				c0.3,0.9,0.8,1.9,1.3,2.7c2.3-3,3.8-6.5,4.6-10.2l0.5-3.6c0-0.1,0.1-0.2,0.2-0.2c0.1,0,0.2,0.1,0.2,0.2c-0.1,1.2-0.2,2.4-0.5,3.6
				l-1.1,8.8l2.6-2.9c0.1-0.1,0.1-0.1,0.2-0.1c0.1,0,0.1,0.1,0.2,0.2c0.1,0.6,0.3,1.2,0.4,1.7c0.1,0.4,0.2,0.8,0.3,1.2
				c0.1-0.3,0.3-0.6,0.4-0.8c0.2-0.5,0.5-0.9,0.7-1.4c0-0.1,0.1-0.1,0.2-0.1c0.1,0,0.2,0.1,0.2,0.1c0.2,0.5,0.4,1.1,0.6,1.6
				c0.1,0.3,0.2,0.6,0.3,0.9c0.5-2.1,1-4.3,1.4-6.4c0.5-2.4,1.1-4.7,1.6-7.1c0-0.1,0.1-0.2,0.2-0.2c0.1,0,0.2,0.1,0.2,0.2
				c0.3,2.6,0.7,5.2,1,7.9c0.3,2.5,0.7,4.9,1,7.4c0.5,0.2,1,0.2,1.6,0.1c0.8-0.1,1.4-0.5,1.7-1c0.3-0.5,0.3-1.2,0-1.9
				c-0.4-0.9-1.2-1.7-2.1-2c-0.1,0-0.1-0.1-0.1-0.2c0-0.1,0-0.2,0.1-0.2l0,0c1.1-1,2.3-2,3.5-3c0.1-0.1,0.2-0.1,0.3,0s0.1,0.2,0,0.3
				c-1.1,1-2.2,1.9-3.3,2.8c0.9,0.4,1.7,1.2,2,2.1c0.3,0.8,0.3,1.7,0,2.3c-0.4,0.6-1.1,1.1-2,1.2c-0.5,0.1-1.1,0.1-1.6-0.1
				c0,0,0,0,0,0C131.4,71.6,131.3,71.7,131.2,71.7C131.2,71.7,131.2,71.7,131.2,71.7z M130,66.4c-0.5,0.3-0.8,0.8-0.9,1.4
				c-0.1,0.9,0.2,1.8,0.9,2.5c0.2,0.2,0.5,0.4,0.7,0.5c-0.1-0.7-0.2-1.3-0.3-2C130.3,68,130.2,67.2,130,66.4z M108,65.1
				c-0.6,0.3-0.7,0.9-0.7,1.2c0,0.2,0,0.5,0.1,0.7C107.7,66.5,107.9,65.8,108,65.1z M114.4,58.3c-0.9,2.6-0.9,5.6,0,8.4
				c0.5-1.3,0.4-2.9,0.3-4.1c0-0.3-0.1-0.6-0.1-0.9C114.5,60.6,114.4,59.4,114.4,58.3z M100.6,54.8c-1.9,2.6-3.1,5.6-3.6,8.9
				c0.7-0.9,2-1.1,3.4-0.8c0.9-0.5,1.6-1.3,1.9-2.2C103.1,58.8,102.3,56.4,100.6,54.8z M99.3,63.1c-0.6,0-1.2,0.1-1.6,0.5
				c0.8,0,1.5-0.2,2.2-0.5C99.7,63.2,99.5,63.1,99.3,63.1z"/>
			<path class="st1" d="M37.6,71.3c-1.1,0-2.3-0.3-3.3-0.8c-0.1-0.1-0.1-0.2-0.1-0.3c0-0.1,0.2-0.1,0.3-0.1c1.8,0.8,3.9,0.8,5.8,0.3
				c1.2-0.5,2.3-1.3,3.1-2.3c-2.8-0.6-5.5-1.3-8.3-1.9c-2.8-0.6-5.7-1.3-8.5-1.9c-0.1,0-0.1-0.1-0.2-0.2c0-0.1,0-0.2,0.1-0.2
				c4.5-3.8,10.6-5.6,16.5-4.7c0.1,0,0.2,0.1,0.2,0.2c0,0.1-0.1,0.2-0.2,0.2C37.2,58.8,31.4,60.4,27,64c2.7,0.6,5.4,1.2,8.1,1.8
				c2.9,0.6,5.7,1.3,8.6,1.9c0.1,0,0.1,0.1,0.1,0.1c0,0.1,0,0.1,0,0.2c-0.2,0.3-0.4,0.5-0.6,0.8c0.2-0.2,0.4-0.3,0.6-0.5
				c1.7-1.7,2.6-4,2.6-6.3c-0.2-1-0.4-2-0.6-3c0-0.1,0-0.2,0.1-0.2c0.1,0,0.2,0,0.3,0.1c0.4,1,0.6,2,0.6,3.1c0.3,1.6,0.6,3.3,1,4.9
				c0,0,0,0,0,0c0.5-1,1.4-1.7,2.3-1.8c1-0.1,2,0.4,2.6,1.3c0.5,0.7,0.7,1.6,0.5,2.3c0.3,0,0.5-0.1,0.8-0.1c1-0.1,1.9-0.2,2.9-0.4
				c0.2-0.2,0.4-0.3,0.6-0.4c0.5-0.3,1-0.4,1.5-0.4c1.2-1.5,2-3.2,2.5-5.1l-0.1-6.7c0-0.1,0.1-0.2,0.2-0.2c0.1,0,0.2,0,0.2,0.1
				c0.7,2.2,0.7,4.5,0.1,6.8l0.1,6.3c0.7-0.7,1.5-1.3,2.2-2c0.9-0.8,1.7-1.6,2.6-2.3c0.1,0,0.1-0.1,0.2-0.1c0.1,0,0.1,0.1,0.2,0.1
				l1.7,3.7c0.6-1.4,1.2-2.6,2.1-3.5c1-1,2.8-1.8,4.4-1.2c0.8,0.3,1.5,1,1.8,1.9c0.3,0.8,0.2,1.5-0.2,2.1c-0.1,0.2-0.2,0.3-0.4,0.4
				c0.5,0,0.9-0.1,1.3-0.3c1.4-0.7,2.2-2.5,1.7-4c0-0.1,0-0.2,0.1-0.3c0.1,0,0.2,0,0.3,0.1c0.5,0.9,1,1.9,1.5,2.8
				c0.4,0.7,0.8,1.5,1.2,2.2c0.3-1.1,1-2.1,2.2-2.8c1.4-0.8,2.9-0.9,4.1-0.2c0.1,0.1,0.1,0.2,0.1,0.3c-0.1,0.1-0.2,0.1-0.3,0.1
				c-1.1-0.6-2.5-0.5-3.7,0.2c-1.2,0.7-2,1.9-2,3.1c0,0.1-0.1,0.2-0.2,0.2c-0.1,0-0.2,0-0.2-0.1c-0.5-0.9-1-1.9-1.5-2.8
				c-0.3-0.6-0.6-1.2-0.9-1.7c-0.1,1.3-0.8,2.7-2.1,3.3c-0.7,0.3-1.6,0.4-2.4,0.3c-0.4,0.1-0.8,0-1.2-0.1c-0.8-0.3-1.3-0.9-1.3-1.6
				c0-0.1,0.1-0.2,0.2-0.2c0.1,0,0.2,0,0.2,0.1c0.5,0.7,1.2,1.2,2.1,1.4c0.4-0.1,0.7-0.2,0.9-0.6c0.3-0.5,0.4-1.1,0.2-1.8
				c-0.2-0.7-0.8-1.4-1.5-1.6c-1.4-0.5-3,0.2-3.9,1.1c-1,1-1.6,2.3-2.2,3.8c0,0.1-0.1,0.1-0.2,0.1c0,0,0,0,0,0c-0.1,0-0.2,0-0.2-0.1
				l-1.8-3.9c-0.8,0.7-1.6,1.4-2.3,2.1c-0.9,0.8-1.7,1.6-2.6,2.3c-0.1,0.1-0.2,0.1-0.2,0c-0.1,0-0.1-0.1-0.1-0.2l-0.1-5.5
				c-0.5,1.4-1.2,2.6-2,3.8c0.2,0.1,0.5,0.2,0.7,0.4c0.1,0.1,0.1,0.1,0.1,0.2c0,0.1-0.1,0.1-0.2,0.1c-0.4,0.1-0.9,0.1-1.3,0.2
				c-0.6,0.7-1.3,1.3-2.1,1.8c-0.1,0-0.1,0-0.2,0c-0.1,0-0.1-0.1-0.1-0.2c-0.1-0.5,0-1,0.3-1.4c-0.8,0.1-1.6,0.2-2.4,0.3
				c-0.3,0-0.6,0.1-1,0.1c0,0,0,0.1,0,0.1c-0.4,0.9-1.3,1.4-2.4,1.5c-1.1,0.1-2-0.3-2.6-1c0,0-0.1,0-0.1-0.1c-0.4-0.6-0.5-1.3-0.4-2
				c-0.3-1.4-0.5-2.8-0.8-4.2c-0.3,1.9-1.2,3.7-2.6,5.1c-1.1,1-2.4,1.8-3.8,2.2C39.4,71.2,38.5,71.3,37.6,71.3z M48.5,69.7
				c0.5,0.5,1.3,0.7,2.1,0.7c0.9-0.1,1.6-0.5,2-1.2C51.2,69.4,49.9,69.6,48.5,69.7z M57.1,68.7c-0.3,0.3-0.5,0.7-0.5,1.1
				c0.5-0.4,0.9-0.8,1.4-1.2C57.7,68.6,57.4,68.7,57.1,68.7z M47.9,67.7c0.1,0.5,0.2,1.1,0.3,1.6c1.5-0.2,3-0.4,4.5-0.5
				c0.2-0.7,0.1-1.4-0.4-2.1c-0.5-0.8-1.4-1.2-2.2-1.2c-0.8,0.1-1.6,0.7-2,1.5C48.1,67.3,48,67.5,47.9,67.7z M58.6,67.9
				c-0.3,0-0.6,0.1-0.9,0.3c0.2,0,0.5-0.1,0.7-0.1C58.5,68,58.5,68,58.6,67.9z M59.1,67.9C59.1,68,59.1,68,59.1,67.9
				c0,0.1,0.1,0.1,0.2,0.1C59.2,68,59.2,68,59.1,67.9z M61.7,58.3l0,1.5C61.8,59.3,61.8,58.8,61.7,58.3z"/>
			<path class="st1" d="M75.4,60.4c0,0-0.1,0-0.1,0c-0.1-0.1-0.1-0.2,0-0.3l1.1-1.5c0.1-0.1,0.2-0.1,0.3,0c0.1,0.1,0.1,0.2,0,0.3
				l-1.1,1.5C75.5,60.3,75.4,60.4,75.4,60.4z"/>
			<path class="st1" d="M67.1,60.9C67.1,60.9,67.1,60.9,67.1,60.9c-0.2,0-0.5-0.1-0.5-0.3c0-0.2,0.2-0.4,0.4-0.6l0,0
				c0.1-0.1,0.2-0.1,0.2,0c0.1,0,0.1,0.1,0.1,0.2c0,0.1,0,0.2,0,0.2c0,0.1,0,0.2,0,0.3C67.3,60.9,67.2,60.9,67.1,60.9z"/>
			<path class="st1" d="M53.5,59.8c-0.1,0-0.2-0.1-0.2-0.2c0-0.1,0.1-0.2,0.2-0.2l0.3,0c9-1.7,18.4-3.4,27.6-5.1
				c0.1,0,0.2,0.1,0.2,0.2c0,0.1-0.1,0.2-0.2,0.2c-9.2,1.7-18.5,3.4-27.6,5.1L53.5,59.8C53.5,59.8,53.5,59.8,53.5,59.8z"/>
		</g>
	</g>
</g>
</svg>
