<?xml version="1.0" encoding="utf-8"?>
<!-- Generator: Adobe Illustrator 25.4.1, SVG Export Plug-In . SVG Version: 6.00 Build 0)  -->
<svg version="1.1" id="Capa_1" xmlns="http://www.w3.org/2000/svg" xmlns:xlink="http://www.w3.org/1999/xlink" x="0px" y="0px"
	 viewBox="0 0 401.4 231.3" style="enable-background:new 0 0 401.4 231.3;" xml:space="preserve">
<style type="text/css">
	.st0{fill:none;stroke:#F9F9F9;stroke-width:2;stroke-linecap:round;stroke-linejoin:round;stroke-miterlimit:10;}
	.st1{fill:none;stroke:#000000;stroke-width:2;stroke-linecap:round;stroke-linejoin:round;stroke-miterlimit:10;}
	.st2{fill:none;stroke:#03CAFF;stroke-width:2;stroke-linecap:round;stroke-linejoin:round;stroke-miterlimit:10;}
	.st3{fill:#C5A9FE;}
	.st4{fill:#FFDD57;}
</style>
<g>
	<g>
		<path class="st0" d="M239.5,204.3c-0.9-12.2,2.5-24,9.4-33.4c4.5,3.9,6.4,10,4.7,14.7s-7,7.8-12.8,7.4c3.9-4.9,15.4-0.6,15.8,5.9
			s-10.7,9-15.2,3.4c4.5,3.9,11.1,5.6,16.4,4.2c5.3-1.4,9-6,9.1-11.2c-4.4,1.4-3.2,8.5,1.4,10.8s10,0.3,12.4-3.3s2.5-8.3,2.1-12.8
			s-1.1-9.1-0.2-13.4c-4.9,9.5-3.9,21.8,2.5,32.1c7.4-9.5,11.7-21.1,12.4-33.4c-1.3,10.3-2.6,20.6-3.9,30.9c2.4-2.6,4.9-5.3,7.3-7.9
			c0.6,2.8,1.3,5.5,1.9,8.3c1.1-2.2,2.3-4.3,3.4-6.5c0.9,2.5,1.7,5,2.6,7.5c2.5-11.3,5.1-22.5,7.6-33.8c1.6,12.4,3.3,24.9,4.9,37.3
			c-0.8-4.3-1.5-8.6-2.3-12.9c-3.7,1.8-4,7.3-0.6,10.4s9.4,2.7,11.3-0.7s-0.9-8.7-5.3-10c2.8-2.4,5.6-4.8,8.4-7.3"/>
		<path class="st1" d="M236.3,66.4c-45.5-2.8-91.8,8.2-131.2,31.1c28.7,9.4,56.5,21.7,82.8,36.6c-3.3,9.1-18.6,9.7-22.6,0.9
			c9.3,6.7,23.1,2.9,31-5.4c7.9-8.3,11.3-19.8,14.4-30.8c3.1-11,6.3-22.5,13.9-31.1c-6.3,10.2-12.8,20.6-15.4,32.3
			s-0.8,25.1,7.6,33.6c8.4,8.5,24.3,9.7,31.9,0.4c-25.4,3.9-50.8,7.9-76.1,11.8c22.2,1.2,44.5,2.4,66.7,3.6
			c-60.7,5-121.4,9.9-182,14.9c95.2-11.9,191.6-13.2,287.1-4"/>
		<path class="st0" d="M112,182.6c-13.6-2.1-28.1,2-38.6,11c13.5,3.1,27.1,6.1,40.6,9.2c-4.5,7-14.7,9.6-22,5.6
			c7.5,3.1,16.9,1.4,22.7-4.3s7.9-15,4.9-22.6c1.6,8.4,3.2,16.8,4.9,25.2c-2.6-3.7,0.2-9.8,4.8-10.2c4.5-0.4,8.4,5.1,6.4,9.2
			c-1.9,4.1-8.6,4.6-11.2,0.9c9.3-1.1,18.7-2.3,28-3.4c-3.1-2.9-9.2,0.7-8.3,4.8c10.6-7.4,15.7-21.8,12-34.2
			c0.2,10.7,0.4,21.3,0.6,32c4-3.7,8.1-7.4,12.1-11.1c1.5,3.3,3,6.6,4.5,9.9c1.4-3.3,2.9-6.7,5.4-9.2s6.4-4,9.8-2.8
			c3.4,1.2,5.4,5.7,3.4,8.7c-2,2.9-7.9,1.7-7.8-1.9c2.2,3.3,7,4.6,10.6,2.9c3.6-1.8,5.5-6.4,4.2-10.2c2.3,4.5,4.7,9,7,13.5
			c0.2-6.6,8.6-11.4,14.4-8.3"/>
		<path class="st2" d="M236.3,66.4c-45.5-2.8-91.8,8.2-131.2,31.1c28.7,9.4,56.5,21.7,82.8,36.6c-3.3,9.1-18.6,9.7-22.6,0.9
			c9.3,6.7,23.1,2.9,31-5.4c7.9-8.3,11.3-19.8,14.4-30.8c3.1-11,6.3-22.5,13.9-31.1c-6.3,10.2-12.8,20.6-15.4,32.3
			s-0.8,25.1,7.6,33.6c8.4,8.5,24.3,9.7,31.9,0.4c-25.4,3.9-50.8,7.9-76.1,11.8c22.2,1.2,44.5,2.4,66.7,3.6
			c-60.7,5-121.4,9.9-182,14.9c95.2-11.9,191.6-13.2,287.1-4"/>
		<path class="st0" d="M191.7,186.2c1-1.4,2-2.7,3-4.1"/>
		<path class="st0" d="M169.5,185.6c0.1-0.4,0.1-0.9,0.2-1.3C169,184.8,168.2,185.3,169.5,185.6z"/>
		<path class="st0" d="M132.6,184.6c25.1-4.7,50.2-9.3,75.3-14"/>
	</g>
	<g>
		<g>
			<g>
				<path class="st3" d="M283.5,91.4c1.1,2.9,0.3,6.4-2.2,8c-2.4,1.6-6,0.8-7.5-1.6c-1.5,4.4,1.6,9.4,6,10.3c4.4,1,9.3-2.1,10.2-6.5
					C291.1,97.2,288,92.4,283.5,91.4z M287.9,101.8c-0.3,1.4-1.6,2.3-2.9,2s-2.3-1.6-2-2.9s1.6-2.3,2.9-2
					C287.3,99.1,288.1,100.5,287.9,101.8z"/>
			</g>
		</g>
		<g>
			<path class="st3" d="M265.4,95.6c-0.8,1.4-1.4,2.8-1.7,4.2c-0.3,1.4-0.4,2.9-0.3,4.3c0.2,1.4,0.5,2.8,1.2,4.1
				c0.6,1.3,1.5,2.6,2.5,3.8c-1.5-0.5-2.9-1.6-3.9-3s-1.6-3-1.8-4.7c-0.2-1.7,0.1-3.4,0.8-5C262.9,97.8,264,96.4,265.4,95.6z"/>
		</g>
		<g>
			<path class="st3" d="M288.4,115.3c1-1.1,1.9-2.1,2.7-3.2c0.8-1.1,1.5-2.2,2.2-3.3c0.6-1.1,1.2-2.3,1.7-3.6
				c0.5-1.2,0.9-2.5,1.4-3.9c0.4,1.4,0.4,2.9,0.1,4.4c-0.3,1.4-0.8,2.9-1.5,4.1c-0.7,1.3-1.7,2.4-2.8,3.4
				C291.1,114.1,289.8,114.9,288.4,115.3z"/>
		</g>
		<g>
			<g>
				<path class="st4" d="M248.7,109.4c3.4-5.2,8-9.7,13.4-13s11.6-5.4,17.9-6c6.4-0.6,12.8,0.4,18.7,2.8c5.9,2.3,11.2,6,15.4,10.7
					c-4.7-4.1-10.1-7.2-15.9-9.2s-11.9-2.8-18-2.3c-6,0.5-12,2.4-17.3,5.3C257.6,100.7,252.7,104.7,248.7,109.4z"/>
			</g>
			<g>
				<path class="st4" d="M269.7,89.1c0.2-3.7,1.2-7.3,2.7-10.7c1.5-3.4,3.5-6.6,5.9-9.4c2.5-2.8,5.4-5.3,8.7-7
					c3.3-1.8,7.1-2.8,10.9-2.8c0.5,0,1,0.4,1,1c0,0.3-0.2,0.6-0.4,0.8l0,0c-3.5,2.3-6.9,4.7-9.9,7.5c-3.1,2.8-5.6,6-7.8,9.6
					l-1.1-1.4c2.3-0.8,4.8-1.5,7.3-1.7c2.5-0.3,5.1-0.1,7.5,0.7l0,0c0.4,0.1,0.6,0.6,0.5,1c-0.1,0.2-0.2,0.4-0.4,0.5
					c-4.1,2.1-8.4,3.8-12.6,5.7c-2.1,0.9-4.2,1.9-6.2,3c-1,0.5-2,1.1-3,1.7C271.7,87.9,270.6,88.5,269.7,89.1z M269.7,89.1
					c1-0.7,1.8-1.3,2.8-2c1-0.6,1.9-1.3,2.9-1.9c2-1.2,4-2.4,6-3.4c4.1-2.1,8.3-4,12.3-6.2l0.2,1.4c-2.2-0.6-4.6-0.7-6.9-0.4
					c-2.3,0.3-4.6,0.9-6.8,1.8c-0.5,0.2-1-0.1-1.2-0.6c-0.1-0.3-0.1-0.6,0.1-0.8l0,0c2.2-3.6,4.9-7.1,8-10c3.2-2.9,6.7-5.3,10.2-7.6
					l0.5,1.8c-3.5,0-7,0.8-10.2,2.4s-6,3.8-8.5,6.4s-4.5,5.6-6.2,8.8C271.5,82,270.3,85.4,269.7,89.1z"/>
			</g>
			<g>
				<path class="st4" d="M265.2,90.6c-0.4-0.5-0.9-0.9-1.5-1.4c-0.5-0.5-0.9-1-1.4-1.6c-0.8-1.1-1.6-2.2-2.3-3.4
					c-1.3-2.4-2.1-5.2-2.4-8c-0.2-2.8,0.1-5.7,1-8.4c0.9-2.7,2.5-5.2,4.5-7.2c0.4-0.4,1-0.4,1.4,0c0.3,0.3,0.3,0.6,0.3,0.9
					c-0.7,2.8-1.2,5.7-1.4,8.6c-0.2,2.9,0.1,5.7,0.9,8.5l-1.7-0.1c0.7-1.4,1.4-2.8,2.4-4c1-1.3,2.3-2.3,3.7-3l0,0
					c0.4-0.2,0.8-0.1,1,0.3c0.1,0.2,0.1,0.5,0,0.7c-1.4,2.8-2.6,5.7-3.3,8.8c-0.4,1.5-0.6,3.1-0.8,4.7c-0.1,0.8-0.2,1.6-0.2,2.4
					C265.3,88.9,265.2,89.8,265.2,90.6z M265.2,90.6c0-0.9-0.1-1.6-0.1-2.4s0-1.6,0-2.4c0-1.6,0.2-3.2,0.4-4.8
					c0.5-3.2,1.5-6.3,2.8-9.2l1.1,1c-1.2,0.8-2.3,1.7-3.1,2.8c-0.8,1.1-1.5,2.4-2.1,3.8c-0.2,0.5-0.8,0.7-1.2,0.5
					c-0.2-0.1-0.4-0.3-0.5-0.6l0,0c-0.9-2.9-1.2-6.1-1.1-9.1c0.1-3.1,0.7-6,1.5-9l1.6,0.9c-1.8,1.8-3.3,4-4.2,6.4
					c-0.9,2.4-1.4,5-1.2,7.7c0.1,2.6,0.7,5.2,1.8,7.7c0.5,1.2,1.2,2.4,1.9,3.5c0.4,0.5,0.8,1.1,1.2,1.6
					C264.3,89.5,264.7,90,265.2,90.6z"/>
			</g>
			<g>
				<path class="st4" d="M253.1,110.8c4.4,2.8,9.2,4.8,14.3,5.7c5,0.9,10.2,0.9,15.1-0.4c4.9-1.2,9.6-3.5,13.6-6.6
					c4.1-3.1,7.6-6.9,10.4-11.3c-2.1,4.8-5.4,9.1-9.5,12.5s-8.9,6-14.1,7.3s-10.7,1.2-15.9-0.1C261.8,116.8,257,114.3,253.1,110.8z"
					/>
			</g>
			<g>
				<path class="st4" d="M310,94.3c1.5-1.5,3.2-2.8,4.9-4c1.7-1.2,3.6-2.3,5.5-3.3c3.8-1.9,8-3.3,12.2-4c0.5-0.1,1,0.2,1,0.7
					c0.1,0.4-0.1,0.7-0.4,0.9l0,0c-2.4,1.4-4.7,2.8-7.1,4.1c-2.4,1.4-4.7,2.7-7.1,4.1l-0.5-1.8c2.4-0.1,4.8,0.4,6.9,1.4
					s4.1,2.4,5.6,4.2l0,0c0.3,0.3,0.3,0.9-0.1,1.1c-0.1,0.1-0.3,0.2-0.5,0.2c-1.7,0-3.5,0.1-5.3,0s-3.5-0.3-5.2-0.6
					c-1.7-0.3-3.4-0.8-5.1-1.3c-0.8-0.3-1.7-0.5-2.5-0.8C311.6,94.9,310.7,94.5,310,94.3z M310,94.3c0.9,0.3,1.7,0.4,2.5,0.6
					s1.7,0.4,2.5,0.6c1.7,0.3,3.4,0.6,5.1,0.8c3.4,0.4,6.8,0.3,10.3,0l-0.6,1.4c-1.5-1.5-3.2-2.8-5.1-3.6c-1.9-0.8-4-1.2-6.1-1.1
					c-0.5,0-1-0.4-1-0.9c0-0.4,0.2-0.7,0.5-0.9l0,0c2.4-1.4,4.8-2.7,7.1-4.1c2.4-1.4,4.8-2.7,7.2-4l0.6,1.7c-4.1,0.6-8.2,1.7-12,3.3
					c-1.9,0.8-3.8,1.7-5.7,2.8C313.5,91.9,311.7,93,310,94.3z"/>
			</g>
		</g>
	</g>
</g>
</svg>
