<?xml version="1.0" encoding="utf-8"?>
<!-- Generator: Adobe Illustrator 25.4.1, SVG Export Plug-In . SVG Version: 6.00 Build 0)  -->
<svg version="1.1" id="Capa_1" xmlns="http://www.w3.org/2000/svg" xmlns:xlink="http://www.w3.org/1999/xlink" x="0px" y="0px"
	 viewBox="0 0 910.9 231.3" style="enable-background:new 0 0 910.9 231.3;" xml:space="preserve">
<style type="text/css">
	.st0{fill:none;stroke:#F9F9F9;stroke-width:2;stroke-linecap:round;stroke-linejoin:round;stroke-miterlimit:10;}
</style>
<g>
	<g>
		<path class="st0" d="M563.1,157.9c-2.9-39,8-76.8,30.1-106.9c14.4,12.5,20.5,32,15,47c-5.4,15-22.4,25-41,23.7
			c12.5-15.7,49.3-1.9,50.6,18.9s-34.2,28.8-48.6,10.9c14.4,12.5,35.5,17.9,52.5,13.4c17-4.5,28.8-19.2,29.1-35.8
			c-14.1,4.5-10.2,27.2,4.5,34.6c14.7,7.4,32,1,39.7-10.6s8-26.6,6.7-41s-3.5-29.1-0.6-42.9c-15.7,30.4-12.5,69.8,8,102.7
			c23.7-30.4,37.4-67.5,39.7-106.9c-4.2,33-8.3,65.9-12.5,98.9c7.7-8.3,15.7-17,23.4-25.3c1.9,9,4.2,17.6,6.1,26.6
			c3.5-7,7.4-13.8,10.9-20.8c2.9,8,5.4,16,8.3,24c8-36.2,16.3-72,24.3-108.2c5.1,39.7,10.6,79.7,15.7,119.4
			c-2.6-13.8-4.8-27.5-7.4-41.3c-11.8,5.8-12.8,23.4-1.9,33.3s30.1,8.6,36.2-2.2c6.1-10.9-2.9-27.8-17-32c9-7.7,17.9-15.4,26.9-23.4
			"/>
		<path class="st0" d="M155.1,88.5c-43.5-6.7-89.9,6.4-123.5,35.2c43.2,9.9,86.7,19.5,129.9,29.4c-14.4,22.4-47,30.7-70.4,17.9
			c24,9.9,54.1,4.5,72.7-13.8s25.3-48,15.7-72.3c5.1,26.9,10.2,53.8,15.7,80.7c-8.3-11.8,0.6-31.4,15.4-32.6
			c14.4-1.3,26.9,16.3,20.5,29.4c-6.1,13.1-27.5,14.7-35.8,2.9c29.8-3.5,59.8-7.4,89.6-10.9c-9.9-9.3-29.4,2.2-26.6,15.4
			c33.9-23.7,50.2-69.8,38.4-109.5c0.6,34.2,1.3,68.2,1.9,102.4c12.8-11.8,25.9-23.7,38.7-35.5c4.8,10.6,9.6,21.1,14.4,31.7
			c4.5-10.6,9.3-21.4,17.3-29.4c8-8,20.5-12.8,31.4-9c10.9,3.8,17.3,18.2,10.9,27.8c-6.4,9.3-25.3,5.4-25-6.1
			c7,10.6,22.4,14.7,33.9,9.3c11.5-5.8,17.6-20.5,13.4-32.6c7.4,14.4,15,28.8,22.4,43.2c0.6-21.1,27.5-36.5,46.1-26.6"/>
		<path class="st0" d="M410.1,100c3.2-4.5,6.4-8.6,9.6-13.1"/>
		<path class="st0" d="M339.1,98.1c0.3-1.3,0.3-2.9,0.6-4.2C337.5,95.5,334.9,97.1,339.1,98.1z"/>
		<path class="st0" d="M221,94.9c80.3-15,160.7-29.8,241-44.8"/>
	</g>
</g>
</svg>
