<?xml version="1.0" encoding="utf-8"?>
<!-- Generator: Adobe Illustrator 25.4.1, SVG Export Plug-In . SVG Version: 6.00 Build 0)  -->
<svg version="1.1" id="Capa_1" xmlns="http://www.w3.org/2000/svg" xmlns:xlink="http://www.w3.org/1999/xlink" x="0px" y="0px"
	 viewBox="0 0 401.4 231.3" style="enable-background:new 0 0 401.4 231.3;" xml:space="preserve">
<style type="text/css">
	.st0{fill:#333333;}
	.st1{fill:#03CAFF;}
</style>
<g>
	<g>
		<g>
			<g>
				<path class="st0" d="M194.4,105.7c2.8,10.1-1.8,21.7-11.1,26c-9.2,4.3-21.5,0.2-25.9-8.6c-7.1,14.3,1.8,32.2,16.7,37.2
					c15.2,5,33.6-3.2,38.9-17.7C218.6,128.3,209.6,110.7,194.4,105.7z M205.3,142.5c-1.5,4.6-6.5,6.9-11.3,5.5
					c-4.8-1.4-7.3-6.2-5.8-10.7c1.5-4.6,6.5-6.9,11.3-5.5C204.3,133.2,206.8,138.2,205.3,142.5z"/>
			</g>
		</g>
		<g>
			<path class="st0" d="M140.4,116.9c-5.9,7.3-8.6,16.5-7.7,25c0.3,4.4,1.8,8.5,4,12.6c2.2,3.8,5.2,7.3,8.9,10.6
				c-8.6-4.1-15.1-13.2-16-22.6C128.7,132.8,132.7,122.8,140.4,116.9z"/>
		</g>
		<g>
			<path class="st0" d="M211.3,174.8c6.8-5.3,12.3-11.5,16.3-18.2c4.3-7.1,6.8-14.7,8.3-22.9c1.2,8.2-1.2,17-5.5,24.1
				C226.1,165.1,219.4,171.3,211.3,174.8z"/>
		</g>
		<g>
			<g>
				<path class="st1" d="M89,153.5c10.5-15.3,24.7-28.5,41.3-38.2s35.8-15.9,55.2-17.6c19.7-1.8,39.5,1.2,57.6,8.2
					c18.2,6.8,34.5,17.6,47.5,31.4c-14.5-12-31.1-21.2-49-27s-36.7-8.2-55.5-6.8c-18.5,1.5-37,7.1-53.3,15.6
					C116.4,128,101.3,139.7,89,153.5z"/>
			</g>
			<g>
				<path class="st1" d="M153.7,97.8c0.6-10.9,3.7-21.5,8.3-31.4c4.6-10,10.8-19.4,18.2-27.6c7.7-8.2,16.6-15.6,26.8-20.6
					c10.2-5.3,21.9-8.2,33.6-8.2c1.5,0,3.1,1.2,3.1,2.9c0,0.9-0.6,1.8-1.2,2.4l0,0C231.7,22,221.2,29,212,37.3
					c-9.6,8.2-17.3,17.6-24,28.2l-3.4-4.1c7.1-2.4,14.8-4.4,22.5-5c7.7-0.9,15.7-0.3,23.1,2.1l0,0c1.2,0.3,1.8,1.8,1.5,2.9
					c-0.3,0.6-0.6,1.2-1.2,1.5C217.8,69,204.6,74,191.6,79.6c-6.5,2.6-12.9,5.6-19.1,8.8c-3.1,1.5-6.2,3.2-9.2,5
					C159.9,94.3,156.5,96,153.7,97.8z M153.7,97.8c3.1-2.1,5.5-3.8,8.6-5.9c3.1-1.8,5.9-3.8,8.9-5.6c6.2-3.5,12.3-7.1,18.5-10
					c12.6-6.2,25.6-11.8,37.9-18.2l0.6,4.1c-6.8-1.8-14.2-2.1-21.3-1.2c-7.1,0.9-14.2,2.6-21,5.3c-1.5,0.6-3.1-0.3-3.7-1.8
					c-0.3-0.9-0.3-1.8,0.3-2.4l0,0c6.8-10.6,15.1-20.9,24.7-29.4c9.9-8.5,20.7-15.6,31.4-22.3l1.5,5.3c-10.8,0-21.6,2.4-31.4,7.1
					c-9.9,4.7-18.5,11.2-26.2,18.8s-13.9,16.5-19.1,25.9C159.2,76.9,155.5,86.9,153.7,97.8z"/>
			</g>
			<g>
				<path class="st1" d="M139.8,102.2c-1.2-1.5-2.8-2.6-4.6-4.1c-1.5-1.5-2.8-2.9-4.3-4.7c-2.5-3.2-4.9-6.5-7.1-10
					c-4-7.1-6.5-15.3-7.4-23.5c-0.6-8.2,0.3-16.8,3.1-24.7c2.8-7.9,7.7-15.3,13.9-21.2c1.2-1.2,3.1-1.2,4.3,0
					c0.9,0.9,0.9,1.8,0.9,2.6c-2.2,8.2-3.7,16.8-4.3,25.3c-0.6,8.5,0.3,16.8,2.8,25l-5.2-0.3c2.2-4.1,4.3-8.2,7.4-11.8
					c3.1-3.8,7.1-6.8,11.4-8.8l0,0c1.2-0.6,2.5-0.3,3.1,0.9c0.3,0.6,0.3,1.5,0,2.1c-4.3,8.2-8,16.8-10.2,25.9
					c-1.2,4.4-1.8,9.1-2.5,13.8c-0.3,2.4-0.6,4.7-0.6,7.1C140.1,97.2,139.8,99.9,139.8,102.2z M139.8,102.2c0-2.6-0.3-4.7-0.3-7.1
					s0-4.7,0-7.1c0-4.7,0.6-9.4,1.2-14.1c1.5-9.4,4.6-18.5,8.6-27l3.4,2.9c-3.7,2.4-7.1,5-9.6,8.2c-2.5,3.2-4.6,7.1-6.5,11.2
					c-0.6,1.5-2.5,2.1-3.7,1.5c-0.6-0.3-1.2-0.9-1.5-1.8l0,0c-2.8-8.5-3.7-17.9-3.4-26.7c0.3-9.1,2.2-17.6,4.6-26.4l4.9,2.6
					c-5.5,5.3-10.2,11.8-12.9,18.8c-2.8,7.1-4.3,14.7-3.7,22.6c0.3,7.6,2.2,15.3,5.5,22.6c1.5,3.5,3.7,7.1,5.9,10.3
					c1.2,1.5,2.5,3.2,3.7,4.7C137.1,99,138.3,100.4,139.8,102.2z"/>
			</g>
			<g>
				<path class="st1" d="M92.6,165.3c1.1,1.1,2.4,2.1,3.7,3.1c2.6,2,5.1,4,7.8,5.5c5.4,3.4,11.3,5.9,17.3,7.9c0.4,0.1,0.9,0.6,1,1
					c0.3,0.8-0.2,1.5-1.1,1.8l0,0c-3.1,0.9-6.4,1.2-9.7,0.8c-3.2-0.3-6.2-1.4-9.2-2.4l2.4-2.4c2.8,5,6.3,9.4,10.7,13.2
					c4.4,3.8,9.2,7.2,14.2,10.2c0.4,0.4,0.8,0.8,0.8,1.7c0,1.1-0.9,1.9-2.1,1.9c-5.8-0.1-11.7-1.5-16.8-4.1s-9.7-6.3-13.3-10.5
					c-3.5-4.3-6.3-9.4-7.8-14.5c-0.7-2.6-1-5.3-1.4-7.9c-0.1-1.5-0.2-2.8-0.2-4.1c0.2-1.5,0.4-2.7,0.2-4
					C90.3,163.6,91.8,164.8,92.6,165.3z M89.7,166.4c0.1,1.2,0.4,2.6,0.5,3.9c0.5,2.5,1.2,5.1,2.1,7.5c1.9,5,4.7,9.5,8.2,13.3
					c3.5,4.1,7.9,7.1,12.6,9.2c4.7,2.2,10,3.2,15.2,3.3l-1.1,3.4c-5.4-3.1-10.4-6.4-14.9-10.6c-4.4-4.1-8.5-9-11.2-14.3l0,0
					c-0.3-0.6-0.3-1.1-0.1-1.5c0.3-0.8,1.5-1.3,2.5-0.9c2.9,1.2,5.7,2,8.5,2.5c2.7,0.5,5.6,0.3,8.5-0.2l-0.2,2.9
					c-6-2.3-11.9-5.3-17.1-9.2c-2.6-2-5.1-4-7.4-6.2c-1.1-1.1-2.3-2.3-3.4-3.4c-1.1-1.1-2-2.2-3.2-3.5
					C89.3,164,89.4,165.3,89.7,166.4z"/>
			</g>
			<g>
				<path class="st1" d="M102.5,161.6c13.6,8.2,28.4,14.1,44.1,16.8c15.4,2.6,31.4,2.6,46.5-1.2c15.1-3.5,29.6-10.3,41.9-19.4
					c12.6-9.1,23.4-20.3,32.1-33.2c-6.5,14.1-16.6,26.7-29.3,36.7c-12.6,10-27.4,17.6-43.5,21.5s-33,3.5-49-0.3
					C129.3,179.2,114.5,171.9,102.5,161.6z"/>
			</g>
			<g>
				<path class="st1" d="M277.9,113.1c4.6-4.4,9.9-8.2,15.1-11.8c5.2-3.5,11.1-6.8,17-9.7c11.7-5.6,24.7-9.7,37.6-11.8
					c1.5-0.3,3.1,0.6,3.1,2.1c0.3,1.2-0.3,2.1-1.2,2.6l0,0c-7.4,4.1-14.5,8.2-21.9,12c-7.4,4.1-14.5,7.9-21.9,12l-1.5-5.3
					c7.4-0.3,14.8,1.2,21.3,4.1c6.5,2.9,12.6,7.1,17.3,12.3l0,0c0.9,0.9,0.9,2.6-0.3,3.2c-0.3,0.3-0.9,0.6-1.5,0.6
					c-5.2,0-10.8,0.3-16.3,0c-5.5-0.3-10.8-0.9-16-1.8c-5.2-0.9-10.5-2.4-15.7-3.8c-2.5-0.9-5.2-1.5-7.7-2.4
					C282.9,114.8,280.1,113.7,277.9,113.1z M277.9,113.1c2.8,0.9,5.2,1.2,7.7,1.8s5.2,1.2,7.7,1.8c5.2,0.9,10.5,1.8,15.7,2.4
					c10.5,1.2,21,0.9,31.8,0l-1.8,4.1c-4.6-4.4-9.9-8.2-15.7-10.6c-5.9-2.4-12.3-3.5-18.8-3.2c-1.5,0-3.1-1.2-3.1-2.6
					c0-1.2,0.6-2.1,1.5-2.6l0,0c7.4-4.1,14.8-7.9,21.9-12c7.4-4.1,14.8-7.9,22.2-11.8l1.8,5c-12.6,1.8-25.3,5-37,9.7
					c-5.9,2.4-11.7,5-17.6,8.2C288.7,106,283.2,109.3,277.9,113.1z"/>
			</g>
		</g>
	</g>
</g>
</svg>
