<?xml version="1.0" encoding="utf-8"?>
<!-- Generator: Adobe Illustrator 25.4.1, SVG Export Plug-In . SVG Version: 6.00 Build 0)  -->
<svg version="1.1" id="Capa_1" xmlns="http://www.w3.org/2000/svg" xmlns:xlink="http://www.w3.org/1999/xlink" x="0px" y="0px"
	 viewBox="0 0 431.8 378.3" style="enable-background:new 0 0 431.8 378.3;" xml:space="preserve">
<style type="text/css">
	.st0{fill:#333333;}
</style>
<g>
	<path class="st0" d="M353.7,173.6l0-37.7c0-51.9-42.1-94-94-94c-13.2,0-31.4,4.2-37.2,7.7c-8.6,5.4-12.4,12-12.4,26.2l0,114.8
		c-17.1-18.2-41.3-29.7-68.3-29.8c0,0-18.5,0-18.7,0c-23.4,0-42.3-22.9-42.4-46.3l0-0.2c0-15.9,8.9-29.8,21.9-37
		c7.7-4,16.8-5.3,25.1-5.3h0.2c9.8,0,18.9,2.3,27,6.5c2.2,1.1,4.5,1.6,6.7,1.6c5.4,0,10.6-3,13.3-8.1c3.7-7.3,0.8-16.3-6.5-20
		c-12.1-6.2-29.9-9.8-45.3-9.7C83.1,42.6,51,74.6,50.9,114.4c0,0.3,0,0.5,0,0.7c0.4,39.4,32.4,75.2,71.9,75.4l18.9,0
		c35.5,0.1,64.3,28.8,64.3,64.3c0,24.2-13.3,45.3-33.1,56.2c-4.7,2.6-20.8,7.7-30.9,7.7c-36.4-0.1-65.9-29.5-65.9-65.9
		c0-8.2-6.6-14.8-14.8-14.8c-8.2,0-14.9,6.7-14.9,14.8c0,50,38.6,91.4,87.6,94.9c19,1.3,40.6-3.3,54.3-11.2c0,0,0.1,0,0.1-0.1
		c0,0,0,0,0,0c14.7-8.5,26.8-20.8,35.1-35.6c16,26.9,47.1,47.5,81.6,47.5c17,0,32.8-4.5,46.6-12.4c0.1,0,0.1-0.1,0.2-0.1
		c0,0,0-0.1,0.1-0.1c28.2-16.2,47.1-46.6,47.1-81.5C399.3,220,381.1,190.1,353.7,173.6z M239.8,74.8c6.3-2,12.9-3.2,19.9-3.2
		c35.6,0,64.3,28.8,64.3,64.3l0,24.3c-8.7,0-12.3,0-18.7,0h-65.6V74.8z M336.5,310.5c-0.7,0.4-1.4,0.7-2.1,1.1
		c-0.3,0.1-0.5,0.2-0.7,0.3c-8.5,4-18,6.3-28,6.3c-36.4-0.1-65.9-29.5-65.9-65.9l0-62.3h65.6c35.5,0.1,64.3,28.8,64.3,64.3
		C369.6,278.5,356.3,299.5,336.5,310.5z"/>
</g>
</svg>
