<?xml version="1.0" encoding="utf-8"?>
<!-- Generator: Adobe Illustrator 16.0.3, SVG Export Plug-In . SVG Version: 6.00 Build 0)  -->
<!DOCTYPE svg PUBLIC "-//W3C//DTD SVG 1.1//EN" "http://www.w3.org/Graphics/SVG/1.1/DTD/svg11.dtd">
<svg version="1.1" id="Capa_1" xmlns="http://www.w3.org/2000/svg" xmlns:xlink="http://www.w3.org/1999/xlink" x="0px" y="0px"
	 width="50px" height="50px" viewBox="-10 -10 50 50" enable-background="new -10 -10 50 50" xml:space="preserve">
<g id="Grupo_159" transform="translate(-396.5 -716)">
	<g id="Grupo_158" transform="translate(396.5 716)">
		<circle id="Elipse_23" fill="#FFFFFF" cx="15" cy="15" r="25"/>
		<path id="Trazado_1568" fill="#252B50" d="M9.569,21.9c-1.313-0.034-2.573-0.526-3.562-1.389
			c-0.728-0.629-1.282-1.433-1.608-2.335c-0.045-0.072-0.065-0.159-0.058-0.244c0.811,0.159,1.648,0.131,2.445-0.086
			c-1.593-0.356-2.956-1.379-3.745-2.807c-0.49-0.863-0.734-1.843-0.708-2.833c0.277,0.122,0.539,0.242,0.808,0.351
			c0.269,0.103,0.549,0.183,0.833,0.237c0.289,0.061,0.583,0.096,0.88,0.104c-1.444-0.987-2.351-2.587-2.457-4.333
			C2.316,7.434,2.578,6.306,3.15,5.327c0.03,0.027,0.051,0.044,0.068,0.062c0.249,0.282,0.488,0.57,0.745,0.843
			c0.222,0.237,0.461,0.46,0.694,0.685c0.439,0.417,0.904,0.807,1.392,1.167c0.5,0.376,1.021,0.719,1.563,1.028
			c0.362,0.203,0.727,0.4,1.099,0.582c0.517,0.253,1.047,0.476,1.588,0.667c0.481,0.17,0.97,0.316,1.465,0.44
			c0.484,0.124,0.974,0.22,1.469,0.29c0.333,0.045,0.667,0.083,1,0.124c0.156,0.018,0.314,0.03,0.472,0.043
			c0.042-0.001,0.083-0.004,0.124-0.012c-0.022-0.124-0.043-0.233-0.06-0.344c-0.038-0.215-0.058-0.435-0.06-0.653
			c0-0.099-0.02-0.197-0.017-0.294c0.009-0.595,0.104-1.184,0.285-1.75c0.177-0.544,0.437-1.058,0.77-1.522
			c0.148-0.207,0.32-0.398,0.485-0.588c0.311-0.343,0.665-0.64,1.056-0.886c0.638-0.42,1.358-0.701,2.111-0.826
			c0.192-0.031,0.385-0.052,0.58-0.063c0.229-0.019,0.458-0.024,0.689-0.016c0.464,0.022,0.922,0.101,1.364,0.236
			c0.323,0.097,0.635,0.224,0.935,0.376c0.476,0.241,0.913,0.55,1.299,0.919c0.071,0.071,0.146,0.143,0.218,0.216
			c0.025,0.026,0.063,0.036,0.096,0.022c0.221-0.054,0.444-0.099,0.667-0.155c0.622-0.162,1.227-0.38,1.807-0.652
			c0.335-0.153,0.643-0.332,0.964-0.499l0.104-0.055c-0.01,0.049-0.018,0.079-0.023,0.105c-0.137,0.418-0.324,0.817-0.563,1.188
			c-0.234,0.38-0.515,0.729-0.833,1.042c-0.275,0.27-0.578,0.512-0.902,0.721c-0.024,0.015-0.046,0.035-0.062,0.057
			c0.54-0.063,1.074-0.167,1.596-0.315c0.522-0.146,1.038-0.329,1.535-0.548l0.016,0.022c-0.045,0.069-0.09,0.14-0.137,0.208
			c-0.272,0.389-0.568,0.76-0.89,1.112c-0.183,0.202-0.382,0.388-0.572,0.583c-0.285,0.281-0.587,0.543-0.905,0.788
			c-0.079,0.062-0.157,0.122-0.239,0.177c-0.051,0.033-0.079,0.091-0.074,0.152c0,0.347,0.01,0.695,0.01,1.042
			c0,0.126-0.017,0.253-0.024,0.379c0,0.064,0,0.127,0,0.19c-0.031,0.362-0.055,0.724-0.106,1.083
			c-0.061,0.421-0.138,0.833-0.218,1.254c-0.144,0.687-0.332,1.364-0.567,2.024c-0.175,0.506-0.378,1.001-0.602,1.485
			c-0.309,0.675-0.661,1.328-1.055,1.953c-0.406,0.654-0.862,1.273-1.361,1.859c-0.178,0.212-0.363,0.414-0.553,0.615
			c-0.165,0.166-0.334,0.344-0.499,0.512c-0.323,0.317-0.668,0.614-1.015,0.904c-0.47,0.385-0.961,0.737-1.475,1.059
			c-0.299,0.189-0.61,0.36-0.918,0.537c-0.372,0.208-0.759,0.397-1.154,0.56c-0.333,0.14-0.665,0.268-1,0.389
			c-0.26,0.096-0.523,0.178-0.788,0.257c-0.516,0.156-1.04,0.28-1.569,0.373c-0.419,0.072-0.833,0.133-1.259,0.189
			c-0.213,0.029-0.428,0.036-0.643,0.052c-0.155,0.013-0.308,0.028-0.464,0.039c-0.11,0-0.218,0.007-0.333,0.007
			c-0.343,0-0.689,0-1.033,0c-0.123,0-0.246-0.015-0.368-0.023H8.885c-0.441-0.025-0.878-0.074-1.315-0.138
			c-0.711-0.103-1.415-0.257-2.106-0.455c-0.759-0.221-1.501-0.494-2.219-0.827c-0.648-0.296-1.275-0.635-1.879-1.011
			c-0.04-0.025-0.075-0.052-0.109-0.085c2.247,0.257,4.519-0.153,6.535-1.179C8.422,22.728,9.017,22.343,9.569,21.9z"/>
	</g>
</g>
</svg>
