<svg id="twitter_active" xmlns="http://www.w3.org/2000/svg" width="45" height="45" viewBox="0 0 45 45">
  <circle id="elipse_twitter_active" data-name="elipse 23" cx="22.5" cy="22.5" r="22.5" fill="#5489fd"/>
  <path id="twitter_active_path" data-name="twitter active path" fill="#fff" transform="translate(341.015 529.207)"
    d="M-323.6-500.554a5.029,5.029,0,0,1-3.169-1.238,4.968,4.968,0,0,1-1.432-2.07.359.359,0,0,1-.05-.216,4.781,4.781,0,0,0,2.176-.077,5.068,5.068,0,0,1-3.333-2.5,4.844,4.844,0,0,1-.628-2.515c.247.108.48.215.717.312a4.272,4.272,0,0,0,.735.211,4.323,4.323,0,0,0,.784.093,5.04,5.04,0,0,1-2.186-3.852,4.991,4.991,0,0,1,.669-2.882c.026.024.045.038.061.055.22.251.434.507.662.751.2.211.41.409.619.61a12.926,12.926,0,0,0,1.238,1.038,12.859,12.859,0,0,0,1.391.915c.322.181.647.355.978.518a13.114,13.114,0,0,0,1.414.588q.643.228,1.3.392a12.184,12.184,0,0,0,1.306.258c.3.04.591.075.887.109.14.016.28.027.421.038a.675.675,0,0,0,.11-.01c-.019-.109-.039-.207-.054-.306a3.651,3.651,0,0,1-.054-.581c0-.088-.017-.176-.015-.263a5.338,5.338,0,0,1,.254-1.558,4.979,4.979,0,0,1,.685-1.354c.132-.184.283-.354.433-.524a4.475,4.475,0,0,1,.937-.789,4.87,4.87,0,0,1,1.881-.734,5.167,5.167,0,0,1,.515-.056,5.492,5.492,0,0,1,.613-.015,4.967,4.967,0,0,1,1.215.211,5,5,0,0,1,.832.336,4.825,4.825,0,0,1,1.153.817c.065.063.131.127.194.192a.08.08,0,0,0,.086.019c.2-.047.394-.088.589-.138a9.333,9.333,0,0,0,1.608-.58c.291-.136.571-.295.857-.443l.092-.049c-.009.043-.013.069-.021.093a4.617,4.617,0,0,1-.5,1.058,4.987,4.987,0,0,1-.745.926,5.1,5.1,0,0,1-.8.642.21.21,0,0,0-.055.05,8.938,8.938,0,0,0,1.421-.28,10.352,10.352,0,0,0,1.366-.488l.015.02c-.041.062-.081.124-.123.185a9.813,9.813,0,0,1-.79.989c-.163.179-.339.346-.509.519a8.809,8.809,0,0,1-.8.7c-.069.055-.14.108-.213.158a.144.144,0,0,0-.068.135c0,.309.01.618.01.927,0,.113-.013.225-.02.338,0,.056,0,.113-.007.17-.03.321-.051.644-.1.964-.053.374-.121.745-.195,1.116a13.483,13.483,0,0,1-.5,1.8q-.235.675-.534,1.324a15.185,15.185,0,0,1-.939,1.738,14.03,14.03,0,0,1-1.212,1.654c-.159.187-.325.368-.493.548-.144.155-.292.306-.442.454-.287.284-.59.549-.9.805a12.64,12.64,0,0,1-1.313.944c-.267.167-.542.321-.816.477a9.636,9.636,0,0,1-1.029.5c-.293.123-.591.237-.89.346-.231.084-.466.159-.7.229a11.931,11.931,0,0,1-1.4.333c-.372.064-.745.117-1.119.167-.19.025-.382.032-.573.048-.137.011-.275.024-.412.032-.1.006-.195.008-.292.008-.306,0-.612,0-.919,0-.11,0-.219-.014-.329-.02l-.17-.007c-.392-.022-.781-.067-1.17-.123a13.79,13.79,0,0,1-1.874-.405,14.129,14.129,0,0,1-1.975-.734,14.627,14.627,0,0,1-1.672-.9.553.553,0,0,1-.1-.076,10.235,10.235,0,0,0,5.815-1.049A9.128,9.128,0,0,0-323.6-500.554Z"/>
</svg>
