<?xml version="1.0" encoding="utf-8"?>
<!-- Generator: Adobe Illustrator 16.0.3, SVG Export Plug-In . SVG Version: 6.00 Build 0)  -->
<!DOCTYPE svg PUBLIC "-//W3C//DTD SVG 1.1//EN" "http://www.w3.org/Graphics/SVG/1.1/DTD/svg11.dtd">
<svg version="1.1" id="Capa_1" xmlns="http://www.w3.org/2000/svg" xmlns:xlink="http://www.w3.org/1999/xlink" x="0px" y="0px"
	 width="30px" height="30px" viewBox="0 0 30 30" enable-background="new 0 0 30 30" xml:space="preserve">
<g id="Grupo_165" transform="translate(-396.5 -716)">
	<g id="Grupo_158" transform="translate(396.5 716)">
		<circle id="Elipse_23" fill="#5489FD" cx="15" cy="15" r="15"/>
		<path id="Trazado_1568" fill="#FFFFFF" d="M11.741,19.141c-0.788-0.021-1.543-0.316-2.137-0.834
			c-0.437-0.377-0.769-0.859-0.965-1.4c-0.027-0.044-0.039-0.096-0.034-0.146c0.486,0.096,0.989,0.078,1.467-0.052
			c-0.956-0.214-1.773-0.827-2.247-1.684c-0.294-0.518-0.44-1.105-0.424-1.7c0.166,0.073,0.323,0.146,0.484,0.21
			c0.162,0.062,0.329,0.11,0.5,0.142c0.173,0.037,0.35,0.058,0.528,0.063c-0.866-0.592-1.411-1.552-1.474-2.6
			C7.39,10.46,7.547,9.783,7.89,9.196c0.018,0.016,0.031,0.026,0.041,0.037C8.08,9.402,8.224,9.575,8.378,9.739
			c0.133,0.142,0.277,0.276,0.417,0.411c0.264,0.25,0.542,0.484,0.835,0.7c0.299,0.226,0.612,0.432,0.938,0.617
			c0.217,0.122,0.436,0.24,0.659,0.349c0.31,0.152,0.628,0.286,0.953,0.4c0.289,0.102,0.582,0.19,0.879,0.264
			c0.29,0.074,0.584,0.132,0.881,0.174c0.2,0.027,0.4,0.05,0.6,0.074c0.094,0.011,0.189,0.018,0.284,0.026
			c0.025,0,0.05-0.002,0.074-0.007c-0.013-0.074-0.026-0.14-0.036-0.206c-0.022-0.129-0.034-0.261-0.036-0.392
			c0-0.059-0.012-0.118-0.01-0.177c0.005-0.357,0.063-0.71,0.171-1.05c0.106-0.326,0.262-0.634,0.462-0.913
			c0.089-0.124,0.192-0.239,0.292-0.353c0.186-0.206,0.398-0.384,0.633-0.532c0.383-0.252,0.815-0.42,1.268-0.495
			c0.115-0.019,0.23-0.031,0.348-0.038c0.137-0.011,0.275-0.014,0.414-0.01c0.277,0.013,0.553,0.061,0.818,0.142
			c0.193,0.058,0.381,0.134,0.561,0.226c0.285,0.145,0.548,0.33,0.779,0.551c0.043,0.043,0.088,0.086,0.131,0.13
			c0.015,0.016,0.037,0.021,0.058,0.013c0.132-0.032,0.267-0.059,0.399-0.093c0.373-0.097,0.736-0.228,1.084-0.391
			c0.201-0.092,0.386-0.2,0.578-0.3l0.063-0.033c-0.006,0.029-0.01,0.047-0.014,0.063c-0.082,0.251-0.195,0.49-0.338,0.713
			c-0.141,0.228-0.309,0.437-0.5,0.625c-0.165,0.162-0.347,0.307-0.541,0.433c-0.015,0.009-0.027,0.021-0.037,0.034
			c0.324-0.037,0.645-0.1,0.957-0.189c0.314-0.088,0.623-0.198,0.922-0.329l0.01,0.013c-0.027,0.042-0.055,0.084-0.083,0.125
			c-0.163,0.233-0.341,0.456-0.533,0.667c-0.11,0.121-0.229,0.233-0.344,0.35c-0.171,0.168-0.353,0.326-0.543,0.473
			c-0.047,0.037-0.095,0.073-0.144,0.106c-0.03,0.02-0.048,0.055-0.045,0.091c0,0.208,0.006,0.417,0.006,0.625
			c0,0.076-0.01,0.152-0.014,0.228c0,0.038,0,0.076,0,0.114c-0.02,0.217-0.033,0.434-0.064,0.65c-0.036,0.252-0.082,0.5-0.131,0.752
			c-0.086,0.412-0.199,0.818-0.34,1.215c-0.105,0.304-0.227,0.601-0.361,0.892c-0.185,0.404-0.396,0.796-0.633,1.172
			c-0.244,0.392-0.518,0.764-0.816,1.115c-0.107,0.127-0.219,0.248-0.332,0.369c-0.1,0.1-0.2,0.206-0.3,0.307
			c-0.193,0.19-0.4,0.369-0.608,0.543c-0.281,0.23-0.576,0.442-0.885,0.635c-0.18,0.113-0.366,0.217-0.551,0.322
			c-0.223,0.125-0.455,0.238-0.692,0.336c-0.2,0.084-0.399,0.16-0.6,0.233c-0.156,0.058-0.314,0.106-0.473,0.154
			c-0.31,0.093-0.624,0.168-0.942,0.224c-0.251,0.043-0.5,0.079-0.755,0.113c-0.128,0.018-0.257,0.021-0.386,0.031
			c-0.093,0.008-0.185,0.017-0.278,0.023c-0.066,0-0.131,0.004-0.2,0.004c-0.206,0-0.413,0-0.619,0
			c-0.074,0-0.148-0.009-0.221-0.014h-0.114c-0.264-0.016-0.527-0.045-0.789-0.083c-0.427-0.062-0.849-0.153-1.263-0.272
			c-0.456-0.133-0.901-0.297-1.332-0.496c-0.389-0.178-0.765-0.381-1.127-0.607c-0.023-0.015-0.045-0.031-0.065-0.051
			c1.348,0.154,2.711-0.092,3.92-0.707C11.053,19.637,11.41,19.406,11.741,19.141z"/>
	</g>
</g>
</svg>
