<?xml version="1.0" encoding="utf-8"?>
<!-- Generator: Adobe Illustrator 16.0.3, SVG Export Plug-In . SVG Version: 6.00 Build 0)  -->
<!DOCTYPE svg PUBLIC "-//W3C//DTD SVG 1.1//EN" "http://www.w3.org/Graphics/SVG/1.1/DTD/svg11.dtd">
<svg version="1.1" id="Capa_1" xmlns="http://www.w3.org/2000/svg" xmlns:xlink="http://www.w3.org/1999/xlink" x="0px" y="0px"
	 width="50px" height="50px" viewBox="-10 -10 50 50" enable-background="new -10 -10 50 50" xml:space="preserve">
<g id="Grupo_165" transform="translate(-396.5 -716)">
	<g id="Grupo_158" transform="translate(396.5 716)">
		<circle id="Elipse_23" fill="#5489FD" cx="15" cy="15" r="25"/>
		<path id="Trazado_1568" fill="#FFFFFF" d="M9.569,21.901c-1.313-0.036-2.573-0.527-3.562-1.391
			c-0.728-0.628-1.282-1.432-1.608-2.334c-0.044-0.073-0.064-0.159-0.057-0.244c0.811,0.16,1.648,0.131,2.444-0.086
			c-1.592-0.356-2.956-1.379-3.744-2.807c-0.49-0.863-0.734-1.843-0.707-2.834c0.276,0.122,0.539,0.243,0.807,0.351
			c0.27,0.103,0.548,0.183,0.833,0.237c0.289,0.061,0.583,0.096,0.879,0.104c-1.443-0.987-2.351-2.587-2.457-4.333
			c-0.083-1.131,0.18-2.26,0.752-3.239C3.18,5.353,3.202,5.37,3.219,5.388c0.248,0.282,0.488,0.57,0.745,0.843
			c0.222,0.237,0.461,0.46,0.695,0.685C5.098,7.334,5.563,7.724,6.05,8.083C6.549,8.459,7.07,8.803,7.613,9.111
			c0.362,0.204,0.727,0.4,1.099,0.582c0.516,0.253,1.046,0.476,1.588,0.667c0.481,0.17,0.969,0.316,1.465,0.44
			c0.483,0.124,0.974,0.22,1.468,0.29c0.333,0.045,0.667,0.083,1,0.124c0.156,0.018,0.315,0.03,0.473,0.043
			c0.042,0,0.083-0.004,0.124-0.011c-0.022-0.124-0.043-0.233-0.061-0.343c-0.037-0.216-0.057-0.435-0.059-0.654
			c0-0.098-0.021-0.197-0.017-0.294c0.008-0.595,0.104-1.184,0.285-1.75c0.177-0.543,0.437-1.057,0.77-1.522
			c0.148-0.207,0.319-0.398,0.485-0.588c0.31-0.342,0.664-0.64,1.055-0.886c0.639-0.42,1.359-0.701,2.113-0.825
			c0.191-0.031,0.384-0.052,0.579-0.063c0.228-0.019,0.459-0.023,0.69-0.016c0.462,0.022,0.921,0.101,1.363,0.237
			c0.322,0.097,0.635,0.223,0.935,0.376c0.476,0.241,0.913,0.55,1.299,0.919c0.071,0.071,0.146,0.143,0.218,0.216
			c0.024,0.026,0.063,0.035,0.097,0.022c0.22-0.054,0.444-0.099,0.665-0.155c0.622-0.161,1.228-0.379,1.807-0.652
			c0.336-0.153,0.644-0.333,0.964-0.5l0.104-0.055c-0.01,0.049-0.017,0.079-0.023,0.106c-0.137,0.418-0.325,0.817-0.563,1.188
			c-0.234,0.379-0.515,0.729-0.834,1.042c-0.274,0.271-0.577,0.512-0.901,0.721c-0.024,0.016-0.046,0.035-0.062,0.057
			c0.54-0.062,1.074-0.167,1.595-0.315c0.524-0.146,1.038-0.33,1.536-0.549l0.017,0.022c-0.046,0.07-0.091,0.14-0.139,0.208
			c-0.271,0.389-0.567,0.76-0.889,1.112c-0.184,0.202-0.382,0.388-0.572,0.583c-0.285,0.281-0.588,0.543-0.905,0.788
			c-0.078,0.062-0.158,0.122-0.239,0.177c-0.051,0.033-0.08,0.091-0.075,0.152c0,0.347,0.01,0.695,0.01,1.042
			c0,0.126-0.016,0.253-0.022,0.38c0,0.063,0,0.127,0,0.189c-0.032,0.362-0.056,0.724-0.107,1.083
			c-0.061,0.42-0.137,0.833-0.218,1.254c-0.144,0.687-0.332,1.364-0.566,2.024c-0.176,0.507-0.378,1.001-0.603,1.486
			c-0.308,0.674-0.661,1.326-1.055,1.953c-0.407,0.652-0.862,1.272-1.36,1.858c-0.18,0.212-0.365,0.414-0.554,0.615
			c-0.166,0.166-0.334,0.344-0.5,0.512c-0.322,0.317-0.667,0.615-1.014,0.904c-0.469,0.385-0.96,0.737-1.475,1.059
			c-0.3,0.188-0.61,0.361-0.918,0.537c-0.371,0.208-0.759,0.396-1.154,0.56c-0.333,0.14-0.665,0.267-1,0.389
			c-0.259,0.097-0.523,0.178-0.788,0.258c-0.516,0.154-1.04,0.279-1.57,0.372c-0.419,0.072-0.833,0.132-1.259,0.189
			c-0.213,0.029-0.428,0.035-0.643,0.052c-0.155,0.013-0.309,0.027-0.464,0.039c-0.11,0-0.218,0.007-0.333,0.007
			c-0.343,0-0.688,0-1.032,0c-0.123,0-0.247-0.015-0.369-0.023H8.885c-0.44-0.025-0.878-0.074-1.315-0.138
			c-0.711-0.103-1.414-0.256-2.105-0.454c-0.759-0.222-1.501-0.495-2.219-0.827c-0.648-0.296-1.275-0.635-1.879-1.013
			c-0.039-0.024-0.075-0.052-0.108-0.084c2.247,0.257,4.519-0.153,6.534-1.179C8.422,22.728,9.017,22.344,9.569,21.901z"/>
	</g>
</g>
</svg>
