<svg xmlns="http://www.w3.org/2000/svg" width="30" height="30" viewBox="0 0 30 30">
  <g id="Grupo_159" data-name="Grupo 159" transform="translate(-396.5 -716)">
    <g id="Grupo_158" data-name="Grupo 158" transform="translate(396.5 716)">
      <circle id="Elipse_23" data-name="Elipse 23" cx="15" cy="15" r="15" fill="#fff"/>
      <path id="Trazado_1568" data-name="Trazado 1568" d="M-326.016-505.654a3.39,3.39,0,0,1-2.137-.835,3.349,3.349,0,0,1-.965-1.4.242.242,0,0,1-.034-.146,3.224,3.224,0,0,0,1.467-.052,3.417,3.417,0,0,1-2.247-1.684,3.265,3.265,0,0,1-.424-1.7c.166.073.323.145.484.21a2.878,2.878,0,0,0,.5.142,2.913,2.913,0,0,0,.528.063,3.4,3.4,0,0,1-1.474-2.6,3.365,3.365,0,0,1,.451-1.943c.018.016.031.026.041.037.149.169.293.342.447.506.133.142.277.276.417.411a8.726,8.726,0,0,0,.835.7,8.666,8.666,0,0,0,.938.617c.217.122.436.24.659.349a8.841,8.841,0,0,0,.953.4q.433.153.879.264a8.235,8.235,0,0,0,.881.174c.2.027.4.05.6.074.094.011.189.018.284.026a.456.456,0,0,0,.074-.007c-.013-.074-.026-.14-.036-.206a2.469,2.469,0,0,1-.036-.392c0-.059-.012-.118-.01-.177a3.6,3.6,0,0,1,.171-1.05,3.357,3.357,0,0,1,.462-.913c.089-.124.191-.239.292-.353a3.014,3.014,0,0,1,.632-.532,3.283,3.283,0,0,1,1.268-.495,3.487,3.487,0,0,1,.347-.038,3.685,3.685,0,0,1,.414-.01,3.348,3.348,0,0,1,.819.142,3.373,3.373,0,0,1,.561.226,3.251,3.251,0,0,1,.778.551c.044.043.088.086.131.13a.054.054,0,0,0,.058.013c.132-.032.266-.059.4-.093a6.3,6.3,0,0,0,1.084-.391c.2-.092.385-.2.578-.3l.062-.033c-.006.029-.009.047-.014.063a3.112,3.112,0,0,1-.337.713,3.362,3.362,0,0,1-.5.625,3.444,3.444,0,0,1-.542.433.142.142,0,0,0-.037.034,6.027,6.027,0,0,0,.958-.189,6.985,6.985,0,0,0,.921-.329l.01.013c-.028.042-.054.084-.083.125a6.635,6.635,0,0,1-.533.667c-.11.121-.229.233-.344.35a5.949,5.949,0,0,1-.543.473c-.047.037-.094.073-.143.106a.1.1,0,0,0-.046.091c0,.208.006.417.006.625,0,.076-.009.152-.013.228,0,.038,0,.076,0,.114-.02.217-.034.434-.065.65-.036.252-.082.5-.131.752a9.087,9.087,0,0,1-.34,1.215q-.158.455-.36.892a10.244,10.244,0,0,1-.633,1.172,9.464,9.464,0,0,1-.817,1.115c-.107.126-.219.248-.332.369-.1.1-.2.206-.3.306-.193.191-.4.37-.608.543a8.523,8.523,0,0,1-.885.636c-.18.113-.366.216-.55.321a6.5,6.5,0,0,1-.693.337c-.2.083-.4.16-.6.233-.156.057-.314.107-.473.154a8.043,8.043,0,0,1-.942.224c-.251.043-.5.079-.755.113-.128.017-.257.022-.386.032-.093.007-.185.016-.278.022-.066,0-.131.005-.2.005-.206,0-.413,0-.619,0-.074,0-.148-.009-.221-.014l-.114,0c-.264-.015-.527-.045-.789-.083a9.3,9.3,0,0,1-1.263-.273,9.513,9.513,0,0,1-1.332-.495,9.865,9.865,0,0,1-1.127-.608.372.372,0,0,1-.065-.051,6.9,6.9,0,0,0,3.92-.707A6.156,6.156,0,0,0-326.016-505.654Z" transform="translate(337.757 524.795)" fill="#252b50"/>
    </g>
  </g>
</svg>
