<?xml version="1.0" encoding="utf-8"?>
<!-- Generator: Adobe Illustrator 25.4.1, SVG Export Plug-In . SVG Version: 6.00 Build 0)  -->
<svg version="1.1" id="Capa_1" xmlns="http://www.w3.org/2000/svg" xmlns:xlink="http://www.w3.org/1999/xlink" x="0px" y="0px"
	 viewBox="0 0 32.4 32.4" style="enable-background:new 0 0 32.4 32.4;" xml:space="preserve">
<style type="text/css">
	.st0{fill:#333333;}
	.st1{fill:url(#SVGID_1_);}
</style>
<g>
	<g>
		<path class="st0" d="M5.2,5.1c-0.4,0-0.8,0.3-0.8,0.8c0,0,0,0.1,0,0.1l3.2,19.7c0.1,0.5,0.5,0.9,1,0.9h15.6c0.4,0,0.7-0.3,0.8-0.6
			L28.3,6c0.1-0.4-0.2-0.8-0.6-0.9c0,0-0.1,0-0.1,0L5.2,5.1z M18.9,19.4h-5l-1.3-7h7.5L18.9,19.4z"/>
		<linearGradient id="SVGID_1_" gradientUnits="userSpaceOnUse" x1="8.0594" y1="19.4337" x2="27.2807" y2="19.4337">
			<stop  offset="0" style="stop-color:#333333"/>
			<stop  offset="1" style="stop-color:#000000"/>
		</linearGradient>
		<path class="st1" d="M27.3,12.3h-7.2l-1.2,7h-5l-5.9,7c0.2,0.2,0.4,0.3,0.7,0.3h15.6c0.4,0,0.7-0.3,0.8-0.6L27.3,12.3z"/>
	</g>
</g>
</svg>
