<?xml version="1.0" encoding="utf-8"?>
<!-- Generator: Adobe Illustrator 16.0.3, SVG Export Plug-In . SVG Version: 6.00 Build 0)  -->
<!DOCTYPE svg PUBLIC "-//W3C//DTD SVG 1.1//EN" "http://www.w3.org/Graphics/SVG/1.1/DTD/svg11.dtd">
<svg version="1.1" id="Capa_1" xmlns="http://www.w3.org/2000/svg" xmlns:xlink="http://www.w3.org/1999/xlink" x="0px" y="0px"
	 width="50px" height="50px" viewBox="-10 -10 50 50" enable-background="new -10 -10 50 50" xml:space="preserve">
<g id="Grupo_161" transform="translate(-467.5 -708)">
	<circle id="Elipse_25" fill="#FFFFFF" cx="482.5" cy="723" r="25"/>
	<path id="Trazado_1564" fill="#252B50" d="M481.202,734.473c-6.016-1.06-10.033-6.797-8.972-12.812
		c1.061-6.016,6.797-10.032,12.812-8.972c6.016,1.061,10.033,6.797,8.972,12.813c-0.847,4.803-4.738,8.484-9.58,9.061v-8.679
		c0.068,0,0.139-0.01,0.208-0.01c0.759,0,1.518,0,2.275,0c0.137,0,0.186-0.035,0.202-0.177c0.11-0.923,0.234-1.841,0.352-2.764
		c0-0.046,0-0.093,0.01-0.167h-3.052c0-0.073-0.012-0.127-0.012-0.178c0-0.588,0-1.179,0-1.767c0-0.206,0.019-0.412,0.056-0.615
		c0.101-0.552,0.596-0.942,1.157-0.911c0.578-0.021,1.154-0.018,1.73-0.024h0.234v-0.202c0-0.79,0-1.579,0-2.368
		c0-0.167-0.036-0.225-0.209-0.229c-0.854-0.022-1.71-0.108-2.564-0.07c-1.315-0.012-2.527,0.718-3.131,1.888
		c-0.344,0.702-0.51,1.477-0.483,2.257c0,0.667,0,1.334,0,2v0.215h-2.667c0,0.076-0.011,0.135-0.011,0.193c0,0.904,0,1.81,0,2.714
		c0,0.166,0.053,0.202,0.208,0.199c0.765,0,1.53,0,2.295,0c0.13,0,0.18,0.029,0.18,0.166c0,2.77,0,5.538,0,8.307
		C481.213,734.39,481.207,734.429,481.202,734.473z"/>
</g>
</svg>
