<svg id="facebook_hover" xmlns="http://www.w3.org/2000/svg" width="45" height="45" viewBox="0 0 45 45">
  <circle id="elipse_facebook_hover" data-name="elipse facebook hover" cx="22.5" cy="22.5" r="22.5" fill="#fff"/>
  <path id="facebook_hove_path" data-name="facebook hover path" 
    d="M664.416,257.182a9.957,9.957,0,1,1,2.909.08V249.45c.061,0,.124-.009.187-.009.683,0,1.367,0,2.05,0,.123,0,.165-.033.18-.161.1-.83.211-1.658.319-2.487.005-.042.005-.084.009-.146h-2.749c0-.066-.009-.113-.009-.161,0-.53,0-1.06,0-1.591a2.99,2.99,0,0,1,.048-.554,1,1,0,0,1,1.042-.82c.519-.02,1.038-.016,1.557-.022h.212v-.181c0-.711,0-1.421,0-2.132,0-.144-.033-.2-.187-.206-.77-.019-1.542-.1-2.308-.063a3.14,3.14,0,0,0-2.82,1.7,4.281,4.281,0,0,0-.435,2.031c0,.6,0,1.2,0,1.8v.194h-2.4c0,.069-.011.122-.011.174,0,.814,0,1.629,0,2.443,0,.15.049.181.188.18.689-.007,1.378,0,2.066-.005.117,0,.162.026.162.153q-.005,3.739,0,7.478C664.426,257.107,664.419,257.145,664.416,257.182Z" 
    transform="translate(-643.096 -224.354)" fill="#252b50"/>
</svg>
