<?xml version="1.0" encoding="utf-8"?>
<!-- Generator: Adobe Illustrator 16.0.3, SVG Export Plug-In . SVG Version: 6.00 Build 0)  -->
<!DOCTYPE svg PUBLIC "-//W3C//DTD SVG 1.1//EN" "http://www.w3.org/Graphics/SVG/1.1/DTD/svg11.dtd">
<svg version="1.1" id="Capa_1" xmlns="http://www.w3.org/2000/svg" xmlns:xlink="http://www.w3.org/1999/xlink" x="0px" y="0px"
	 width="30px" height="30px" viewBox="0.187 0.162 30 30" enable-background="new 0.187 0.162 30 30" xml:space="preserve">
<g id="Grupo_170" transform="translate(-495.5 -655)">
	<g>
		<circle id="Elipse_25" fill="#252B50" cx="510.687" cy="670.162" r="15"/>
		<path id="Trazado_1564" fill="#FFFFFF" d="M509.414,677.408c-3.987-0.702-6.649-4.505-5.946-8.492s4.505-6.649,8.491-5.946
			c3.987,0.703,6.649,4.505,5.946,8.492c-0.561,3.184-3.14,5.623-6.35,6.005v-5.751c0.046,0,0.092-0.007,0.139-0.007
			c0.502,0,1.005,0,1.508,0c0.091,0,0.123-0.023,0.134-0.117c0.073-0.612,0.155-1.221,0.233-1.832c0-0.031,0-0.062,0.006-0.111
			h-2.022c0-0.048-0.008-0.084-0.008-0.118c0-0.39,0-0.781,0-1.171c0-0.136,0.012-0.273,0.037-0.408
			c0.066-0.366,0.395-0.625,0.767-0.604c0.383-0.014,0.765-0.012,1.146-0.016h0.156v-0.134c0-0.524,0-1.046,0-1.569
			c0-0.111-0.024-0.149-0.139-0.152c-0.566-0.015-1.134-0.072-1.7-0.046c-0.871-0.008-1.674,0.477-2.075,1.251
			c-0.228,0.465-0.338,0.979-0.32,1.496c0,0.442,0,0.884,0,1.326v0.143h-1.768c0,0.051-0.008,0.089-0.008,0.128
			c0,0.599,0,1.199,0,1.799c0,0.109,0.035,0.134,0.138,0.132c0.507,0,1.014,0,1.521,0c0.086,0,0.119,0.019,0.119,0.109
			c0,1.836,0,3.671,0,5.506C509.422,677.353,509.417,677.379,509.414,677.408z"/>
	</g>
</g>
<image overflow="visible" width="38" height="38" xlink:href="CDB92D9.jpg"  transform="matrix(1 0 0 1 -7771 -7596.4502)">
</image>
</svg>
