<svg xmlns="http://www.w3.org/2000/svg" width="30" height="30" viewBox="0 0 30 30">
  <g id="Grupo_167" data-name="Grupo 167" transform="translate(-467.5 -708)">
    <circle id="Elipse_25" data-name="Elipse 25" cx="15" cy="15" r="15" transform="translate(467.5 708)" fill="#5489fd"/>
    <path id="Trazado_1564" data-name="Trazado 1564" d="M661.641,250.57a6.636,6.636,0,1,1,1.939.054v-5.207c.041,0,.083-.006.125-.006.455,0,.911,0,1.366,0,.082,0,.11-.022.12-.107.067-.553.141-1.105.212-1.658,0-.028,0-.056.006-.1h-1.832c0-.044-.006-.076-.006-.107,0-.353,0-.707,0-1.06a2,2,0,0,1,.032-.369.669.669,0,0,1,.695-.547c.346-.013.692-.011,1.038-.015h.141v-.121c0-.474,0-.947,0-1.421,0-.1-.022-.135-.125-.137-.513-.013-1.027-.065-1.539-.042a2.093,2.093,0,0,0-1.879,1.133,2.855,2.855,0,0,0-.29,1.354c0,.4,0,.8,0,1.2v.129h-1.6c0,.046-.007.081-.007.116,0,.543,0,1.086,0,1.628,0,.1.032.121.125.12.459,0,.918,0,1.377,0,.078,0,.108.017.108.1q0,2.492,0,4.984C661.648,250.52,661.644,250.544,661.641,250.57Z" transform="translate(-179.92 479.314)" fill="#fff"/>
  </g>
</svg>
