<?xml version="1.0" encoding="utf-8"?>
<!-- Generator: Adobe Illustrator 16.0.3, SVG Export Plug-In . SVG Version: 6.00 Build 0)  -->
<!DOCTYPE svg PUBLIC "-//W3C//DTD SVG 1.1//EN" "http://www.w3.org/Graphics/SVG/1.1/DTD/svg11.dtd">
<svg version="1.1" id="Capa_1" xmlns="http://www.w3.org/2000/svg" xmlns:xlink="http://www.w3.org/1999/xlink" x="0px" y="0px"
	 width="50px" height="50px" viewBox="-9.813 -9.837 50 50" enable-background="new -9.813 -9.837 50 50" xml:space="preserve">
<g id="Grupo_170" transform="translate(-495.5 -655)">
	<g>
		<circle id="Elipse_25" fill="#252B50" cx="510.687" cy="670.162" r="25"/>
		<path id="Trazado_1564" fill="#FFFFFF" d="M508.565,682.238c-6.645-1.17-11.082-7.509-9.911-14.153
			c1.172-6.645,7.509-11.082,14.152-9.91c6.644,1.171,11.081,7.508,9.909,14.152c-0.935,5.308-5.231,9.372-10.583,10.008v-9.583
			c0.078,0,0.153-0.013,0.231-0.013c0.836,0,1.676,0,2.515,0c0.151,0,0.203-0.039,0.223-0.195c0.12-1.019,0.257-2.034,0.388-3.053
			c0-0.052,0-0.103,0.01-0.186h-3.369c0-0.08-0.014-0.14-0.014-0.196c0-0.65,0-1.302,0-1.953c0-0.226,0.02-0.455,0.063-0.679
			c0.11-0.61,0.657-1.042,1.279-1.007c0.638-0.023,1.272-0.021,1.907-0.027h0.261v-0.223c0-0.873,0-1.744,0-2.615
			c0-0.185-0.039-0.248-0.231-0.253c-0.944-0.025-1.89-0.12-2.832-0.077c-1.452-0.013-2.791,0.795-3.459,2.085
			c-0.38,0.774-0.563,1.631-0.533,2.493c0,0.737,0,1.473,0,2.209v0.239h-2.947c0,0.085-0.013,0.148-0.013,0.213c0,0.999,0,2,0,2.999
			c0,0.183,0.058,0.223,0.229,0.22c0.845,0,1.69,0,2.535,0c0.143,0,0.198,0.031,0.198,0.181c0,3.06,0,6.12,0,9.176
			C508.578,682.147,508.57,682.189,508.565,682.238z"/>
	</g>
</g>
</svg>
