<?xml version="1.0" encoding="utf-8"?>
<!-- Generator: Adobe Illustrator 16.0.3, SVG Export Plug-In . SVG Version: 6.00 Build 0)  -->
<!DOCTYPE svg PUBLIC "-//W3C//DTD SVG 1.1//EN" "http://www.w3.org/Graphics/SVG/1.1/DTD/svg11.dtd">
<svg version="1.1" id="facebook" xmlns="http://www.w3.org/2000/svg" xmlns:xlink="http://www.w3.org/1999/xlink" x="0px" y="0px"
	 width="45px" height="45px" viewBox="0.272 0.243 45 45" enable-background="new 0.272 0.243 45 45" xml:space="preserve">
<circle id="Elipse_25" fill="#252B50" cx="22.772" cy="22.743" r="22.5"/>
<path id="Trazado_1564" fill="#FFFFFF" d="M21.033,32.665c-5.459-0.961-9.107-6.165-8.146-11.625
	c0.961-5.46,6.165-9.107,11.625-8.146c5.461,0.96,9.107,6.166,8.147,11.624c-0.768,4.359-4.299,7.702-8.694,8.228V24.87
	c0.063,0,0.127-0.009,0.189-0.009c0.689,0,1.378,0,2.067,0c0.123,0,0.165-0.033,0.181-0.163c0.102-0.837,0.213-1.672,0.322-2.506
	c0.006-0.042,0.006-0.085,0.01-0.147h-2.773c0-0.067-0.009-0.114-0.009-0.163c0-0.534,0-1.068,0-1.604
	c-0.001-0.188,0.015-0.375,0.05-0.559c0.09-0.501,0.541-0.856,1.05-0.827c0.522-0.02,1.046-0.016,1.569-0.022h0.213v-0.183
	c0-0.716,0-1.433,0-2.149c0-0.145-0.032-0.202-0.188-0.208c-0.776-0.019-1.555-0.101-2.326-0.063
	c-1.195-0.011-2.295,0.652-2.844,1.714c-0.312,0.636-0.462,1.339-0.438,2.047c0,0.605,0,1.21,0,1.815v0.196h-2.419
	c0,0.069-0.011,0.123-0.011,0.175c0,0.819,0,1.642,0,2.462c0,0.151,0.049,0.184,0.189,0.183c0.695-0.007,1.39,0,2.083-0.005
	c0.118,0,0.163,0.025,0.163,0.152c-0.003,2.515-0.003,5.027,0,7.539C21.043,32.59,21.036,32.628,21.033,32.665z"/>
</svg>
