<?xml version="1.0" encoding="utf-8"?>
<!-- Generator: Adobe Illustrator 25.4.1, SVG Export Plug-In . SVG Version: 6.00 Build 0)  -->
<svg version="1.1" id="Capa_1" xmlns="http://www.w3.org/2000/svg" xmlns:xlink="http://www.w3.org/1999/xlink" x="0px" y="0px"
	 viewBox="0 0 158.8 80.3" style="enable-background:new 0 0 158.8 80.3;" xml:space="preserve">
<style type="text/css">
	.st0{fill:#03CAFF;}
	.st1{fill:#333333;}
</style>
<g>
	<g>
		<path d="M18.6,51.6c-0.2,0-0.4-0.2-0.4-0.4c0-0.2,0.1-0.4,0.4-0.5c15.4-1.9,31-3.2,46.6-3.8c8-0.7,16.1-1.3,24.1-2l-22-1.2
			c-0.2,0-0.4-0.2-0.4-0.4s0.1-0.4,0.4-0.4c4.9-0.8,9.8-1.5,14.7-2.3c1.8-0.3,3.6-0.6,5.4-0.8c-0.6-0.4-1.1-0.8-1.6-1.3
			c-2.2-2.2-3.5-5.4-3.7-8.9c-1,2.6-2.3,5.2-4.3,7.2c-1.1,1.2-2.5,2.1-4,2.8c-0.9,1.3-2.6,2.2-4.5,2.2c-2.4,0.1-4.4-1-5.3-2.9
			c-0.1-0.2,0-0.4,0.1-0.5s0.4-0.1,0.5,0c2.5,1.8,5.8,1.7,8.6,0.5c0.1-0.1,0.1-0.2,0.2-0.3c-11-6.2-22.6-11.3-34.5-15.2
			c-0.2-0.1-0.3-0.2-0.3-0.4c0-0.2,0.1-0.3,0.2-0.4C55.5,12.9,75.2,8.2,94.4,9.4c0.2,0,0.4,0.2,0.4,0.4c0,0.2-0.2,0.4-0.4,0.4
			c-1.5-0.1-3.1-0.2-4.6-0.2c0.1,0.1,0.2,0.4,0.1,0.5l-0.1,0.2c-1.2,2-2.5,4-3.5,6.1c-0.8,2.1-1.5,4.4-2.1,6.6v0.1
			c-0.3,1.1-0.7,2.3-1,3.5c-0.2,3.7,0.6,7.8,3.5,10.7c0.7,0.7,1.5,1.3,2.4,1.7c3.6-0.6,7.1-1.1,10.7-1.7c0.2,0,0.3,0.1,0.4,0.2
			c0.1,0.2,0.1,0.3,0,0.5c-1.4,1.7-3.6,2.8-6.1,2.9c-1.8,0.1-3.6-0.3-5.2-1c-2.1,0.3-4.3,0.7-6.4,1c-3.6,0.6-7.1,1.1-10.7,1.7
			l24.1,1.3c0.2,0,0.4,0.2,0.4,0.4c0,0.2-0.2,0.4-0.4,0.4c-5.1,0.4-10.2,0.8-15.3,1.3c19.9-0.2,39.8,0.6,59.6,2.5
			c0.2,0,0.4,0.2,0.4,0.5c0,0.2-0.2,0.4-0.5,0.4c-24.8-2.4-49.7-3.1-74.6-2.1c-2.2,0.2-4.4,0.4-6.7,0.5
			C45.2,49.4,31.9,50.5,18.6,51.6L18.6,51.6z M65.9,40.1c0.8,0.6,2,0.9,3.1,0.8c0.9,0,1.7-0.3,2.4-0.7
			C69.6,40.8,67.7,40.8,65.9,40.1z M90.1,40.2c1.1,0.3,2.3,0.5,3.4,0.4c1.8-0.1,3.4-0.7,4.6-1.7C95.5,39.4,92.8,39.8,90.1,40.2z
			 M39.8,22.8c11.8,3.9,23.3,9,34.1,15.2c0.1,0.1,0.2,0.2,0.2,0.3c1.1-0.6,2-1.3,2.8-2.1c2.4-2.5,3.9-5.9,4.9-9.2
			c0.1-1,0.2-2.1,0.4-3.1c0.6-2.6,1.6-5,2.8-7.4c0.9-2.3,2.1-4.5,3.8-6.4l0,0c-0.2,0-0.4,0-0.6,0C71.5,10.1,54.5,14.5,39.8,22.8z"/>
		<path class="st0" d="M18.6,51.6c-0.2,0-0.4-0.2-0.4-0.4c0-0.2,0.1-0.4,0.4-0.5c15.4-1.9,31-3.2,46.6-3.8c8-0.7,16.1-1.3,24.1-2
			l-22-1.2c-0.2,0-0.4-0.2-0.4-0.4s0.1-0.4,0.4-0.4c4.9-0.8,9.8-1.5,14.7-2.3c1.8-0.3,3.6-0.6,5.4-0.8c-0.6-0.4-1.1-0.8-1.6-1.3
			c-2.2-2.2-3.5-5.4-3.7-8.9c-1,2.6-2.3,5.2-4.3,7.2c-1.1,1.2-2.5,2.1-4,2.8c-0.9,1.3-2.6,2.2-4.5,2.2c-2.4,0.1-4.4-1-5.3-2.9
			c-0.1-0.2,0-0.4,0.1-0.5s0.4-0.1,0.5,0c2.5,1.8,5.8,1.7,8.6,0.5c0.1-0.1,0.1-0.2,0.2-0.3c-11-6.2-22.6-11.3-34.5-15.2
			c-0.2-0.1-0.3-0.2-0.3-0.4c0-0.2,0.1-0.3,0.2-0.4C55.5,12.9,75.2,8.2,94.4,9.4c0.2,0,0.4,0.2,0.4,0.4c0,0.2-0.2,0.4-0.4,0.4
			c-1.5-0.1-3.1-0.2-4.6-0.2c0.1,0.1,0.2,0.4,0.1,0.5l-0.1,0.2c-1.2,2-2.5,4-3.5,6.1c-0.8,2.1-1.5,4.4-2.1,6.6v0.1
			c-0.3,1.1-0.7,2.3-1,3.5c-0.2,3.7,0.6,7.8,3.5,10.7c0.7,0.7,1.5,1.3,2.4,1.7c3.6-0.6,7.1-1.1,10.7-1.7c0.2,0,0.3,0.1,0.4,0.2
			c0.1,0.2,0.1,0.3,0,0.5c-1.4,1.7-3.6,2.8-6.1,2.9c-1.8,0.1-3.6-0.3-5.2-1c-2.1,0.3-4.3,0.7-6.4,1c-3.6,0.6-7.1,1.1-10.7,1.7
			l24.1,1.3c0.2,0,0.4,0.2,0.4,0.4c0,0.2-0.2,0.4-0.4,0.4c-5.1,0.4-10.2,0.8-15.3,1.3c19.9-0.2,39.8,0.6,59.6,2.5
			c0.2,0,0.4,0.2,0.4,0.5c0,0.2-0.2,0.4-0.5,0.4c-24.8-2.4-49.7-3.1-74.6-2.1c-2.2,0.2-4.4,0.4-6.7,0.5
			C45.2,49.4,31.9,50.5,18.6,51.6L18.6,51.6z M65.9,40.1c0.8,0.6,2,0.9,3.1,0.8c0.9,0,1.7-0.3,2.4-0.7
			C69.6,40.8,67.7,40.8,65.9,40.1z M90.1,40.2c1.1,0.3,2.3,0.5,3.4,0.4c1.8-0.1,3.4-0.7,4.6-1.7C95.5,39.4,92.8,39.8,90.1,40.2z
			 M39.8,22.8c11.8,3.9,23.3,9,34.1,15.2c0.1,0.1,0.2,0.2,0.2,0.3c1.1-0.6,2-1.3,2.8-2.1c2.4-2.5,3.9-5.9,4.9-9.2
			c0.1-1,0.2-2.1,0.4-3.1c0.6-2.6,1.6-5,2.8-7.4c0.9-2.3,2.1-4.5,3.8-6.4l0,0c-0.2,0-0.4,0-0.6,0C71.5,10.1,54.5,14.5,39.8,22.8z"/>
		<g>
			<path class="st1" d="M130,71.1c-0.1,0-0.2-0.1-0.2-0.2s0-0.2,0-0.3c-0.4-0.2-0.8-0.4-1.1-0.7c-0.8-0.7-1.2-1.8-1-2.8
				c0.1-0.9,0.6-1.6,1.3-1.9h0.1c-0.1-0.7-0.2-1.5-0.3-2.2c-0.3-2.2-0.6-4.5-0.9-6.7c-0.4,2-0.9,4-1.3,6c-0.5,2.4-1.1,4.7-1.6,7.1
				c0,0.1-0.1,0.2-0.2,0.2s-0.2-0.1-0.2-0.1c-0.2-0.5-0.4-1.1-0.5-1.6c-0.1-0.4-0.3-0.8-0.4-1.1c-0.2,0.3-0.3,0.6-0.5,0.9
				c-0.2,0.5-0.5,0.9-0.7,1.4c0,0.1-0.1,0.1-0.2,0.1s-0.2-0.1-0.2-0.2c-0.1-0.6-0.3-1.2-0.4-1.7s-0.2-0.9-0.3-1.4l-2.8,3
				c-0.1,0.1-0.2,0.1-0.2,0c-0.1,0-0.1-0.1-0.1-0.2l0.8-6.3c-0.9,2.7-2.2,5.2-4,7.5c0,0.1-0.1,0.1-0.2,0.1s-0.1,0-0.2-0.1
				c-0.5-0.9-1-1.8-1.4-2.7c0,0.1-0.1,0.2-0.1,0.2c-1,1.5-3.4,2.5-5.5,1.5c-0.7-0.4-1.2-0.9-1.5-1.6c-0.7,0.8-1.7,1.4-2.8,1.7
				c-1.7,0.4-3.6,0.2-5.3-0.7c-0.7-0.2-1.3-0.6-1.8-1.2c-0.1-0.1-0.1-0.2,0-0.3c0.1-0.1,0.2-0.1,0.3,0c0.5,0.4,1.1,0.8,1.7,1.1
				c0.9,0.3,1.9,0.2,2.7-0.1c1.1-0.4,1.8-1.3,1.7-2.2c-0.1-1.4-1.5-2.5-2.9-3c-0.1,0-0.1,0-0.2-0.1c-1,0.5-2.1,0.8-3.4,0.7
				c-0.1,0-0.1,0-0.2-0.1c-0.2,1.5-0.3,3.1-0.2,4.6c0,0.1-0.1,0.2-0.2,0.2s-0.2-0.1-0.2-0.2c-0.4-5.1,1-10.2,4-14.2l0.1-0.1
				c0.1,0,0.1,0,0.2,0.1c2,1.7,2.8,4.3,2,6.4c-0.3,0.9-1,1.7-1.8,2.2c1.5,0.5,2.9,1.7,3,3.3c0.1,1.2-0.7,2.2-2,2.7
				c-0.4,0.2-0.9,0.3-1.3,0.3c1.2,0.3,2.4,0.4,3.5,0.1s2-0.9,2.7-1.8c-0.1-0.4-0.2-0.8-0.2-1.2c0.1-0.9,0.5-1.5,1.3-1.7
				c0.1,0,0.1,0,0.2,0s0.1,0.1,0.1,0.2c0,1-0.4,2-0.9,2.8c0.3,0.6,0.7,1.2,1.4,1.6c1.9,0.9,4,0.1,5-1.3c0.1-0.2,0.2-0.3,0.3-0.5
				c-1.3-3.6-1.1-7.4,0.5-10.5c0-0.1,0.2-0.1,0.3-0.1c0.1,0,0.2,0.1,0.1,0.2c-0.3,1.5-0.2,3.1,0,4.7c0,0.3,0.1,0.6,0.1,0.9
				c0.1,1.5,0.2,3.3-0.5,4.8c0.3,0.9,0.8,1.9,1.3,2.7c2.3-3,3.8-6.5,4.6-10.2l0.5-3.6c0-0.1,0.1-0.2,0.2-0.2s0.2,0.1,0.2,0.2
				c-0.1,1.2-0.2,2.4-0.5,3.6l-1.1,8.8l2.6-2.9c0.1-0.1,0.1-0.1,0.2-0.1s0.1,0.1,0.2,0.2c0.1,0.6,0.3,1.2,0.4,1.7
				c0.1,0.4,0.2,0.8,0.3,1.2c0.1-0.3,0.3-0.6,0.4-0.8c0.2-0.5,0.5-0.9,0.7-1.4c0-0.1,0.1-0.1,0.2-0.1s0.2,0.1,0.2,0.1
				c0.2,0.5,0.4,1.1,0.6,1.6c0.1,0.3,0.2,0.6,0.3,0.9c0.5-2.1,1-4.3,1.4-6.4c0.5-2.4,1.1-4.7,1.6-7.1c0-0.1,0.1-0.2,0.2-0.2
				c0.1,0,0.2,0.1,0.2,0.2c0.3,2.6,0.7,5.2,1,7.9c0.3,2.5,0.7,4.9,1,7.4c0.5,0.2,1,0.2,1.6,0.1c0.8-0.1,1.4-0.5,1.7-1
				c0.3-0.5,0.3-1.2,0-1.9c-0.4-0.9-1.2-1.7-2.1-2c-0.1,0-0.1-0.1-0.1-0.2s0-0.2,0.1-0.2l0,0c1.1-1,2.3-2,3.5-3
				c0.1-0.1,0.2-0.1,0.3,0s0.1,0.2,0,0.3c-1.1,1-2.2,1.9-3.3,2.8c0.9,0.4,1.7,1.2,2,2.1c0.3,0.8,0.3,1.7,0,2.3
				c-0.4,0.6-1.1,1.1-2,1.2c-0.5,0.1-1.1,0.1-1.6-0.1l0,0C130.3,71,130.2,71.1,130,71.1C130.1,71.1,130,71.1,130,71.1z M128.9,65.8
				c-0.5,0.3-0.8,0.8-0.9,1.4c-0.1,0.9,0.2,1.8,0.9,2.5c0.2,0.2,0.5,0.4,0.7,0.5c-0.1-0.7-0.2-1.3-0.3-2
				C129.2,67.4,129.1,66.6,128.9,65.8z M106.8,64.5c-0.6,0.3-0.7,0.9-0.7,1.2c0,0.2,0,0.5,0.1,0.7C106.6,65.9,106.8,65.2,106.8,64.5
				z M113.3,57.7c-0.9,2.6-0.9,5.6,0,8.4c0.5-1.3,0.4-2.9,0.3-4.1c0-0.3-0.1-0.6-0.1-0.9C113.4,60,113.3,58.8,113.3,57.7z
				 M99.5,54.2c-1.9,2.6-3.1,5.6-3.6,8.9c0.7-0.9,2-1.1,3.4-0.8c0.9-0.5,1.6-1.3,1.9-2.2C101.9,58.2,101.2,55.8,99.5,54.2z
				 M98.2,62.6c-0.6,0-1.2,0.1-1.6,0.5c0.8,0,1.5-0.2,2.2-0.5C98.5,62.6,98.4,62.6,98.2,62.6z"/>
			<path class="st1" d="M36.4,70.7c-1.1,0-2.3-0.3-3.3-0.8C33,69.8,33,69.7,33,69.6c0-0.1,0.2-0.1,0.3-0.1c1.8,0.8,3.9,0.8,5.8,0.3
				c1.2-0.5,2.3-1.3,3.1-2.3c-2.8-0.6-5.5-1.3-8.3-1.9s-5.7-1.3-8.5-1.9c-0.1,0-0.1-0.1-0.2-0.2c0-0.1,0-0.2,0.1-0.2
				c4.5-3.8,10.6-5.6,16.5-4.7c0.1,0,0.2,0.1,0.2,0.2S41.9,59,41.8,59c-5.6-0.9-11.4,0.8-15.8,4.3c2.7,0.6,5.4,1.2,8.1,1.8
				c2.9,0.6,5.7,1.3,8.6,1.9c0.1,0,0.1,0.1,0.1,0.1c0,0.1,0,0.1,0,0.2c-0.2,0.3-0.4,0.5-0.6,0.8c0.2-0.2,0.4-0.3,0.6-0.5
				c1.7-1.7,2.6-4,2.6-6.3c-0.2-1-0.4-2-0.6-3c0-0.1,0-0.2,0.1-0.2s0.2,0,0.3,0.1c0.4,1,0.6,2,0.6,3.1c0.3,1.6,0.6,3.3,1,4.9l0,0
				c0.5-1,1.4-1.7,2.3-1.8c1-0.1,2,0.4,2.6,1.3c0.5,0.7,0.7,1.6,0.5,2.3c0.3,0,0.5-0.1,0.8-0.1c1-0.1,1.9-0.2,2.9-0.4
				c0.2-0.2,0.4-0.3,0.6-0.4c0.5-0.3,1-0.4,1.5-0.4c1.2-1.5,2-3.2,2.5-5.1l-0.1-6.7c0-0.1,0.1-0.2,0.2-0.2s0.2,0,0.2,0.1
				c0.7,2.2,0.7,4.5,0.1,6.8l0.1,6.3c0.7-0.7,1.5-1.3,2.2-2c0.9-0.8,1.7-1.6,2.6-2.3c0.1,0,0.1-0.1,0.2-0.1s0.1,0.1,0.2,0.1l1.7,3.7
				c0.6-1.4,1.2-2.6,2.1-3.5c1-1,2.8-1.8,4.4-1.2c0.8,0.3,1.5,1,1.8,1.9c0.3,0.8,0.2,1.5-0.2,2.1c-0.1,0.2-0.2,0.3-0.4,0.4
				c0.5,0,0.9-0.1,1.3-0.3c1.4-0.7,2.2-2.5,1.7-4c0-0.1,0-0.2,0.1-0.3c0.1,0,0.2,0,0.3,0.1c0.5,0.9,1,1.9,1.5,2.8
				c0.4,0.7,0.8,1.5,1.2,2.2c0.3-1.1,1-2.1,2.2-2.8c1.4-0.8,2.9-0.9,4.1-0.2c0.1,0.1,0.1,0.2,0.1,0.3c-0.1,0.1-0.2,0.1-0.3,0.1
				c-1.1-0.6-2.5-0.5-3.7,0.2s-2,1.9-2,3.1c0,0.1-0.1,0.2-0.2,0.2s-0.2,0-0.2-0.1c-0.5-0.9-1-1.9-1.5-2.8c-0.3-0.6-0.6-1.2-0.9-1.7
				c-0.1,1.3-0.8,2.7-2.1,3.3c-0.7,0.3-1.6,0.4-2.4,0.3c-0.4,0.1-0.8,0-1.2-0.1c-0.8-0.3-1.3-0.9-1.3-1.6c0-0.1,0.1-0.2,0.2-0.2
				s0.2,0,0.2,0.1c0.5,0.7,1.2,1.2,2.1,1.4c0.4-0.1,0.7-0.2,0.9-0.6c0.3-0.5,0.4-1.1,0.2-1.8c-0.2-0.7-0.8-1.4-1.5-1.6
				c-1.4-0.5-3,0.2-3.9,1.1c-1,1-1.6,2.3-2.2,3.8c0,0.1-0.1,0.1-0.2,0.1l0,0c-0.1,0-0.2,0-0.2-0.1L66.1,64c-0.8,0.7-1.6,1.4-2.3,2.1
				c-0.9,0.8-1.7,1.6-2.6,2.3c-0.1,0.1-0.2,0.1-0.2,0c-0.1,0-0.1-0.1-0.1-0.2l-0.1-5.5c-0.5,1.4-1.2,2.6-2,3.8
				c0.2,0.1,0.5,0.2,0.7,0.4c0.1,0.1,0.1,0.1,0.1,0.2s-0.1,0.1-0.2,0.1c-0.4,0.1-0.9,0.1-1.3,0.2c-0.6,0.7-1.3,1.3-2.1,1.8
				c-0.1,0-0.1,0-0.2,0s-0.1-0.1-0.1-0.2c-0.1-0.5,0-1,0.3-1.4c-0.8,0.1-1.6,0.2-2.4,0.3c-0.3,0-0.6,0.1-1,0.1v0.1
				c-0.4,0.9-1.3,1.4-2.4,1.5s-2-0.3-2.6-1c0,0-0.1,0-0.1-0.1c-0.4-0.6-0.5-1.3-0.4-2c-0.3-1.4-0.5-2.8-0.8-4.2
				c-0.3,1.9-1.2,3.7-2.6,5.1c-1.1,1-2.4,1.8-3.8,2.2C38.3,70.6,37.4,70.7,36.4,70.7z M47.4,69.1c0.5,0.5,1.3,0.7,2.1,0.7
				c0.9-0.1,1.6-0.5,2-1.2C50.1,68.8,48.7,69,47.4,69.1z M55.9,68.1c-0.3,0.3-0.5,0.7-0.5,1.1c0.5-0.4,0.9-0.8,1.4-1.2
				C56.5,68,56.2,68.1,55.9,68.1z M46.8,67.1c0.1,0.5,0.2,1.1,0.3,1.6c1.5-0.2,3-0.4,4.5-0.5c0.2-0.7,0.1-1.4-0.4-2.1
				c-0.5-0.8-1.4-1.2-2.2-1.2c-0.8,0.1-1.6,0.7-2,1.5C46.9,66.7,46.9,66.9,46.8,67.1z M57.5,67.3c-0.3,0-0.6,0.1-0.9,0.3
				c0.2,0,0.5-0.1,0.7-0.1C57.3,67.5,57.4,67.4,57.5,67.3z M58,67.4C58,67.4,57.9,67.4,58,67.4c0,0.1,0.1,0.1,0.2,0.1
				C58.1,67.4,58,67.4,58,67.4z M60.6,57.7v1.5C60.7,58.7,60.7,58.2,60.6,57.7z"/>
			<path class="st1" d="M74.2,59.8h-0.1c-0.1-0.1-0.1-0.2,0-0.3l1.1-1.5c0.1-0.1,0.2-0.1,0.3,0c0.1,0.1,0.1,0.2,0,0.3l-1.1,1.5
				C74.4,59.8,74.3,59.8,74.2,59.8z"/>
			<path class="st1" d="M66,60.3C66,60.3,65.9,60.3,66,60.3c-0.2,0-0.5-0.1-0.5-0.3c0-0.2,0.2-0.4,0.4-0.6l0,0
				c0.1-0.1,0.2-0.1,0.2,0c0.1,0,0.1,0.1,0.1,0.2s0,0.2,0,0.2c0,0.1,0,0.2,0,0.3C66.1,60.3,66.1,60.3,66,60.3z"/>
			<path class="st1" d="M52.3,59.2c-0.1,0-0.2-0.1-0.2-0.2s0.1-0.2,0.2-0.2h0.3c9-1.7,18.4-3.4,27.6-5.1c0.1,0,0.2,0.1,0.2,0.2
				s-0.1,0.2-0.2,0.2c-9.2,1.7-18.5,3.4-27.6,5.1H52.3C52.4,59.2,52.3,59.2,52.3,59.2z"/>
		</g>
	</g>
</g>
</svg>
