<?xml version="1.0" encoding="utf-8"?>
<!-- Generator: Adobe Illustrator 25.4.1, SVG Export Plug-In . SVG Version: 6.00 Build 0)  -->
<svg version="1.1" id="Capa_1" xmlns="http://www.w3.org/2000/svg" xmlns:xlink="http://www.w3.org/1999/xlink" x="0px" y="0px"
	 viewBox="0 0 319.7 41.6" style="enable-background:new 0 0 319.7 41.6;" xml:space="preserve">
<style type="text/css">
	.st0{fill:#8F57FF;}
</style>
<g>
	<g>
		<g>
			<g>
				<g>
					<path d="M279.7,22.8c-1.2-1.8-4-2.4-6-1.2c-1.9,1.2-2.5,4-1.1,5.7c0.3-1.4,1.9-2.3,3.3-2s2.4,1.7,2.4,3.2
						C280.3,27.3,281,24.6,279.7,22.8z M278.2,24.7c-0.6,0.4-1.4,0.2-1.7-0.4c-0.4-0.6-0.2-1.3,0.4-1.7c0.6-0.4,1.4-0.2,1.7,0.4
						C279,23.6,278.8,24.4,278.2,24.7z"/>
				</g>
			</g>
			<g>
				<path class="st0" d="M286,24.3c0.2,1.5-0.5,3.2-1.7,4.2c0.5-0.7,0.8-1.3,1-2s0.3-1.4,0.2-2.2c-0.2-1.4-1-2.7-2.2-3.7
					C284.7,21.2,285.8,22.7,286,24.3z"/>
			</g>
			<g>
				<path class="st0" d="M270.5,30.5c-1-1-1.7-2.3-1.8-3.6c0.5,1.2,1.2,2.4,2.2,3.3c0.9,0.9,2,1.7,3.3,2.3
					C272.8,32.2,271.5,31.5,270.5,30.5z"/>
			</g>
			<g>
				<g>
					<path class="st0" d="M284.6,20.7c-2.9-0.7-6.1-0.9-9.1-0.5c-3,0.5-5.9,1.6-8.6,3.2s-4.9,3.7-6.8,6.1c1.5-2.7,3.7-5,6.4-6.8
						c2.6-1.8,5.6-3,8.8-3.5c3.1-0.5,6.4-0.2,9.4,0.7s5.8,2.5,8,4.5C290.4,22.7,287.5,21.4,284.6,20.7z"/>
				</g>
				<g>
					<path class="st0" d="M278.8,17.7c-0.5-0.2-1.1-0.3-1.7-0.4c-1.1-0.3-2.2-0.5-3.4-0.7c-2.3-0.4-4.6-0.7-6.8-1.2
						c-0.1,0-0.2-0.1-0.2-0.2c-0.1-0.2-0.1-0.4,0.1-0.5l0,0c1.1-0.7,2.3-1.1,3.6-1.2c1.2-0.2,2.5-0.2,3.8-0.1l-0.4,0.8
						c-1.5-1.4-3-2.6-4.9-3.6c-1.8-1-3.7-1.7-5.7-2.3l0,0c-0.1-0.1-0.2-0.2-0.3-0.3c-0.1-0.3,0.1-0.5,0.4-0.6c1.9-0.4,3.8-0.4,5.7,0
						c1.8,0.4,3.5,1.2,5,2.3c1.5,1,2.8,2.3,3.9,3.7s2,3,2.5,4.7C279.9,17.9,279.3,17.7,278.8,17.7z M277.8,13.6
						c-1.2-1.3-2.5-2.5-4-3.4s-3.1-1.6-4.9-2c-1.7-0.4-3.5-0.3-5.3,0.1V7.4c2,0.7,3.9,1.4,5.8,2.4c1.8,1,3.6,2.3,5,3.7l0,0
						c0.1,0.1,0.2,0.2,0.1,0.4c0,0.3-0.3,0.5-0.5,0.4c-1.2-0.2-2.4-0.2-3.5,0c-1.2,0.1-2.3,0.5-3.3,1l-0.1-0.7
						c2.2,0.6,4.5,0.9,6.7,1.5c1.1,0.2,2.2,0.6,3.3,0.9c0.5,0.2,1.1,0.4,1.6,0.6c0.6,0.2,1,0.4,1.6,0.6
						C279.8,16.4,278.8,14.9,277.8,13.6z"/>
				</g>
				<g>
					<path class="st0" d="M282.5,17.2c-0.1-0.4-0.2-0.7-0.4-1.1c-0.3-0.7-0.6-1.4-0.9-2.1c-0.7-1.4-1.6-2.6-2.6-3.7
						c-0.1-0.1-0.1-0.2-0.1-0.3c0-0.2,0.2-0.3,0.5-0.3l0,0c0.8,0.2,1.5,0.5,2.1,1s1.1,1,1.6,1.6l-0.8,0.2c0.1-1.4-0.1-2.8-0.5-4.1
						s-1-2.6-1.6-3.9c0-0.1-0.1-0.3,0-0.4c0.1-0.2,0.4-0.3,0.7-0.2c1.2,0.7,2.3,1.7,3,2.8s1.2,2.5,1.4,3.8c0.2,1.3,0.1,2.7-0.3,4
						c-0.2,0.6-0.5,1.3-0.7,1.9c-0.2,0.3-0.3,0.6-0.5,0.9s-0.4,0.5-0.6,0.8C282.7,17.9,282.6,17.4,282.5,17.2z M283.3,17.3
						c0.1-0.3,0.3-0.6,0.4-0.9c0.2-0.6,0.4-1.2,0.5-1.9c0.2-1.3,0.3-2.6,0-3.8c-0.2-1.3-0.7-2.4-1.4-3.5c-0.7-1-1.7-1.9-2.8-2.5
						l0.7-0.6c0.7,1.3,1.3,2.6,1.7,4s0.6,2.9,0.5,4.4l0,0c0,0.2-0.1,0.3-0.2,0.3c-0.2,0.1-0.5,0.1-0.6-0.1c-0.5-0.6-0.9-1.1-1.5-1.5
						s-1.2-0.7-1.8-0.9l0.4-0.6c1,1.2,1.8,2.5,2.4,4c0.3,0.7,0.5,1.4,0.7,2.2c0.1,0.4,0.2,0.7,0.3,1.1s0.1,0.7,0.2,1.1
						C283,17.9,283.1,17.6,283.3,17.3z"/>
				</g>
				<g>
					<path class="st0" d="M293.2,25.9c0,0.2,0.1,0.4,0.2,0.6c0,0.2,0.1,0.4,0.1,0.7c0,0.4,0.1,0.9,0.1,1.3c0,0.9-0.3,1.8-0.7,2.6
						c-0.4,0.8-1,1.6-1.7,2.2s-1.6,1.1-2.5,1.3c-0.2,0-0.4,0-0.4-0.2c0-0.1,0-0.2,0.1-0.3c0.7-0.7,1.3-1.4,1.9-2.2s0.9-1.6,1.2-2.5
						l0.5,0.3c-0.4,0.3-0.9,0.6-1.4,0.7c-0.5,0.2-1,0.3-1.6,0.2l0,0c-0.2,0-0.3-0.1-0.2-0.2c0-0.1,0.1-0.2,0.1-0.2
						c0.9-0.5,1.7-1.2,2.5-1.9c0.4-0.3,0.7-0.8,1-1.2c0.2-0.2,0.3-0.4,0.5-0.6C292.8,26.4,293,26.1,293.2,25.9z M293.2,25.9
						c-0.1,0.3-0.2,0.5-0.4,0.7c-0.1,0.2-0.3,0.5-0.4,0.7c-0.3,0.4-0.6,0.8-0.9,1.3c-0.7,0.8-1.5,1.5-2.4,2.1l-0.1-0.5
						c0.5,0,0.9-0.1,1.4-0.3c0.4-0.2,0.8-0.4,1.3-0.7c0.1-0.1,0.4-0.1,0.4,0s0.1,0.1,0,0.2l0,0c-0.2,0.9-0.7,1.9-1.2,2.7
						c-0.6,0.8-1.2,1.6-2,2.2l-0.3-0.5c0.8-0.2,1.6-0.6,2.3-1.1c0.7-0.5,1.3-1.2,1.7-1.9c0.4-0.7,0.7-1.6,0.8-2.4
						c0.1-0.4,0.1-0.9,0-1.3c0-0.2,0-0.4-0.1-0.6C293.2,26.3,293.2,26.1,293.2,25.9z"/>
				</g>
				<g>
					<path class="st0" d="M285,31.2c-2.4,1.2-5.1,1.9-7.8,1.9c-2.7,0-5.3-0.7-7.7-1.8c-2.4-1.1-4.5-2.7-6-4.7c1.9,1.7,4,3.1,6.4,4.1
						c2.3,1,4.9,1.5,7.4,1.5s5.1-0.6,7.4-1.6c2.4-1,4.5-2.5,6.4-4.3C289.5,28.4,287.4,30.1,285,31.2z"/>
				</g>
				<g>
					<path class="st0" d="M260.2,25.8c-0.4,0.2-0.8,0.4-1.1,0.7c-0.8,0.4-1.6,0.9-2.4,1.2c-0.8,0.3-1.6,0.6-2.5,0.9
						s-1.8,0.4-2.6,0.6c-0.1,0-0.2,0-0.3,0c-0.2,0-0.3-0.3-0.2-0.5l0,0c0.5-1,1.4-1.9,2.3-2.6s2-1.2,3.2-1.5v0.9
						c-1.3-0.4-2.6-0.7-3.9-1.1c-1.3-0.3-2.6-0.7-3.9-1.1l0,0c-0.2,0-0.3-0.2-0.3-0.4c-0.1-0.2,0.2-0.4,0.4-0.5
						c2.1-0.2,4.4,0,6.4,0.4c1,0.2,2.1,0.5,3.1,0.9s1.9,0.8,2.8,1.3C261,25.4,260.6,25.7,260.2,25.8z M258.3,24.3
						c-1.1-0.3-2.1-0.5-3.1-0.6c-2-0.3-4.2-0.3-6.2-0.1l0.1-0.9c1.3,0.3,2.6,0.7,4,1c1.3,0.4,2.6,0.7,3.9,1.1l0,0
						c0.2,0,0.3,0.2,0.3,0.4c0.1,0.2-0.2,0.5-0.4,0.5c-1,0.2-2,0.6-2.9,1.2c-0.8,0.6-1.5,1.4-2.1,2.3l-0.4-0.6
						c1.8-0.3,3.4-0.6,5.1-1.2c0.8-0.3,1.6-0.6,2.4-1c0.4-0.2,0.8-0.4,1.2-0.6c0.4-0.2,0.7-0.3,1.2-0.6
						C260.3,24.8,259.3,24.5,258.3,24.3z"/>
				</g>
			</g>
		</g>
	</g>
	<g>
		<path class="st0" d="M25.6,15.4l2.2-1.5l0,0l0,0l0,0L25.6,15.4z"/>
		<path class="st0" d="M33,11.7c1.8-0.5,3.7-0.9,5.5-1.1c0.1,0,0.1,0,0.1,0.1s0,0.1-0.1,0.1l0,0c-1.9,0.2-3.7,0.5-5.5,1
			C33,11.8,33,11.8,33,11.7L33,11.7z"/>
		<path class="st0" d="M44.2,10.4c1.9,0.1,3.8,0.3,5.6,0.6c0.1,0,0.2,0.1,0.2,0.3c0,0.1-0.1,0.2-0.3,0.2l0,0
			c-1.8-0.4-3.7-0.6-5.6-0.7c-0.1,0-0.2-0.1-0.2-0.2C44,10.5,44.1,10.4,44.2,10.4z"/>
		<path class="st0" d="M55.3,12.5c1.8,0.6,3.5,1.4,5.2,2.4c0.1,0.1,0.2,0.3,0.1,0.4c-0.1,0.1-0.3,0.2-0.4,0.1l0,0
			c-1.6-1-3.3-1.8-5-2.4c-0.1-0.1-0.2-0.2-0.2-0.3C55,12.5,55.2,12.4,55.3,12.5z"/>
		<path class="st0" d="M64.8,18.6c1.2,1.5,2,3.4,1.9,5.4c0,0.2-0.2,0.4-0.4,0.4c-0.2,0-0.4-0.2-0.4-0.4l0,0c0.1-1.8-0.6-3.5-1.8-5
			c-0.1-0.2-0.1-0.4,0.1-0.5C64.5,18.4,64.7,18.4,64.8,18.6z"/>
		<path class="st0" d="M64.4,29.3c-1.7,1.1-3.6,1.6-5.5,1.9c-0.2,0-0.4-0.1-0.5-0.3c0-0.2,0.1-0.4,0.3-0.5l0,0
			c1.8-0.3,3.6-0.7,5.1-1.7c0.2-0.1,0.4-0.1,0.5,0.1C64.6,28.9,64.6,29.2,64.4,29.3z"/>
		<path class="st0" d="M53.3,30c-1.6-1.2-2.7-3-2.9-5c0-0.2,0.1-0.4,0.4-0.5c0.2,0,0.4,0.1,0.5,0.4l0,0c0.2,1.7,1.1,3.4,2.5,4.5
			c0.2,0.1,0.2,0.4,0.1,0.6C53.8,30.1,53.5,30.1,53.3,30z"/>
		<path class="st0" d="M52.3,19.4c1.2-1.5,2.8-2.7,4.6-3.6c0.2-0.1,0.5,0,0.6,0.2s0,0.5-0.2,0.6l0,0c-1.6,0.8-3.1,1.9-4.3,3.3
			c-0.2,0.2-0.4,0.2-0.6,0.1C52.1,19.9,52.1,19.6,52.3,19.4z"/>
		<path class="st0" d="M62,13.7c1.8-0.7,3.6-1.2,5.5-1.6c0.3-0.1,0.5,0.1,0.6,0.4c0.1,0.3-0.1,0.5-0.4,0.6l0,0
			c-1.8,0.4-3.6,0.9-5.3,1.5c-0.2,0.1-0.5,0-0.6-0.3C61.7,14,61.8,13.8,62,13.7z"/>
		<path class="st0" d="M73.2,11.4c1.9-0.1,3.8,0,5.7,0.3c0.3,0,0.5,0.3,0.4,0.6c0,0.3-0.3,0.5-0.6,0.4l0,0c-1.8-0.3-3.7-0.4-5.5-0.3
			c-0.3,0-0.5-0.2-0.5-0.5C72.7,11.6,72.9,11.4,73.2,11.4z"/>
		<path class="st0" d="M84.4,13c1.8,0.6,3.6,1.3,5.3,2.1c0.3,0.1,0.4,0.5,0.3,0.7c-0.1,0.3-0.5,0.4-0.7,0.3l0,0
			c-1.7-0.8-3.4-1.5-5.2-2.1c-0.3-0.1-0.4-0.4-0.4-0.7C83.8,13,84.1,12.9,84.4,13z"/>
		<path class="st0" d="M94.7,17.8c1.6,1,3.1,2.1,4.7,3.2c0.3,0.2,0.3,0.5,0.2,0.8c-0.2,0.3-0.5,0.3-0.8,0.2l0,0l0,0
			c-1.5-1-3-2.2-4.6-3.1c-0.3-0.2-0.4-0.5-0.2-0.8C94.1,17.7,94.5,17.6,94.7,17.8z"/>
		<path class="st0" d="M103.9,24.4l4.4,3.5c0.3,0.2,0.3,0.6,0.1,0.9c-0.2,0.3-0.6,0.3-0.9,0.1l0,0l-4.4-3.5
			c-0.3-0.2-0.3-0.6-0.1-0.9C103.3,24.2,103.6,24.2,103.9,24.4z"/>
		<path class="st0" d="M112.8,31.2c1.5,1.1,3.1,2,4.7,2.9c0.3,0.2,0.5,0.6,0.3,0.9c-0.2,0.3-0.6,0.5-0.9,0.3l0,0
			c-1.7-0.9-3.3-1.9-4.9-3c-0.3-0.2-0.4-0.6-0.2-0.9C112.1,31.1,112.5,31,112.8,31.2z"/>
		<path class="st0" d="M122.6,36.1c1.7,0.5,3.6,0.8,5.4,0.9c0.4,0,0.6,0.3,0.6,0.7s-0.3,0.6-0.7,0.6c-1.9-0.1-3.9-0.4-5.7-0.9
			c-0.4-0.1-0.6-0.5-0.5-0.8C121.9,36.2,122.3,36,122.6,36.1L122.6,36.1z"/>
		<path class="st0" d="M133.5,36.7c1.8-0.3,3.6-0.7,5.4-1.2c0.3-0.1,0.7,0.1,0.8,0.4c0.1,0.3-0.1,0.7-0.4,0.8
			c-1.8,0.6-3.7,1-5.6,1.3c-0.3,0.1-0.7-0.2-0.7-0.5C132.9,37.1,133.1,36.7,133.5,36.7L133.5,36.7z"/>
		<path class="st0" d="M144.1,33.5c1.7-0.8,3.3-1.7,4.8-2.7c0.3-0.2,0.6-0.1,0.8,0.2c0.2,0.3,0.1,0.6-0.2,0.8c-1.6,1.1-3.2,2-5,2.8
			c-0.3,0.1-0.7,0-0.8-0.3S143.7,33.6,144.1,33.5L144.1,33.5z"/>
		<path class="st0" d="M153.3,27.4c1.4-1.2,2.7-2.5,3.9-4c0.2-0.2,0.5-0.3,0.8-0.1c0.2,0.2,0.3,0.5,0.1,0.8c-1.2,1.5-2.5,2.8-4,4.1
			c-0.2,0.2-0.6,0.2-0.8,0C153,28,153.1,27.6,153.3,27.4L153.3,27.4z"/>
		<path class="st0" d="M160.4,19l1.3-2.3l0.9,0.6c-0.6,0.6-1.1,1.3-1.5,2.1c-0.1,0.3-0.4,0.4-0.7,0.2c-0.3-0.1-0.4-0.4-0.2-0.7
			c0.4-0.8,1-1.6,1.6-2.3c0.2-0.2,0.5-0.3,0.7-0.1c0.2,0.2,0.2,0.4,0.1,0.7l-1.3,2.4c-0.1,0.3-0.5,0.4-0.7,0.2
			C160.4,19.6,160.3,19.3,160.4,19L160.4,19L160.4,19z"/>
		<path class="st0" d="M159.8,24.5c0,1.7,0.4,3.4,1.1,4.9l-0.1-0.1l0.2,0.2c0.2,0.2,0.2,0.5,0,0.7s-0.5,0.2-0.7,0l-0.2-0.2l-0.1-0.1
			c-0.8-1.7-1.3-3.5-1.3-5.4c0-0.3,0.2-0.5,0.5-0.5S159.8,24.3,159.8,24.5L159.8,24.5z"/>
		<path class="st0" d="M165.2,33.2c1.5,1,3.2,1.9,4.9,2.6c0.2,0.1,0.3,0.4,0.3,0.6c-0.1,0.2-0.4,0.3-0.6,0.3
			c-1.8-0.7-3.5-1.6-5.1-2.6c-0.2-0.1-0.3-0.4-0.1-0.7C164.7,33.2,165,33.1,165.2,33.2L165.2,33.2z"/>
		<path class="st0" d="M175.5,37.3c1.8,0.3,3.7,0.5,5.5,0.6c0.2,0,0.4,0.2,0.4,0.4s-0.2,0.4-0.4,0.4c-1.9-0.1-3.8-0.2-5.7-0.6
			c-0.2,0-0.4-0.3-0.4-0.5C175,37.4,175.2,37.3,175.5,37.3L175.5,37.3z"/>
		<path class="st0" d="M186.6,37.7l5.6-0.8l0,0c0.2,0,0.4,0.1,0.4,0.3s-0.1,0.4-0.3,0.4l-5.6,0.8c-0.2,0-0.4-0.1-0.5-0.3
			C186.2,38,186.3,37.8,186.6,37.7L186.6,37.7L186.6,37.7z"/>
		<path class="st0" d="M197.6,35.7c1.8-0.6,3.6-1.1,5.3-1.8c0.2-0.1,0.4,0,0.5,0.2s0,0.4-0.2,0.5c-1.8,0.7-3.6,1.2-5.4,1.8
			c-0.2,0.1-0.4,0-0.5-0.2C197.3,35.9,197.4,35.7,197.6,35.7L197.6,35.7L197.6,35.7z"/>
		<path class="st0" d="M208.2,31.9l5.2-2.1c0.1-0.1,0.3,0,0.4,0.2c0.1,0.1,0,0.3-0.1,0.4l-5.2,2.2c-0.2,0.1-0.4,0-0.4-0.2
			C208,32.1,208,32,208.2,31.9L208.2,31.9z"/>
		<path class="st0" d="M218.7,27.7l5.3-1.9c0.1,0,0.2,0,0.2,0.1s0,0.2-0.1,0.2l-5.3,2c-0.1,0-0.2,0-0.3-0.1
			C218.5,27.9,218.6,27.8,218.7,27.7L218.7,27.7z"/>
		<path class="st0" d="M229.5,24.3l5.5-1.1c0,0,0.1,0,0.1,0.1c0,0,0,0.1-0.1,0.1l-5.5,1.2c-0.1,0-0.1,0-0.2-0.1
			C229.4,24.3,229.4,24.3,229.5,24.3L229.5,24.3z"/>
		<path class="st0" d="M240.6,22.6h2.7H240.6C240.6,22.7,240.6,22.7,240.6,22.6C240.6,22.7,240.6,22.7,240.6,22.6L240.6,22.6z"/>
	</g>
</g>
</svg>
