<?xml version="1.0" encoding="utf-8"?>
<!-- Generator: Adobe Illustrator 25.4.1, SVG Export Plug-In . SVG Version: 6.00 Build 0)  -->
<svg version="1.1" id="Capa_1" xmlns="http://www.w3.org/2000/svg" xmlns:xlink="http://www.w3.org/1999/xlink" x="0px" y="0px"
	 viewBox="0 0 319.7 41.6" style="enable-background:new 0 0 319.7 41.6;" xml:space="preserve">
<style type="text/css">
	.st0{fill:#8F57FF;}
</style>
<g>
	<g>
		<g>
			<g>
				<g>
					<path d="M40.9,28.5c0-1.5,1-2.9,2.4-3.2s3,0.6,3.3,2c1.4-1.7,0.8-4.5-1.1-5.7c-2-1.2-4.8-0.6-6,1.2
						C38.2,24.6,38.9,27.3,40.9,28.5z M40.6,23c0.3-0.6,1.1-0.8,1.7-0.4c0.6,0.4,0.8,1.1,0.4,1.7c-0.3,0.6-1.1,0.8-1.7,0.4
						C40.4,24.4,40.2,23.6,40.6,23z"/>
				</g>
			</g>
			<g>
				<path class="st0" d="M35.9,20.6c-1.2,1-2,2.3-2.2,3.7c-0.1,0.8,0,1.5,0.2,2.2s0.5,1.3,1,2c-1.2-1-1.9-2.7-1.7-4.2
					C33.4,22.7,34.5,21.2,35.9,20.6z"/>
			</g>
			<g>
				<path class="st0" d="M45,32.5c1.3-0.6,2.4-1.4,3.3-2.3c1-0.9,1.7-2.1,2.2-3.3c-0.1,1.3-0.8,2.6-1.8,3.6S46.4,32.2,45,32.5z"/>
			</g>
			<g>
				<g>
					<path class="st0" d="M26.5,24.4c2.2-2,5-3.6,8-4.5s6.3-1.2,9.4-0.7c3.2,0.5,6.2,1.7,8.8,3.5c2.7,1.8,4.9,4.1,6.4,6.8
						c-1.9-2.4-4.1-4.5-6.8-6.1s-5.6-2.7-8.6-3.2c-3-0.4-6.2-0.2-9.1,0.5C31.7,21.4,28.8,22.7,26.5,24.4z"/>
				</g>
				<g>
					<path class="st0" d="M38.8,18.1c0.5-1.7,1.4-3.3,2.5-4.7s2.4-2.7,3.9-3.7c1.5-1.1,3.2-1.9,5-2.3C52.1,7,54,7,55.9,7.4
						c0.3,0.1,0.5,0.3,0.4,0.6c-0.1,0.1-0.2,0.2-0.3,0.3l0,0c-2,0.6-3.9,1.3-5.7,2.3c-1.9,1-3.4,2.2-4.9,3.6L45,13.4
						c1.3-0.1,2.6-0.1,3.8,0.1c1.3,0.1,2.5,0.5,3.6,1.2l0,0c0.2,0.1,0.2,0.3,0.1,0.5c0,0.1-0.1,0.2-0.2,0.2
						c-2.2,0.5-4.5,0.8-6.8,1.2c-1.2,0.2-2.3,0.4-3.4,0.7c-0.6,0.1-1.2,0.2-1.7,0.4C39.9,17.7,39.3,17.9,38.8,18.1z M38.9,18.2
						c0.6-0.2,1-0.4,1.6-0.6c0.5-0.2,1.1-0.4,1.6-0.6c1.1-0.3,2.2-0.7,3.3-0.9c2.2-0.6,4.5-0.9,6.7-1.5L52,15.3
						c-1-0.5-2.1-0.9-3.3-1c-1.1-0.2-2.3-0.2-3.5,0c-0.2,0.1-0.5-0.1-0.5-0.4c-0.1-0.2,0-0.3,0.1-0.4l0,0c1.4-1.4,3.2-2.7,5-3.7
						c1.9-1,3.8-1.7,5.8-2.4v0.9c-1.8-0.4-3.6-0.5-5.3-0.1c-1.8,0.4-3.4,1.1-4.9,2s-2.8,2.1-4,3.4C40.4,14.9,39.4,16.4,38.9,18.2z"
						/>
				</g>
				<g>
					<path class="st0" d="M36.4,18.1c-0.2-0.3-0.4-0.5-0.6-0.8s-0.3-0.6-0.5-0.9c-0.2-0.6-0.5-1.3-0.7-1.9c-0.4-1.3-0.5-2.7-0.3-4
						c0.2-1.3,0.7-2.7,1.4-3.8s1.8-2.1,3-2.8c0.3-0.1,0.6,0,0.7,0.2c0.1,0.1,0,0.3,0,0.4c-0.6,1.3-1.2,2.6-1.6,3.9s-0.6,2.7-0.5,4.1
						l-0.8-0.2c0.5-0.6,1-1.1,1.6-1.6s1.3-0.8,2.1-1l0,0c0.3,0,0.5,0.1,0.5,0.3c0,0.1,0,0.2-0.1,0.3c-1,1.1-1.9,2.3-2.6,3.7
						c-0.3,0.7-0.6,1.4-0.9,2.1c-0.2,0.4-0.3,0.7-0.4,1.1C36.6,17.4,36.5,17.9,36.4,18.1z M36.4,18.1c0.1-0.4,0.1-0.7,0.2-1.1
						s0.2-0.7,0.3-1.1c0.2-0.8,0.4-1.5,0.7-2.2c0.6-1.5,1.4-2.8,2.4-4l0.4,0.6c-0.6,0.2-1.2,0.5-1.8,0.9s-1,0.9-1.5,1.5
						c-0.1,0.2-0.4,0.2-0.6,0.1c-0.1,0-0.2-0.1-0.2-0.3l0,0c-0.1-1.5,0.1-3,0.5-4.4s1-2.7,1.7-4l0.7,0.6c-1.1,0.6-2.1,1.5-2.8,2.5
						c-0.7,1.1-1.2,2.2-1.4,3.5c-0.3,1.2-0.2,2.5,0,3.8c0.1,0.7,0.3,1.3,0.5,1.9c0.1,0.3,0.3,0.6,0.4,0.9
						C36.1,17.6,36.2,17.9,36.4,18.1z"/>
				</g>
				<g>
					<path class="st0" d="M26.3,26.5c0.2,0.2,0.3,0.4,0.5,0.6c0.3,0.4,0.6,0.9,1,1.2c0.8,0.7,1.6,1.4,2.5,1.9c0,0,0.1,0.1,0.1,0.2
						c0.1,0.1,0,0.2-0.2,0.2l0,0c-0.6,0.1-1.1,0-1.6-0.2c-0.5-0.1-1-0.4-1.4-0.7l0.5-0.3c0.3,0.9,0.6,1.7,1.2,2.5s1.2,1.5,1.9,2.2
						c0.1,0.1,0.1,0.2,0.1,0.3c0,0.2-0.2,0.2-0.4,0.2c-0.9-0.2-1.8-0.7-2.5-1.3s-1.3-1.4-1.7-2.2c-0.4-0.8-0.7-1.7-0.7-2.6
						c0-0.4,0.1-0.9,0.1-1.3c0-0.3,0.1-0.5,0.1-0.7c0.1-0.2,0.2-0.4,0.2-0.6C26.2,26.1,26.4,26.4,26.3,26.5z M25.9,26.5
						c-0.1,0.2-0.1,0.4-0.1,0.6c-0.1,0.4-0.1,0.9,0,1.3c0.1,0.8,0.4,1.7,0.8,2.4c0.4,0.7,1,1.4,1.7,1.9c0.7,0.5,1.5,0.9,2.3,1.1
						l-0.3,0.5c-0.8-0.6-1.4-1.4-2-2.2c-0.5-0.8-1-1.8-1.2-2.7l0,0c-0.1-0.1,0-0.1,0-0.2s0.3-0.1,0.4,0c0.5,0.3,0.9,0.5,1.3,0.7
						c0.5,0.2,0.9,0.3,1.4,0.3l-0.1,0.5c-0.9-0.6-1.7-1.3-2.4-2.1c-0.3-0.5-0.6-0.9-0.9-1.3c-0.1-0.2-0.3-0.5-0.4-0.7
						c-0.2-0.2-0.3-0.4-0.4-0.7C26,26.1,26,26.3,25.9,26.5z"/>
				</g>
				<g>
					<path class="st0" d="M28.1,26.3c1.9,1.8,4,3.3,6.4,4.3c2.3,1,4.9,1.6,7.4,1.6s5.1-0.5,7.4-1.5c2.4-1,4.5-2.4,6.4-4.1
						c-1.5,2-3.6,3.6-6,4.7c-2.4,1.1-5,1.8-7.7,1.8c-2.7,0-5.4-0.7-7.8-1.9C31.8,30.1,29.7,28.4,28.1,26.3z"/>
				</g>
				<g>
					<path class="st0" d="M58,25c0.9-0.5,1.8-0.9,2.8-1.3s2.1-0.7,3.1-0.9c2-0.4,4.3-0.6,6.4-0.4c0.2,0.1,0.5,0.3,0.4,0.5
						c0,0.2-0.1,0.4-0.3,0.4l0,0c-1.3,0.4-2.6,0.8-3.9,1.1c-1.3,0.4-2.6,0.7-3.9,1.1v-0.9c1.2,0.3,2.3,0.8,3.2,1.5s1.8,1.6,2.3,2.6
						l0,0c0.1,0.2,0,0.5-0.2,0.5c-0.1,0-0.2,0-0.3,0c-0.8-0.2-1.7-0.3-2.6-0.6s-1.7-0.6-2.5-0.9c-0.8-0.3-1.6-0.8-2.4-1.2
						c-0.3-0.3-0.7-0.5-1.1-0.7C58.6,25.7,58.2,25.4,58,25z M57.8,25.2c0.5,0.3,0.8,0.4,1.2,0.6c0.4,0.2,0.8,0.4,1.2,0.6
						c0.8,0.4,1.6,0.7,2.4,1c1.7,0.6,3.3,0.9,5.1,1.2l-0.4,0.6c-0.6-0.9-1.3-1.7-2.1-2.3c-0.9-0.6-1.9-1-2.9-1.2
						c-0.2,0-0.5-0.3-0.4-0.5c0-0.2,0.1-0.4,0.3-0.4l0,0c1.3-0.4,2.6-0.7,3.9-1.1c1.4-0.3,2.7-0.7,4-1l0.1,0.9
						c-2-0.2-4.2-0.2-6.2,0.1c-1,0.1-2,0.3-3.1,0.6C59.9,24.5,58.9,24.8,57.8,25.2z"/>
				</g>
			</g>
		</g>
	</g>
	<g>
		<path class="st0" d="M291.4,13.9L291.4,13.9L291.4,13.9L291.4,13.9l2.2,1.5L291.4,13.9z"/>
		<path class="st0" d="M286.2,11.7c0,0.1,0,0.1,0,0.1c-1.8-0.5-3.6-0.8-5.5-1l0,0c-0.1,0-0.1,0-0.1-0.1s0-0.1,0.1-0.1
			C282.5,10.8,284.4,11.2,286.2,11.7L286.2,11.7z"/>
		<path class="st0" d="M275.3,10.6c0,0.1-0.1,0.2-0.2,0.2c-1.9,0.1-3.8,0.3-5.6,0.7l0,0c-0.2,0-0.3-0.1-0.3-0.2
			c0-0.2,0.1-0.3,0.2-0.3c1.8-0.3,3.7-0.5,5.6-0.6C275.1,10.4,275.2,10.5,275.3,10.6z"/>
		<path class="st0" d="M264.2,12.7c0,0.1-0.1,0.2-0.2,0.3c-1.7,0.6-3.4,1.4-5,2.4l0,0c-0.1,0.1-0.3,0-0.4-0.1
			c-0.1-0.1,0-0.3,0.1-0.4c1.7-1,3.4-1.8,5.2-2.4C264,12.4,264.2,12.5,264.2,12.7z"/>
		<path class="st0" d="M255,18.5c0.2,0.1,0.2,0.3,0.1,0.5c-1.2,1.5-1.9,3.2-1.8,5l0,0c0,0.2-0.2,0.4-0.4,0.4c-0.2,0-0.4-0.2-0.4-0.4
			c-0.1-2,0.7-3.9,1.9-5.4C254.5,18.4,254.7,18.4,255,18.5z"/>
		<path class="st0" d="M254.9,28.8c0.1-0.2,0.3-0.2,0.5-0.1c1.5,1,3.3,1.4,5.1,1.7l0,0c0.2,0.1,0.3,0.3,0.3,0.5
			c-0.1,0.2-0.3,0.3-0.5,0.3c-1.9-0.3-3.8-0.8-5.5-1.9C254.6,29.2,254.6,28.9,254.9,28.8z"/>
		<path class="st0" d="M265.3,30c-0.1-0.2-0.1-0.5,0.1-0.6c1.4-1.1,2.3-2.8,2.5-4.5l0,0c0.1-0.3,0.3-0.4,0.5-0.4
			c0.3,0.1,0.4,0.3,0.4,0.5c-0.2,2-1.3,3.8-2.9,5C265.7,30.1,265.4,30.1,265.3,30z"/>
		<path class="st0" d="M266.8,20c-0.2,0.1-0.4,0.1-0.6-0.1c-1.2-1.4-2.7-2.5-4.3-3.3l0,0c-0.2-0.1-0.3-0.4-0.2-0.6s0.4-0.3,0.6-0.2
			c1.8,0.9,3.4,2.1,4.6,3.6C267.1,19.6,267.1,19.9,266.8,20z"/>
		<path class="st0" d="M257.4,14.3c-0.1,0.3-0.4,0.4-0.6,0.3c-1.7-0.6-3.5-1.1-5.3-1.5l0,0c-0.3-0.1-0.5-0.3-0.4-0.6
			c0.1-0.3,0.3-0.5,0.6-0.4c1.9,0.4,3.7,0.9,5.5,1.6C257.4,13.8,257.5,14,257.4,14.3z"/>
		<path class="st0" d="M246.5,11.9c0,0.3-0.2,0.5-0.5,0.5c-1.8-0.1-3.7,0-5.5,0.3l0,0c-0.3,0.1-0.6-0.1-0.6-0.4
			c-0.1-0.3,0.1-0.6,0.4-0.6c1.9-0.3,3.8-0.4,5.7-0.3C246.3,11.4,246.5,11.6,246.5,11.9z"/>
		<path class="st0" d="M235.5,13.3c0,0.3-0.1,0.6-0.4,0.7c-1.8,0.6-3.5,1.3-5.2,2.1l0,0c-0.2,0.1-0.6,0-0.7-0.3
			c-0.1-0.2,0-0.6,0.3-0.7c1.7-0.8,3.5-1.5,5.3-2.1C235.1,12.9,235.4,13,235.5,13.3z"/>
		<path class="st0" d="M225.2,18.1c0.2,0.3,0.1,0.6-0.2,0.8c-1.6,0.9-3.1,2.1-4.6,3.1l0,0l0,0c-0.3,0.1-0.6,0.1-0.8-0.2
			c-0.1-0.3-0.1-0.6,0.2-0.8c1.6-1.1,3.1-2.2,4.7-3.2C224.7,17.6,225.1,17.7,225.2,18.1z"/>
		<path class="st0" d="M216.2,24.5c0.2,0.3,0.2,0.7-0.1,0.9l-4.4,3.5l0,0c-0.3,0.2-0.7,0.2-0.9-0.1s-0.2-0.7,0.1-0.9l4.4-3.5
			C215.6,24.2,215.9,24.2,216.2,24.5z"/>
		<path class="st0" d="M207.4,31.4c0.2,0.3,0.1,0.7-0.2,0.9c-1.6,1.1-3.2,2.1-4.9,3l0,0c-0.3,0.2-0.7,0-0.9-0.3
			c-0.2-0.3,0-0.7,0.3-0.9c1.6-0.9,3.2-1.8,4.7-2.9C206.7,31,207.1,31.1,207.4,31.4z"/>
		<path class="st0" d="M196.6,36.1c0.3-0.1,0.7,0.1,0.9,0.5c0.1,0.3-0.1,0.7-0.5,0.8c-1.8,0.5-3.8,0.8-5.7,0.9
			c-0.4,0-0.7-0.2-0.7-0.6s0.2-0.7,0.6-0.7C193,36.9,194.9,36.6,196.6,36.1L196.6,36.1z"/>
		<path class="st0" d="M185.7,36.7c0.4,0,0.6,0.4,0.5,0.8c0,0.3-0.4,0.6-0.7,0.5c-1.9-0.3-3.8-0.7-5.6-1.3c-0.3-0.1-0.5-0.5-0.4-0.8
			c0.1-0.3,0.5-0.5,0.8-0.4C182.1,36,183.9,36.4,185.7,36.7L185.7,36.7z"/>
		<path class="st0" d="M175.1,33.5c0.4,0.1,0.5,0.5,0.4,0.8s-0.5,0.4-0.8,0.3c-1.8-0.8-3.4-1.7-5-2.8c-0.3-0.2-0.4-0.5-0.2-0.8
			c0.2-0.3,0.5-0.4,0.8-0.2C171.8,31.8,173.4,32.7,175.1,33.5L175.1,33.5z"/>
		<path class="st0" d="M165.9,27.4c0.2,0.2,0.3,0.6,0,0.8c-0.2,0.2-0.6,0.2-0.8,0c-1.5-1.3-2.8-2.6-4-4.1c-0.2-0.3-0.1-0.6,0.1-0.8
			c0.3-0.2,0.6-0.1,0.8,0.1C163.2,24.9,164.5,26.2,165.9,27.4L165.9,27.4z"/>
		<path class="st0" d="M158.8,19L158.8,19c0.1,0.3,0,0.6-0.2,0.8c-0.2,0.2-0.6,0.1-0.7-0.2l-1.3-2.4c-0.1-0.3-0.1-0.5,0.1-0.7
			c0.2-0.2,0.5-0.1,0.7,0.1c0.6,0.7,1.2,1.5,1.6,2.3c0.2,0.3,0.1,0.6-0.2,0.7c-0.3,0.2-0.6,0.1-0.7-0.2c-0.4-0.8-0.9-1.5-1.5-2.1
			l0.9-0.6L158.8,19L158.8,19z"/>
		<path class="st0" d="M159.4,24.5c0-0.2,0.3-0.5,0.6-0.5s0.5,0.2,0.5,0.5c0,1.9-0.5,3.7-1.3,5.4l-0.1,0.1l-0.2,0.2
			c-0.2,0.2-0.5,0.2-0.7,0s-0.2-0.5,0-0.7l0.2-0.2l-0.1,0.1C159,27.9,159.4,26.2,159.4,24.5L159.4,24.5z"/>
		<path class="st0" d="M154,33.2c0.2-0.1,0.5,0,0.6,0.2c0.2,0.3,0.1,0.6-0.1,0.7c-1.6,1-3.3,1.9-5.1,2.6c-0.2,0-0.5-0.1-0.6-0.3
			c0-0.2,0.1-0.5,0.3-0.6C150.8,35.1,152.5,34.2,154,33.2L154,33.2z"/>
		<path class="st0" d="M143.7,37.3c0.3,0,0.5,0.1,0.6,0.3c0,0.2-0.2,0.5-0.4,0.5c-1.9,0.4-3.8,0.5-5.7,0.6c-0.2,0-0.4-0.2-0.4-0.4
			s0.2-0.4,0.4-0.4C140,37.8,141.9,37.6,143.7,37.3L143.7,37.3z"/>
		<path class="st0" d="M132.6,37.7L132.6,37.7c0.3,0.1,0.4,0.3,0.4,0.4c-0.1,0.2-0.3,0.3-0.5,0.3l-5.6-0.8c-0.2,0-0.3-0.2-0.3-0.4
			s0.2-0.3,0.4-0.3l0,0L132.6,37.7L132.6,37.7z"/>
		<path class="st0" d="M121.6,35.7L121.6,35.7c0.2,0,0.3,0.2,0.3,0.5c-0.1,0.2-0.3,0.3-0.5,0.2c-1.8-0.6-3.6-1.1-5.4-1.8
			c-0.2-0.1-0.3-0.3-0.2-0.5s0.3-0.3,0.5-0.2C118,34.6,119.8,35.1,121.6,35.7L121.6,35.7z"/>
		<path class="st0" d="M111,31.9c0.2,0.1,0.2,0.2,0.1,0.5c0,0.2-0.2,0.3-0.4,0.2l-5.2-2.2c-0.1-0.1-0.2-0.3-0.1-0.4
			c0.1-0.2,0.3-0.3,0.4-0.2L111,31.9L111,31.9z"/>
		<path class="st0" d="M100.5,27.7c0.1,0.1,0.2,0.2,0.2,0.3c-0.1,0.1-0.2,0.1-0.3,0.1l-5.3-2C95,26.1,95,26,95,25.9s0.1-0.1,0.2-0.1
			L100.5,27.7L100.5,27.7z"/>
		<path class="st0" d="M89.7,24.3c0.1,0,0.1,0,0.2,0.2c-0.1,0.1-0.1,0.1-0.2,0.1l-5.5-1.2c-0.1,0-0.1-0.1-0.1-0.1
			c0-0.1,0.1-0.1,0.1-0.1L89.7,24.3L89.7,24.3z"/>
		<path class="st0" d="M78.6,22.6C78.6,22.7,78.6,22.7,78.6,22.6C78.6,22.7,78.6,22.7,78.6,22.6h-2.7H78.6L78.6,22.6z"/>
	</g>
</g>
</svg>
