<?xml version="1.0" encoding="utf-8"?>
<!-- Generator: Adobe Illustrator 24.0.2, SVG Export Plug-In . SVG Version: 6.00 Build 0)  -->
<svg version="1.1" id="Capa_1" xmlns="http://www.w3.org/2000/svg" xmlns:xlink="http://www.w3.org/1999/xlink" x="0px" y="0px"
	 viewBox="0 0 180.6 45.9" style="enable-background:new 0 0 180.6 45.9;" xml:space="preserve">
<style type="text/css">
	.st0{fill:url(#SVGID_1_);}
	.st1{fill:url(#SVGID_2_);}
	.st2{fill:url(#SVGID_3_);}
	.st3{fill:url(#SVGID_4_);}
	.st4{fill:url(#SVGID_5_);}
	.st5{fill:url(#SVGID_6_);}
	.st6{fill:url(#SVGID_7_);}
	.st7{fill:url(#SVGID_8_);}
	.st8{fill:url(#SVGID_9_);}
	.st9{fill:url(#SVGID_10_);}
</style>
<g>
	<g>
		
			<linearGradient id="SVGID_1_" gradientUnits="userSpaceOnUse" x1="89.45" y1="30.437" x2="89.45" y2="21.1045" gradientTransform="matrix(1 0 0 -1 0 48)">
			<stop  offset="0" style="stop-color:#273777"/>
			<stop  offset="0.5275" style="stop-color:#222F58"/>
			<stop  offset="1" style="stop-color:#16243D"/>
		</linearGradient>
		<path class="st0" d="M92.4,17.6c-2.1,0-4.2,0-6.3,0c-1.1,0-1.6,0.5-1.7,1.6c0,2.1,0,4.1,0,6.2c0,1.1,0.5,1.5,1.6,1.6
			c1.1,0,2.3,0,3.4,0c1.2,0,2.3,0,3.5,0c0.8,0,1.3-0.4,1.5-1.2c0-0.2,0.1-0.4,0.1-0.7c0-1.8,0-3.7,0-5.5
			C94.3,18,93.9,17.6,92.4,17.6z M92.4,25.1c-2.1,0-4.1,0-6.1,0c0-2,0-3.9,0-5.8c2.1,0,4.1,0,6.1,0C92.4,21.2,92.4,23.1,92.4,25.1z"
			/>
		
			<linearGradient id="SVGID_2_" gradientUnits="userSpaceOnUse" x1="103.35" y1="30.4339" x2="103.35" y2="20.9174" gradientTransform="matrix(1 0 0 -1 0 48)">
			<stop  offset="0" style="stop-color:#273777"/>
			<stop  offset="0.5275" style="stop-color:#222F58"/>
			<stop  offset="1" style="stop-color:#16243D"/>
		</linearGradient>
		<path class="st1" d="M105.5,23.5c1.2,0,1.8-0.6,1.8-1.8c0-0.8,0-1.6,0-2.3c0-1.2-0.6-1.8-1.8-1.8c-2.2,0-4.5,0-6.7,0
			c-0.1,0-0.3,0-0.4,0c0,3.2,0,6.3,0,9.5c0.6,0,1.3,0,1.9,0c0-1.2,0-2.3,0-3.5c0.6,0,1.1,0,1.7,0c0.1,0,0.2,0.1,0.3,0.2
			c0.8,0.9,1.6,1.7,2.4,2.6c0.5,0.6,1.1,0.9,1.9,0.8c0.5-0.1,1,0,1.7,0c-1.3-1.2-2.5-2.4-3.8-3.6C104.8,23.5,105.2,23.5,105.5,23.5z
			 M100.3,21.8c0-0.9,0-1.7,0-2.6c3,0,3,0,4.3,0c0.6,0,0.8,0.2,0.8,0.8c0,0.4,0,0.8,0,1.2c0,0.4-0.2,0.6-0.6,0.6
			C103.2,21.8,101.8,21.8,100.3,21.8z"/>
		
			<linearGradient id="SVGID_3_" gradientUnits="userSpaceOnUse" x1="65.8375" y1="30.4403" x2="65.8375" y2="20.967" gradientTransform="matrix(1 0 0 -1 0 48)">
			<stop  offset="0" style="stop-color:#273777"/>
			<stop  offset="0.5275" style="stop-color:#222F58"/>
			<stop  offset="1" style="stop-color:#16243D"/>
		</linearGradient>
		<path class="st2" d="M69.2,21.3c-0.2,0-0.4-0.1-0.6-0.1c-1.5,0-3,0-4.5,0c-0.3,0-0.5,0-0.8,0c0-0.7,0-1.3,0-2c1.8,0,3.5,0,5.3,0
			c0,0.4,0,0.7,0,1.1c0.4-0.1,0.7-0.2,1-0.3c0.8-0.2,0.8-0.2,0.7-1c-0.1-0.9-0.6-1.5-1.5-1.5c-1.9,0-3.8,0-5.7,0
			c-0.8,0-1.3,0.4-1.4,1.2c-0.1,1-0.1,2.1,0,3.2c0,0.6,0.5,1,1.1,1.1c0.3,0,0.5,0.1,0.8,0.1c1.6,0,3.2,0,4.7,0c0.1,0,0.3,0,0.4,0
			c0,0.7,0,1.4,0,2.1c-1.9,0-3.8,0-5.8,0c0-0.4,0-0.7,0-1.1c-0.6,0.1-1.2,0.3-1.7,0.4c0,0.2,0,0.5,0,0.7s0,0.3,0.1,0.5
			c0.1,0.8,0.6,1.3,1.4,1.3c2.1,0,4.2,0,6.3,0c0.8,0,1.3-0.5,1.4-1.3c0.1-1.1,0.1-2.1,0-3.2C70.3,21.8,69.9,21.5,69.2,21.3z"/>
		
			<linearGradient id="SVGID_4_" gradientUnits="userSpaceOnUse" x1="116.25" y1="30.4396" x2="116.25" y2="21.1087" gradientTransform="matrix(1 0 0 -1 0 48)">
			<stop  offset="0" style="stop-color:#273777"/>
			<stop  offset="0.5275" style="stop-color:#222F58"/>
			<stop  offset="1" style="stop-color:#16243D"/>
		</linearGradient>
		<path class="st3" d="M120.2,17.6c-0.1,0-0.3,0.1-0.3,0.2c-0.8,1.2-1.6,2.4-2.4,3.5c-0.4,0.6-0.8,1.2-1.2,1.8
			c-0.1-0.1-0.2-0.2-0.2-0.3c-1.1-1.7-2.3-3.4-3.4-5.1c-0.1-0.1-0.2-0.2-0.3-0.2c-0.5,0-0.9,0-1.4,0c0,3.1,0,6.2,0,9.3
			c0.5,0,1,0,1.5,0c0-2.2,0-4.3,0-6.5c0.2,0.3,0.3,0.5,0.4,0.7c0.9,1.5,1.9,2.9,2.8,4.4c0.3,0.4,0.5,0.4,0.8,0
			c1.1-1.7,2.2-3.3,3.3-5c0,2.1,0,4.2,0,6.4c0.6,0,1.2,0,1.7,0c0-3.1,0-6.2,0-9.3C121,17.6,120.6,17.6,120.2,17.6z"/>
		
			<linearGradient id="SVGID_5_" gradientUnits="userSpaceOnUse" x1="77.4" y1="30.41" x2="77.4" y2="21.11" gradientTransform="matrix(1 0 0 -1 0 48)">
			<stop  offset="0" style="stop-color:#273777"/>
			<stop  offset="0.5275" style="stop-color:#222F58"/>
			<stop  offset="1" style="stop-color:#16243D"/>
		</linearGradient>
		<path class="st4" d="M72.8,18.9c0,0.3,0.1,0.3,0.3,0.3c1,0,2,0,3,0c0.1,0,0.2,0,0.4,0c0,2.6,0,5.1,0,7.6c0.6,0,1.3,0,1.9,0
			c0-2.6,0-5.1,0-7.6c1.2,0,2.5,0,3.7,0c0-0.6,0-1.1,0-1.7c-3.1,0-6.2,0-9.4,0C72.8,18.1,72.9,18.5,72.8,18.9z"/>
		
			<linearGradient id="SVGID_6_" gradientUnits="userSpaceOnUse" x1="165.25" y1="30.7" x2="165.25" y2="20.7103" gradientTransform="matrix(1 0 0 -1 0 48)">
			<stop  offset="0" style="stop-color:#8A8A8A"/>
			<stop  offset="1" style="stop-color:#686868"/>
		</linearGradient>
		<path class="st5" d="M168.4,17.3c0,1.4,0,2.7,0,4.1c-2.2,0-4.3,0-6.4,0c0-1.4,0-2.7,0-4.1c-0.5,0-0.9,0-1.4,0c0,3.3,0,6.7,0,10
			c0.5,0,0.9,0,1.4,0c0-1.5,0-3,0-4.5c2.2,0,4.3,0,6.5,0c0,1.5,0,3,0,4.5c0.5,0,0.9,0,1.4,0c0-3.3,0-6.7,0-10
			C169.4,17.3,168.9,17.3,168.4,17.3z"/>
		
			<linearGradient id="SVGID_7_" gradientUnits="userSpaceOnUse" x1="151.8722" y1="30.7234" x2="151.8722" y2="20.6869" gradientTransform="matrix(1 0 0 -1 0 48)">
			<stop  offset="0" style="stop-color:#8A8A8A"/>
			<stop  offset="1" style="stop-color:#686868"/>
		</linearGradient>
		<path class="st6" d="M156,24c-0.4-0.1-0.8-0.2-1.3-0.3c0,0.8,0,1.5,0,2.2c-1.9,0-3.8,0-5.6,0c0-2.4,0-4.8,0-7.2c1.9,0,3.7,0,5.6,0
			c0,0.6,0,1.3,0,1.9c0.5-0.1,0.9-0.2,1.4-0.3c0-0.5,0-1,0-1.5c0-1-0.5-1.5-1.5-1.5c-1.8,0-3.6,0-5.5,0c-1,0-1.4,0.5-1.5,1.5
			c0,0.1,0,0.1,0,0.2c0,2,0,4,0,6c0,0.4,0,0.9,0.1,1.3c0.1,0.6,0.4,0.9,1,1c0.2,0,0.3,0.1,0.5,0.1c1.8,0,3.6,0,5.4,0
			c0.9,0,1.4-0.3,1.5-1.2c0.1-0.6,0-1.2,0-1.9C156.1,24.1,156,24,156,24z"/>
		
			<linearGradient id="SVGID_8_" gradientUnits="userSpaceOnUse" x1="139.75" y1="30.6881" x2="139.75" y2="20.7105" gradientTransform="matrix(1 0 0 -1 0 48)">
			<stop  offset="0" style="stop-color:#8A8A8A"/>
			<stop  offset="1" style="stop-color:#686868"/>
		</linearGradient>
		<path class="st7" d="M137.2,22.7c1.3,0,2.5,0,3.8,0c0-0.4,0-0.8,0-1.2c-1.3,0-2.5,0-3.8,0c0-1,0-1.9,0-2.9c2.2,0,4.3,0,6.5,0
			c0-0.4,0-0.8,0-1.2c-2.6,0-5.3,0-7.9,0c0,3.3,0,6.7,0,10c2.7,0,5.3,0,7.9,0c0-0.5,0-0.9,0-1.4c-2.2,0-4.4,0-6.5,0
			C137.2,24.8,137.2,23.8,137.2,22.7z"/>
		
			<linearGradient id="SVGID_9_" gradientUnits="userSpaceOnUse" x1="128.45" y1="30.7" x2="128.45" y2="20.7124" gradientTransform="matrix(1 0 0 -1 0 48)">
			<stop  offset="0" style="stop-color:#8A8A8A"/>
			<stop  offset="1" style="stop-color:#686868"/>
		</linearGradient>
		<path class="st8" d="M124,18.6c1.2,0,2.5,0,3.7,0c0,2.9,0,5.8,0,8.7c0.5,0,0.9,0,1.4,0c0-2.9,0-5.8,0-8.7c1.3,0,2.5,0,3.8,0
			c0-0.5,0-0.9,0-1.3c-3,0-6,0-8.9,0C124,17.8,124,18.2,124,18.6z"/>
	</g>
	
		<linearGradient id="SVGID_10_" gradientUnits="userSpaceOnUse" x1="10.686" y1="25.0903" x2="53.5192" y2="25.0903" gradientTransform="matrix(1 0 0 -1 0 48)">
		<stop  offset="0" style="stop-color:#273777"/>
		<stop  offset="0.5275" style="stop-color:#222F58"/>
		<stop  offset="1" style="stop-color:#16243D"/>
	</linearGradient>
	<path class="st9" d="M51.3,15.7c-1.7-1.9-3.8-2.9-6.4-2.9c-0.6,0-1.2,0.1-1.8,0.1c-0.3,0-0.4-0.1-0.5-0.4c-0.1-0.3-0.1-0.6-0.2-0.9
		c-0.9-3.4-2.8-5.9-5.9-7.6c-2.1-1.1-4.3-1.5-6.6-1.2c-1.4,0.2-2.7,0.6-4,1.2c-0.1,0-0.2,0-0.3,0c-0.5-0.3-1-0.4-1.6-0.3
		c-1.3,0.2-2.2,1.6-1.9,2.9c0.3,1.1,1.4,2,2.7,1.8C26,8.2,27,6.9,26.7,5.7c0-0.2,0-0.2,0.1-0.3c1.1-0.5,2.3-0.8,3.5-0.9
		c1-0.1,2,0,3,0.2C37.6,5.6,41,9.6,41,14c0,0.2,0.1,0.5,0.2,0.7c0.3,0.4,0.6,0.4,1.1,0.2c1.3-0.5,2.6-0.6,3.9-0.3
		c3.9,0.8,6.4,4.6,5.4,8.5c-0.8,3.1-3.5,5.3-6.7,5.4c-2.7,0-5.5,0-8.2,0c-0.2,0-0.3,0-0.4,0.2c-1.4,1.7-2.8,3.5-4.2,5.2
		c-1.6,1.9-3.2,3.9-4.7,5.8c-0.4,0.4-0.7,0.9-1.1,1.3c-0.2,0.3-0.5,0.4-0.9,0.4c-0.4-0.1-0.7-0.5-0.5-1.1c0.7-2.1,1.4-4.3,2.1-6.4
		c0-0.1,0.1-0.2,0.2-0.2c0.3,0,0.5,0,0.8,0c0.5-0.1,0.8-0.4,0.7-0.9c0-0.5-0.3-0.8-0.8-0.8c-0.9,0-1.8,0-2.7,0c-0.1,0-0.2,0-0.4,0
		c-0.3-0.1-0.5-0.2-0.4-0.6c0.2-0.9,0.4-1.7,0.6-2.6c0-0.1,0-0.1,0-0.2c-1.1,0-2.2,0-3.3,0c-0.7,0-1.5-0.1-2.2-0.2
		c-1.9-0.4-3.5-1.3-4.8-2.8c-1.5-1.8-2.3-3.8-2.2-6.2c0-0.6,0.1-1.2,0.2-1.7c0.8-2.9,2.5-4.9,5.3-6.1c0.5-0.2,1-0.3,1.5-0.4
		c0.2,0,0.4,0,0.4,0.3c0,0.2-0.1,0.4-0.3,0.5c-0.2,0.1-0.4,0.1-0.6,0.2c-4.3,1.2-6.7,5.5-5.6,9.8c1,3.5,4,5.7,7.6,5.8
		c0.7,0,1.4,0,2.1,0s1.3,0,2,0c0.3-1,0.5-2,0.8-3.1c0.5-1.9,0.9-3.8,1.4-5.7c0.1-0.4,0.2-0.5,0.6-0.5c3.3,0,6.7,0,10,0
		c0.1,0,0.2,0,0.3,0c0.3,0,0.4,0.3,0.3,0.5c0,0.1-0.1,0.2-0.2,0.4c-0.4,0.7-0.8,1.4-1.2,2.1c-0.5,0.8-1,1.7-1.4,2.5
		c-0.1,0.2-0.2,0.3-0.5,0.3c-0.2,0-0.5,0-0.7,0c-0.6,0-1,0.4-1,0.9c0,0.4,0.3,1,1,0.9c0.8,0,1.7,0,2.5,0c0.2,0,0.4,0,0.5,0.2
		s0,0.3-0.1,0.5c-0.2,0.3-0.4,0.5-0.6,0.8c0.1,0,0.2,0,0.2,0c2.4,0,4.7,0,7.1,0c0.7,0,1.4-0.1,2.1-0.2c3-0.7,5-3.7,4.6-6.8
		c-0.2-1.7-1-3-2.3-4.1c-0.4-0.3-0.9-0.6-1.4-0.5c-0.6,0.1-1.1,0.4-1.4,1c-0.3,0.6-0.6,1.3-0.9,1.9c0,0.1-0.2,0.2-0.2,0.2
		c-1.4,0-2.4,1.1-2.3,2.5c0,1.4,1.4,2.5,2.8,2.2c1.8-0.4,2.6-2.5,1.4-3.9c-0.1-0.1-0.1-0.2,0-0.3c0.2-0.4,0.4-0.8,0.6-1.3
		c0.2-0.4,0.4-0.5,0.7-0.1c0.1,0.1,0.1,0.1,0.2,0.2c1.3,1.5,1.6,3.1,0.8,4.9c-0.7,1.7-2,2.6-3.8,2.7s-3.6,0-5.4,0
		c-0.1,0-0.2,0-0.3-0.2c-0.1-0.4-0.3-0.8-0.7-1c-0.3-0.2-0.6-0.3-1-0.4c0.2-0.3,0.3-0.6,0.5-0.9c0.7-1.2,1.4-2.3,2-3.5
		c0.9-1.6-0.3-3.3-2-3.3c-3.4,0-6.8,0-10.2,0c-1.1,0-1.9,0.6-2.2,1.7c-0.6,2.5-1.2,5-1.9,7.5c-0.8,0-1.6,0-2.5,0
		c-0.4,0-0.8,0-1.3-0.1c-1.1-0.2-2.1-0.6-3-1.4c-1.8-1.6-2.6-3.7-2-6.1c0.6-2.6,2.3-4.2,5-4.8c0.8-0.2,1.3-0.6,1.5-1.4
		c0.1-0.3,0.1-0.5,0.2-0.7c0.2-1.1-0.3-1.9-1.3-2.1c-0.4-0.1-0.9,0-1.4,0.1c-2.6,0.6-4.7,1.8-6.3,3.9c-1.2,1.6-1.9,3.5-2.1,5.5
		c-0.1,0.9,0,1.8,0.1,2.7c0.3,2,1.2,3.7,2.5,5.2c0.9,1,2,1.8,3.2,2.4c1,0.5,2.1,0.9,3.2,1c0.9,0.1,1.8,0.1,2.7,0.1
		c0.1,0,0.2,0,0.3,0c-0.2,0.8-0.4,1.6,0.1,2.4c0.5,0.8,1.3,1,2.2,1v0.1c-0.6,1.9-1.2,3.7-1.8,5.6c-0.2,0.6-0.4,1.2-0.2,1.8
		c0.2,1,0.8,1.7,1.8,1.9c1,0.3,1.8,0,2.5-0.7c0.5-0.5,0.9-1.1,1.4-1.6c1.4-1.7,2.8-3.5,4.3-5.2c1.3-1.7,2.7-3.3,4-5
		c0.1-0.2,0.3-0.3,0.5-0.3c2.5,0,5.1,0,7.6,0c0.6,0,1.2-0.1,1.7-0.2c1.9-0.4,3.5-1.5,4.7-3c1.6-2,2.2-4.4,1.8-6.9
		C53.1,18.4,52.4,16.9,51.3,15.7z M24.4,6.7c-0.4,0-0.7-0.3-0.7-0.7c0-0.4,0.3-0.6,0.6-0.7c0.4,0,0.7,0.3,0.7,0.6
		C25.1,6.4,24.8,6.7,24.4,6.7z M44.7,22.1c-0.4,0-0.7-0.3-0.7-0.7c0-0.3,0.3-0.6,0.7-0.6s0.7,0.3,0.7,0.7
		C45.4,21.9,45.1,22.1,44.7,22.1z"/>
</g>
</svg>
