<?xml version="1.0" encoding="utf-8"?>
<!-- Generator: Adobe Illustrator 21.0.0, SVG Export Plug-In . SVG Version: 6.00 Build 0)  -->
<svg version="1.1" id="Capa_1" xmlns="http://www.w3.org/2000/svg" xmlns:xlink="http://www.w3.org/1999/xlink" x="0px" y="0px"
	 viewBox="0 0 100.2 67.8" style="enable-background:new 0 0 100.2 67.8;" xml:space="preserve">
<style type="text/css">
	.st0{fill:#FAFAFA;}
</style>
<g>
	<path class="st0" d="M34.5,55.1c-1.5,0-3,0-4.5,0c-0.8,0-1.1,0.4-1.2,1.1c0,1.5,0,2.9,0,4.5c0,0.8,0.4,1.1,1.1,1.1
		c0.8,0,1.7,0,2.4,0c0.9,0,1.7,0,2.5,0c0.6,0,0.9-0.3,1.1-0.9c0-0.1,0.1-0.3,0.1-0.5c0-1.3,0-2.7,0-3.9
		C35.9,55.4,35.6,55.1,34.5,55.1z M34.5,60.5c-1.5,0-2.9,0-4.4,0c0-1.4,0-2.8,0-4.2c1.5,0,2.9,0,4.4,0
		C34.5,57.7,34.5,59.1,34.5,60.5z"/>
	<path class="st0" d="M43.9,59.4c0.9,0,1.3-0.4,1.3-1.3c0-0.6,0-1.1,0-1.7c0-0.9-0.4-1.3-1.3-1.3c-1.6,0-3.2,0-4.8,0
		c-0.1,0-0.2,0-0.3,0c0,2.3,0,4.5,0,6.8c0.4,0,0.9,0,1.4,0c0-0.9,0-1.7,0-2.5c0.4,0,0.8,0,1.2,0c0.1,0,0.1,0.1,0.2,0.1
		c0.6,0.6,1.1,1.2,1.7,1.9c0.4,0.4,0.8,0.6,1.4,0.6c0.4-0.1,0.7,0,1.2,0c-0.9-0.9-1.8-1.7-2.7-2.6C43.4,59.4,43.7,59.4,43.9,59.4z
		 M40.2,58.2c0-0.6,0-1.2,0-1.9c2.2,0,2.2,0,3.1,0c0.4,0,0.6,0.1,0.6,0.6c0,0.3,0,0.6,0,0.9c0,0.3-0.1,0.4-0.4,0.4
		C42.3,58.2,41.3,58.2,40.2,58.2z"/>
	<path class="st0" d="M17.8,57.8c-0.1,0-0.3-0.1-0.4-0.1c-1.1,0-2.2,0-3.2,0c-0.2,0-0.4,0-0.6,0c0-0.5,0-0.9,0-1.4
		c1.3,0,2.5,0,3.8,0c0,0.3,0,0.5,0,0.8c0.3-0.1,0.5-0.1,0.7-0.2c0.6-0.1,0.6-0.1,0.5-0.7c-0.1-0.6-0.4-1.1-1.1-1.1
		c-1.4,0-2.7,0-4.1,0c-0.6,0-0.9,0.3-1,0.9c-0.1,0.7-0.1,1.5,0,2.3c0,0.4,0.4,0.7,0.8,0.8c0.2,0,0.4,0.1,0.6,0.1c1.1,0,2.3,0,3.4,0
		c0.1,0,0.2,0,0.3,0c0,0.5,0,1,0,1.5c-1.4,0-2.7,0-4.2,0c0-0.3,0-0.5,0-0.8c-0.4,0.1-0.9,0.2-1.2,0.3c0,0.1,0,0.4,0,0.5
		s0,0.2,0.1,0.4c0.1,0.6,0.4,0.9,1,0.9c1.5,0,3,0,4.5,0c0.6,0,0.9-0.4,1-0.9c0.1-0.8,0.1-1.5,0-2.3C18.6,58.2,18.4,57.9,17.8,57.8z"
		/>
	<path class="st0" d="M54.5,55.1c-0.1,0-0.2,0.1-0.2,0.1c-0.6,0.9-1.1,1.7-1.7,2.5c-0.3,0.4-0.6,0.9-0.9,1.3
		c-0.1-0.1-0.1-0.1-0.1-0.2c-0.8-1.2-1.7-2.4-2.4-3.7c-0.1-0.1-0.1-0.1-0.2-0.1c-0.4,0-0.6,0-1,0c0,2.2,0,4.5,0,6.7
		c0.4,0,0.7,0,1.1,0c0-1.6,0-3.1,0-4.7c0.1,0.2,0.2,0.4,0.3,0.5c0.6,1.1,1.4,2.1,2,3.2c0.2,0.3,0.4,0.3,0.6,0
		c0.8-1.2,1.6-2.4,2.4-3.6c0,1.5,0,3,0,4.6c0.4,0,0.9,0,1.2,0c0-2.2,0-4.5,0-6.7C55,55.1,54.8,55.1,54.5,55.1z"/>
	<path class="st0" d="M20.4,56.1c0,0.2,0.1,0.2,0.2,0.2c0.7,0,1.4,0,2.2,0c0.1,0,0.1,0,0.3,0c0,1.9,0,3.7,0,5.5c0.4,0,0.9,0,1.4,0
		c0-1.9,0-3.7,0-5.5c0.9,0,1.8,0,2.7,0c0-0.4,0-0.8,0-1.2c-2.2,0-4.5,0-6.7,0C20.4,55.5,20.5,55.8,20.4,56.1z"/>
	<path class="st0" d="M89.1,54.9c0,1,0,1.9,0,2.9c-1.6,0-3.1,0-4.6,0c0-1,0-1.9,0-2.9c-0.4,0-0.6,0-1,0c0,2.4,0,4.8,0,7.2
		c0.4,0,0.6,0,1,0c0-1.1,0-2.2,0-3.2c1.6,0,3.1,0,4.7,0c0,1.1,0,2.2,0,3.2c0.4,0,0.6,0,1,0c0-2.4,0-4.8,0-7.2
		C89.8,54.9,89.4,54.9,89.1,54.9z"/>
	<path class="st0" d="M80.2,59.7c-0.3-0.1-0.6-0.1-0.9-0.2c0,0.6,0,1.1,0,1.6c-1.4,0-2.7,0-4,0c0-1.7,0-3.4,0-5.2c1.4,0,2.7,0,4,0
		c0,0.4,0,0.9,0,1.4c0.4-0.1,0.6-0.1,1-0.2c0-0.4,0-0.7,0-1.1c0-0.7-0.4-1.1-1.1-1.1c-1.3,0-2.6,0-3.9,0c-0.7,0-1,0.4-1.1,1.1
		c0,0.1,0,0.1,0,0.1c0,1.4,0,2.9,0,4.3c0,0.3,0,0.6,0.1,0.9c0.1,0.4,0.3,0.6,0.7,0.7c0.1,0,0.2,0.1,0.4,0.1c1.3,0,2.6,0,3.9,0
		c0.6,0,1-0.2,1.1-0.9c0.1-0.4,0-0.9,0-1.4C80.2,59.8,80.2,59.7,80.2,59.7z"/>
	<path class="st0" d="M66.7,58.8c0.9,0,1.8,0,2.7,0c0-0.3,0-0.6,0-0.9c-0.9,0-1.8,0-2.7,0c0-0.7,0-1.4,0-2.1c1.6,0,3.1,0,4.7,0
		c0-0.3,0-0.6,0-0.9c-1.9,0-3.8,0-5.7,0c0,2.4,0,4.8,0,7.2c1.9,0,3.8,0,5.7,0c0-0.4,0-0.6,0-1c-1.6,0-3.2,0-4.7,0
		C66.7,60.3,66.7,59.6,66.7,58.8z"/>
	<path class="st0" d="M57.2,55.9c0.9,0,1.8,0,2.7,0c0,2.1,0,4.2,0,6.2c0.4,0,0.6,0,1,0c0-2.1,0-4.2,0-6.2c0.9,0,1.8,0,2.7,0
		c0-0.4,0-0.6,0-0.9c-2.2,0-4.3,0-6.4,0C57.2,55.3,57.2,55.6,57.2,55.9z"/>
</g>
<path class="st0" d="M70.8,19.1c-1.8-2-3.9-3-6.6-3c-0.6,0-1.2,0.1-1.9,0.1c-0.3,0-0.4-0.1-0.5-0.4c-0.1-0.3-0.1-0.6-0.2-0.9
	c-0.9-3.5-2.9-6.1-6.1-7.9c-2.2-1.1-4.5-1.6-6.8-1.2C47.1,6,45.8,6.4,44.4,7c-0.1,0-0.2,0-0.3,0c-0.5-0.3-1-0.4-1.7-0.3
	c-1.3,0.2-2.3,1.7-2,3c0.3,1.1,1.5,2.1,2.8,1.9c1.2-0.2,2.3-1.6,2-2.8c0-0.2,0-0.2,0.1-0.3c1.1-0.5,2.4-0.8,3.6-0.9
	c1-0.1,2.1,0,3.1,0.2c4.5,0.9,8,5.1,8,9.6c0,0.2,0.1,0.5,0.2,0.7c0.3,0.4,0.6,0.4,1.1,0.2c1.3-0.5,2.7-0.6,4-0.3
	c4,0.8,6.6,4.8,5.6,8.8c-0.8,3.2-3.6,5.5-6.9,5.6c-2.8,0-5.7,0-8.5,0c-0.2,0-0.3,0-0.4,0.2c-1.5,1.8-2.9,3.6-4.4,5.4
	c-1.7,2-3.3,4-4.9,6c-0.4,0.4-0.7,0.9-1.1,1.3c-0.2,0.3-0.5,0.4-0.9,0.4c-0.4-0.1-0.7-0.5-0.5-1.1c0.7-2.2,1.5-4.5,2.2-6.6
	c0-0.1,0.1-0.2,0.2-0.2c0.3,0,0.5,0,0.8,0c0.5-0.1,0.8-0.4,0.7-0.9c0-0.5-0.3-0.8-0.8-0.8c-0.9,0-1.9,0-2.8,0c-0.1,0-0.2,0-0.4,0
	c-0.3-0.1-0.5-0.2-0.4-0.6c0.2-0.9,0.4-1.8,0.6-2.7c0-0.1,0-0.1,0-0.2c-1.1,0-2.3,0-3.4,0c-0.7,0-1.6-0.1-2.3-0.2
	c-2-0.4-3.6-1.3-5-2.9c-1.6-1.9-2.4-3.9-2.3-6.4c0-0.6,0.1-1.2,0.2-1.8c0.8-3,2.6-5.1,5.5-6.3c0.5-0.2,1-0.3,1.6-0.4
	c0.2,0,0.4,0,0.4,0.3c0,0.2-0.1,0.4-0.3,0.5c-0.2,0.1-0.4,0.1-0.6,0.2c-4.5,1.2-6.9,5.7-5.8,10.2c1,3.6,4.1,5.9,7.9,6
	c0.7,0,1.5,0,2.2,0c0.7,0,1.3,0,2.1,0c0.3-1,0.5-2.1,0.8-3.2c0.5-2,0.9-3.9,1.5-5.9c0.1-0.4,0.2-0.5,0.6-0.5c3.4,0,6.9,0,10.4,0
	c0.1,0,0.2,0,0.3,0c0.3,0,0.4,0.3,0.3,0.5c0,0.1-0.1,0.2-0.2,0.4c-0.4,0.7-0.8,1.5-1.2,2.2c-0.5,0.8-1,1.8-1.5,2.6
	c-0.1,0.2-0.2,0.3-0.5,0.3c-0.2,0-0.5,0-0.7,0c-0.6,0-1,0.4-1,0.9c0,0.4,0.3,1,1,0.9c0.8,0,1.8,0,2.6,0c0.2,0,0.4,0,0.5,0.2
	c0.1,0.2,0,0.3-0.1,0.5c-0.2,0.3-0.4,0.5-0.6,0.8c0.1,0,0.2,0,0.2,0c2.5,0,4.9,0,7.4,0c0.7,0,1.5-0.1,2.2-0.2c3.1-0.7,5.2-3.8,4.8-7
	c-0.2-1.8-1-3.1-2.4-4.2c-0.4-0.3-0.9-0.6-1.5-0.5c-0.6,0.1-1.1,0.4-1.5,1s-0.6,1.3-0.9,2c0,0.1-0.2,0.2-0.2,0.2
	c-1.5,0-2.5,1.1-2.4,2.6c0,1.5,1.5,2.6,2.9,2.3c1.9-0.4,2.7-2.6,1.5-4c-0.1-0.1-0.1-0.2,0-0.3c0.2-0.4,0.4-0.8,0.6-1.3
	c0.2-0.4,0.4-0.5,0.7-0.1c0.1,0.1,0.1,0.1,0.2,0.2c1.3,1.6,1.7,3.2,0.8,5.1c-0.7,1.8-2.1,2.7-3.9,2.8c-1.9,0.1-3.7,0-5.6,0
	c-0.1,0-0.2,0-0.3-0.2c-0.1-0.4-0.3-0.8-0.7-1c-0.3-0.2-0.6-0.3-1-0.4c0.2-0.3,0.3-0.6,0.5-0.9c0.7-1.2,1.5-2.4,2.1-3.6
	c0.9-1.7-0.3-3.4-2.1-3.4c-3.5,0-7,0-10.6,0c-1.1,0-2,0.6-2.3,1.8c-0.6,2.6-1.2,5.2-2,7.8c-0.8,0-1.7,0-2.6,0c-0.4,0-0.8,0-1.3-0.1
	c-1.1-0.2-2.2-0.6-3.1-1.5c-1.9-1.7-2.7-3.8-2.1-6.3c0.6-2.7,2.4-4.4,5.2-5c0.8-0.2,1.3-0.6,1.6-1.5c0.1-0.3,0.1-0.5,0.2-0.7
	c0.2-1.1-0.3-2-1.3-2.2c-0.4-0.1-0.9,0-1.5,0.1c-2.7,0.6-4.9,1.9-6.5,4c-1.2,1.7-2,3.6-2.2,5.7c-0.1,0.9,0,1.9,0.1,2.8
	c0.3,2.1,1.2,3.8,2.6,5.4c0.9,1,2.1,1.9,3.3,2.5c1,0.5,2.2,0.9,3.3,1c0.9,0.1,1.9,0.1,2.8,0.1c0.1,0,0.2,0,0.3,0
	c-0.2,0.8-0.4,1.7,0.1,2.5c0.5,0.8,1.3,1,2.3,1v0.1c-0.6,2-1.2,3.8-1.9,5.8c-0.2,0.6-0.4,1.2-0.2,1.9c0.2,1,0.8,1.8,1.9,2
	c1,0.3,1.9,0,2.6-0.7c0.5-0.5,0.9-1.1,1.5-1.7c1.5-1.8,2.9-3.6,4.5-5.4c1.3-1.8,2.8-3.4,4.1-5.2c0.1-0.2,0.3-0.3,0.5-0.3
	c2.6,0,5.3,0,7.9,0c0.6,0,1.2-0.1,1.8-0.2c2-0.4,3.6-1.6,4.9-3.1c1.7-2.1,2.3-4.6,1.9-7.1C72.6,21.9,71.9,20.4,70.8,19.1z M42.9,9.8
	c-0.4,0-0.7-0.3-0.7-0.7c0-0.4,0.3-0.6,0.6-0.7c0.4,0,0.7,0.3,0.7,0.6C43.6,9.5,43.3,9.8,42.9,9.8z M63.9,25.8
	c-0.4,0-0.7-0.3-0.7-0.7c0-0.3,0.3-0.6,0.7-0.6c0.4,0,0.7,0.3,0.7,0.7C64.6,25.6,64.3,25.8,63.9,25.8z"/>
</svg>
